<svg xmlns="http://www.w3.org/2000/svg" xmlns:xlink="http://www.w3.org/1999/xlink" width="352" height="242" viewBox="0 0 352 242">
  <defs>
    <clipPath id="clip-_1-pt-session-one-on-one">
      <rect width="352" height="242"/>
    </clipPath>
  </defs>
  <g id="_1-pt-session-one-on-one" data-name="1-pt-session-one-on-one" clip-path="url(#clip-_1-pt-session-one-on-one)">
    <g id="Group_485" data-name="Group 485" transform="translate(0.128)">
      <g id="Group_456" data-name="Group 456" transform="translate(0)">
        <g id="Group_170" data-name="Group 170">
          <path id="Path_109" data-name="Path 109" d="M231.786,276.339c-25.811,9.931-77.484,10.98-114,2.662s-81.135-44.583-82.758-71.533,23.53-43.918,35.294-65.878.812-25.619-.406-42.254S96.7,42.442,142.536,42.775,223.672,61.407,254.5,52.756s55.578-13.642,68.154,6.321-6.085,42.588,12.576,57.227,56.389,48.576,50.709,75.194-43.813,49.574-71.4,47.91S253.11,268.135,231.786,276.339Z" transform="translate(-34.958 -42.773)" fill="#e4c0cf"/>
          <path id="Path_110" data-name="Path 110" d="M225.066,277.443s-104.644-.315-132.821-20.028-29.713-62.984,0-81.9,50.632-44.123,59.894-62.212,10.693-43.957,33.515-42.252,37.71,38.41,80.523,26.795,65.873-16.451,76.608,18.157,35.668,65.556,9.842,83.27-45.107,8.866-62.5,31.756S253.743,280,225.066,277.443Z" transform="translate(-47.6 -52.794)" fill="#efdbe4" opacity="0.996"/>
        </g>
        <g id="Group_177" data-name="Group 177" transform="translate(96.791 43.496)">
          <g id="Group_173" data-name="Group 173" transform="translate(0 36.942)">
            <rect id="Rectangle_96" data-name="Rectangle 96" width="4.416" height="39.077" transform="translate(67.398 98.282)" fill="#493203"/>
            <g id="Group_171" data-name="Group 171" transform="translate(24.259 6.163)">
              <path id="Path_175" data-name="Path 175" d="M383.933,382.284a7.025,7.025,0,0,0-1.168,4.092c.041,1.548-.826,2.585-.023,3.54s.513,2.516-.419,3.956c-1.033,1.591-1.417,2.557-.058,2.858s1.15.238,1.123.588-.534.944.33,1.48c0,0-.506.733.107,1.2s.876.666.618,1.272-.667,2.51,1.036,2.965,4.915-.727,5.4-.29.151,2.008,2.09,3.71,2.021,2.535,2.021,2.535,8.908-3.411,11.963-9.071c0,0-3.695-1.761-3.46-2.9,0,0-1.8.765-1.763-.19,0,0-1.1-1.01-.973-1.713,0,0-.756-1.582-.212-2.451a1.469,1.469,0,0,1-.03-1.3,3.414,3.414,0,0,0,.557-2.125c-.046-.964-4.946-3.621-5.174-3.985s-1.181-1.028-.961-1.584.048-.883-.307-1.073S383.933,382.284,383.933,382.284Z" transform="translate(-381.39 -382.284)" fill="#c68b63"/>
            </g>
            <path id="Path_176" data-name="Path 176" d="M410.4,379.567c-1.361-3.306.405-7.482,1.244-10.737s-.736-10.051-7.2-11.527c-10.99-2.51-15.511,2.8-14.034,6.154,0,0,8.284,1.67,9.636,9.625l1.584.084s-.71-3.793,1.424-3.906c2.021-.109,1.136,2.3,1.444,3.3s1.907,2.543-.272,2.824c0,0-.3,1.711,3.385,3.3A11.974,11.974,0,0,0,410.4,379.567Z" transform="translate(-363.776 -356.651)" fill="#232323"/>
            <rect id="Rectangle_97" data-name="Rectangle 97" width="45.779" height="7.448" transform="translate(32.566 90.834)" fill="#493203"/>
            <rect id="Rectangle_98" data-name="Rectangle 98" width="51.172" height="8.324" transform="translate(29.872 88.453)" fill="#eb4747"/>
            <path id="Path_177" data-name="Path 177" d="M348.893,681.8c-5.764,2.507-7.407,4.513-6.654,10.279s2.552,24.563,2.1,29.078a58.37,58.37,0,0,1-1.207,7.521l8.772,2.756s-.51-13.477,2.379-16.987c2-2.42,2.761-11.9.377-16.605,0,0,1.64-1.9,5.94-2.449s2.962-9.016,2.962-9.016Z" transform="translate(-327.263 -603.622)" fill="#c68b63"/>
            <path id="Path_178" data-name="Path 178" d="M390.762,637.887c-6.767,1.505-20.306,8.272-20.306,8.272s7.772,1.254,10.149,13.79c0,0,11.912-1.505,15.421-2.008a92.2,92.2,0,0,0,9.526-2.256V634.879Z" transform="translate(-348.826 -567.985)" fill="#232323"/>
            <path id="Path_179" data-name="Path 179" d="M299.447,541.587c0,3.678-2.254,6.661-5.031,6.661s-5.036-2.983-5.036-6.661,2.258-6.667,5.036-6.667S299.447,537.907,299.447,541.587Z" transform="translate(-287.243 -492.059)" fill="#c7c7c7"/>
            <path id="Path_180" data-name="Path 180" d="M302.8,541.587c0,3.678-2.254,6.661-5.034,6.661s-5.031-2.983-5.031-6.661,2.253-6.667,5.031-6.667S302.8,537.907,302.8,541.587Z" transform="translate(-289.792 -492.059)" fill="#8f8f8f"/>
            <path id="Path_181" data-name="Path 181" d="M346.582,498.322a29.721,29.721,0,0,0,19.358,3.225l6.634-1.381s-3.861-14.554-2.812-20.552c.267-1.5.807-6.029.807-6.029s-7.109-4.75-7.843-10.445c-.836-6.434.27-9.25,2.346-11.264a12.259,12.259,0,0,0-5.631-1.138c-3.621,0-7.371,4.024-9.639.941l-7.318,5.267a9.807,9.807,0,0,0-3.684,2.374c-2.217,2.01-6.436,2.41-7.641,6.432-2.259,7.523-1.812,12.667-3.221,15.281s-3.619,10.592-3.619,10.592-.8-7.978-5.027-12.4l-5.631.4s1.315,6.5,2.516,11.192c1.154,4.479,2.924,19.3,9.149,16.084s8.176-8.783,12.264-15.618c4.122-6.885,3.52-8.842,3.52-8.842S346.73,495.5,346.582,498.322Z" transform="translate(-305.686 -428.117)" fill="#c68b63"/>
            <path id="Path_182" data-name="Path 182" d="M321.4,541.638c-2.883-1.745-2.761-2.548-5.033-1.878s-6.026,2.415-4.217,7.308c1.079,2.906,4.5,1.233,4.5,1.233Z" transform="translate(-304.178 -495.557)" fill="#c68b63"/>
            <path id="Path_183" data-name="Path 183" d="M337.934,554.978c0,3.68-2.253,6.661-5.031,6.661s-5.031-2.981-5.031-6.661,2.249-6.663,5.031-6.663S337.934,551.3,337.934,554.978Z" transform="translate(-316.48 -502.234)" fill="#c7c7c7"/>
            <path id="Path_184" data-name="Path 184" d="M496.666,646.7v.76l19.14.876s.872-16.716-11.729-23.773-9.3,13.038-9.3,13.038Z" transform="translate(-442.958 -559.011)" fill="#232323"/>
            <path id="Path_185" data-name="Path 185" d="M341.263,554.978c0,3.68-2.253,6.661-5.031,6.661s-5.033-2.981-5.033-6.661,2.254-6.663,5.033-6.663S341.263,551.3,341.263,554.978Z" transform="translate(-319.007 -502.234)" fill="#8f8f8f"/>
            <g id="Group_172" data-name="Group 172" transform="translate(29.677 22.766)">
              <path id="Path_186" data-name="Path 186" d="M439.13,474.042c-12.361-2.607-12.356-22.7-12.356-22.7h0l-2.888,1c-.876.367-.085.21-.876.367h0s-3.661,8.17-6.609,9.643c-3.487,1.743-7.652-4.427-7.652-4.427a5.508,5.508,0,0,1-1.384,1.858,14.293,14.293,0,0,1-3.093,1.867h0c-2.005,15.525,5.4,21.256,5.4,21.256s5.62,13.061,5.471,15.879A29.721,29.721,0,0,0,434.5,502l6.634-1.381s-3.861-14.554-2.812-20.552C438.59,478.569,439.13,474.042,439.13,474.042Z" transform="translate(-403.924 -451.34)" fill="#faa146"/>
              <path id="Path_187" data-name="Path 187" d="M427.83,582.607l.02.129A.923.923,0,0,0,427.83,582.607Z" transform="translate(-422.082 -551.047)" fill="#faa146"/>
            </g>
            <path id="Path_188" data-name="Path 188" d="M498.942,451.042s8.74-1.215,12.225,5.085,5.762,5.228,8.308,8.444,3.619,6.835,5.1,9.786,3.484,5.887,2.814,8.374-7.766,22.646-12.869,25.673c-3.776,2.238-6.606-1.1-6.606-1.1l-.179-1.018s5.442-23.024,8.93-25.262c0,0-5.162-3.524-5.36-7.276C511.3,473.745,502.839,472.244,498.942,451.042Z" transform="translate(-446.42 -428.277)" fill="#c68b63"/>
            <path id="Path_189" data-name="Path 189" d="M527.346,678.286a10.78,10.78,0,0,0-10.334,0c-3.66,1.754-3.552,16.544-1.184,26.573s1.722,16.044,2.148,21.059h8.4c.428-5.015-.214-11.035,2.153-21.059S531.005,680.041,527.346,678.286Z" transform="translate(-457.966 -599.955)" fill="#c68b63"/>
            <path id="Path_190" data-name="Path 190" d="M530.575,857.039c-1.511-3.967-2.387-7.493,3.9-7.491,5.283,0,4.4,3.716,2.708,7.491Z" transform="translate(-469.619 -731.042)" fill="#232323"/>
            <path id="Path_191" data-name="Path 191" d="M526.326,869.123s-1.3-.466-1.17,2.895-.764,6.652.673,8.5,5.944,8.944,11.48,7.367,3.471-5.823,2.366-7.647c-1.584-2.61-3.762-3.762-3.63-6.394s.92-4.777-2.1-4.744S526.326,869.123,526.326,869.123Z" transform="translate(-466.212 -745.891)" fill="#232323"/>
            <path id="Path_192" data-name="Path 192" d="M295.7,868.756c1.125,1.181,4.822,2.833,6.658,2.437s4.388-2.451,4.865-1.089,1.3,5.869.579,7.851a1.487,1.487,0,0,1,.132,1.507c-.343,1.034-2.842,1.243-6.059,1.134s-12.961.43-15.626-.439-5.072-1.994-5.4-3.263c-.331-1.285-1.028-4.728,1.363-4.3s5.227.459,6.486-.22,3.932-1.783,5.024-2.793S295.238,868.288,295.7,868.756Z" transform="translate(-280.491 -745.464)" fill="#232323"/>
            <path id="Path_193" data-name="Path 193" d="M340.687,848.458c-.6-2.8-.878-7.7.678-7.693s3.181,2.161,2.169,8.134-2.169,2.772-2.169,2.772Z" transform="translate(-325.85 -724.372)" fill="#232323"/>
            <rect id="Rectangle_99" data-name="Rectangle 99" width="4.417" height="39.077" transform="translate(37.615 98.282)" fill="#493203"/>
            <path id="Path_194" data-name="Path 194" d="M402.469,441.026a5.012,5.012,0,0,0,1.7-2.829,6.254,6.254,0,0,0-.72-3.594s.35,4.1-2.476,4.626a8.5,8.5,0,0,0-4.329,1.874,3.106,3.106,0,0,1-3.341-.032c-.26.656-.593,2.462,1.061,2.906,1.7.455,4.915-.727,5.4-.29C400.268,443.176,401.656,441.909,402.469,441.026Z" transform="translate(-366.017 -415.861)" fill="#232323"/>
            <path id="Path_195" data-name="Path 195" d="M407.955,449.731a15.515,15.515,0,0,0,5.672-2.671,8.976,8.976,0,0,0,2.986-4.879s-.848,6.047-5.17,8.265a2.185,2.185,0,0,0-.389-1C410.749,449.172,409.367,449.536,407.955,449.731Z" transform="translate(-377.309 -421.617)" fill="#a77860"/>
          </g>
          <g id="Group_176" data-name="Group 176" transform="translate(62.975 0)">
            <g id="Group_175" data-name="Group 175" transform="translate(27.792)">
              <g id="Group_174" data-name="Group 174" transform="translate(0 6.276)">
                <path id="Path_196" data-name="Path 196" d="M660.389,229.1a7.086,7.086,0,0,0-1.119,4.121c.063,1.557-.8,2.607.027,3.558s.55,2.519-.37,3.972c-1.018,1.611-1.388,2.591-.021,2.869s1.158.224,1.136.577-.529.953.352,1.476c0,0-.5.745.125,1.209s.883.661.63,1.267-.633,2.528,1.076,2.963,4.925-.79,5.419-.36-.154.593,1.814,2.277.974,5.212.974,5.212,9.9-.115,12.894-5.839c0,0-3.32-6.414-3.1-7.571,0,0-1.794.792-1.77-.168,0,0-1.123-.993-1-1.706,0,0-.78-1.573-.247-2.453a1.487,1.487,0,0,1-.045-1.306,3.438,3.438,0,0,0,.533-2.141c-.062-.969-5.012-3.571-5.245-3.929s-1.2-1.021-.988-1.582.036-.887-.323-1.075S660.389,229.1,660.389,229.1Z" transform="translate(-658.016 -229.103)" fill="#eea886"/>
              </g>
              <path id="Path_197" data-name="Path 197" d="M677.537,221.719s-.273,1.72,3.44,3.257a12.069,12.069,0,0,0,2.819.853c-1.411-3.3.3-7.516,1.1-10.793s-.736-11.063-7.38-11.474S664.1,205.985,663.058,203c0,0-1.881,4.879.465,6.923,0,0,8.332,1.569,9.79,9.533l1.589.063s-.759-3.8,1.379-3.938c2.026-.133,1.175,2.3,1.493,3.3s1.947,2.528-.238,2.843Z" transform="translate(-661.304 -203)" fill="#232323"/>
              <path id="Path_198" data-name="Path 198" d="M685.131,296.2a15.485,15.485,0,0,0,5.656-2.75,9,9,0,0,0,2.932-4.945s-.768,6.088-5.075,8.371a2.288,2.288,0,0,0-.4-1C687.93,295.605,686.544,295.992,685.131,296.2Z" transform="translate(-678.612 -267.951)" fill="#a77860"/>
            </g>
            <rect id="Rectangle_100" data-name="Rectangle 100" width="9.328" height="24.146" transform="translate(47.035 105.838)" fill="#eb4747"/>
            <path id="Path_199" data-name="Path 199" d="M724.75,706.046c-.582,2.157-.3,5.839,1.547,10.234s2.419,6.774-.627,14.057-2.4,11-2.141,13.5.691,7.885.691,7.885-6.088.638-7.373.353-3.144-2.963-3.144-2.963,3.455-7.061,3.051-10.01-1.722-19.321-2.932-21.005-2.128-4.381-1.034-9.942c1.359-6.926,1.219-8.854,1.219-8.854S727.364,696.391,724.75,706.046Z" transform="translate(-671.456 -579.662)" fill="#eea886"/>
            <path id="Path_200" data-name="Path 200" d="M681.676,895.639c.936.98,3.991,2.345,5.513,2.021,1.518-.339,3.63-2.032,4.026-.905s1.076,4.237.479,5.878a1.215,1.215,0,0,1,.11,1.245c-.283.86-2.353,1.03-5.014.944s-10.731.355-12.939-.364-4.2-1.655-4.468-2.7-.853-3.291,1.127-2.94,4.325.38,5.368-.183a25.987,25.987,0,0,0,4.16-2.31C680.944,895.476,681.293,895.252,681.676,895.639Z" transform="translate(-638.634 -728.97)" fill="#232323"/>
            <path id="Path_201" data-name="Path 201" d="M711.428,680.92c-.457,2.2,5.025,6.269,1.48,13.839-.986,2.1-3.009,4.481-1.092,9.064s2.525,7.066-.653,14.654-2.5,11.486-2.228,14.077.72,8.224.72,8.224-6.35.656-7.692.364-3.275-3.091-3.275-3.091,3.6-7.36,3.18-10.438-1.8-20.147-3.055-21.9-2.217-4.574-1.081-10.368c1.412-7.222,1.272-9.232,1.272-9.232Z" transform="translate(-660.005 -566.015)" fill="#eea886"/>
            <path id="Path_202" data-name="Path 202" d="M684.354,320S683.137,323.641,673,325.1c0,0-10.989,6.084-12.435,16.587s4.376,20.48,4.858,25.158.81,17,.81,17,12.519.437,22.349-1.5c0,0-1.925-7.292-.35-12.749s5.515-19.093,5.44-27.292S687.03,322.435,684.354,320Z" transform="translate(-631.982 -291.868)" fill="#285173"/>
            <path id="Path_203" data-name="Path 203" d="M665.281,905.9c.974,1.02,4.163,2.449,5.748,2.107s3.785-2.116,4.2-.944,1.121,4.42.5,6.133a1.265,1.265,0,0,1,.116,1.3c-.3.9-2.455,1.073-5.23.984s-11.187.367-13.49-.385-4.378-1.718-4.661-2.82-.889-3.427,1.177-3.06,4.512.4,5.6-.192,3.394-1.537,4.336-2.41S664.881,905.5,665.281,905.9Z" transform="translate(-625.772 -736.759)" fill="#232323"/>
            <path id="Path_204" data-name="Path 204" d="M706.35,575.529s4.4,4.071,4.245,8.571-3.532,9.139-5.967,11.529v21.826l-18.38.593s-2.147-29.6-1.634-40.108Z" transform="translate(-650.366 -485.963)" fill="#eb4747"/>
            <path id="Path_205" data-name="Path 205" d="M589.8,362.735c-5.033-1.528-10.374,3.453-10.618,8.878s3.236,5.73,1.5,7.865-2.628,9.11,1.7,14.256c0,0-7.066-3.947-13.506-1.1s-8.3,2.345-11.071,1.9-6.185-3.114-8.122-2.775-6.391-.228-7.16,2.458c-.689,2.4,2.3,4.825,5.934,5.545s4.748-.036,7.248.521,14.49,4.807,19.661,4.456,17.368,1.582,17.577-3.424,1.613-10.51,2-13.022-1.143-6.815-1.278-8.2S599.551,365.69,589.8,362.735Z" transform="translate(-542.422 -324.118)" fill="#eea886"/>
          </g>
        </g>
      </g>
    </g>
  </g>
</svg>
