<svg xmlns="http://www.w3.org/2000/svg" xmlns:xlink="http://www.w3.org/1999/xlink" width="352" height="242" viewBox="0 0 352 242">
  <defs>
    <clipPath id="clip-path">
      <path id="Path_138" data-name="Path 138" d="M272.821,86v92.49a9.161,9.161,0,0,1-9.161,9.161H118.023a9.158,9.158,0,0,1-9.161-9.161V86a9.161,9.161,0,0,1,9.161-9.161H263.66A9.164,9.164,0,0,1,272.821,86Z" transform="translate(-108.862 -76.839)" fill="#d6d6d6"/>
    </clipPath>
    <clipPath id="clip-_2-zoom-one-on-one-sessions">
      <rect width="352" height="242"/>
    </clipPath>
  </defs>
  <g id="_2-zoom-one-on-one-sessions" data-name="2-zoom-one-on-one-sessions" clip-path="url(#clip-_2-zoom-one-on-one-sessions)">
    <g id="Group_486" data-name="Group 486" transform="translate(0 0)">
      <g id="Group_353" data-name="Group 353" transform="translate(0 0)">
        <g id="Group_137" data-name="Group 137" transform="translate(0 0)">
          <path id="Path_109" data-name="Path 109" d="M231.786,276.339c-25.811,9.931-77.484,10.98-114,2.662s-81.135-44.583-82.758-71.533,23.53-43.918,35.294-65.878.812-25.619-.406-42.254S96.7,42.442,142.536,42.775,223.672,61.407,254.5,52.756s55.578-13.642,68.154,6.321-6.085,42.588,12.576,57.227,56.389,48.576,50.709,75.194-43.813,49.574-71.4,47.91S253.11,268.135,231.786,276.339Z" transform="translate(-34.958 -42.773)" fill="#e4c0cf"/>
          <path id="Path_110" data-name="Path 110" d="M225.066,277.443s-104.644-.315-132.821-20.028-29.713-62.984,0-81.9,50.632-44.123,59.894-62.212,10.693-43.957,33.515-42.252,37.71,38.41,80.523,26.795,65.873-16.451,76.608,18.157,35.668,65.556,9.842,83.27-45.107,8.866-62.5,31.756S253.743,280,225.066,277.443Z" transform="translate(-47.6 -52.794)" fill="#efdbe4"/>
        </g>
        <g id="Group_169" data-name="Group 169" transform="translate(77.857 43.496)">
          <g id="Group_148" data-name="Group 148" transform="translate(24.175 8.374)">
            <path id="Path_111" data-name="Path 111" d="M272.821,86v92.49a9.161,9.161,0,0,1-9.161,9.161H118.023a9.158,9.158,0,0,1-9.161-9.161V86a9.161,9.161,0,0,1,9.161-9.161H263.66A9.164,9.164,0,0,1,272.821,86Z" transform="translate(-108.862 -76.839)" fill="#f5f5f5"/>
            <g id="Group_147" data-name="Group 147" transform="translate(0)" clip-path="url(#clip-path)">
              <path id="Path_112" data-name="Path 112" d="M272.821,86v.835H108.862V86a9.161,9.161,0,0,1,9.161-9.161H263.66A9.164,9.164,0,0,1,272.821,86Z" transform="translate(-108.862 -76.839)" fill="#5a68a0"/>
              <g id="Group_139" data-name="Group 139" transform="translate(6.721 3.213)">
                <g id="Group_138" data-name="Group 138">
                  <path id="Path_113" data-name="Path 113" d="M127.724,85.95a2.142,2.142,0,1,1-2.142-2.142A2.142,2.142,0,0,1,127.724,85.95Z" transform="translate(-123.44 -83.808)" fill="#cb4949"/>
                  <ellipse id="Ellipse_4" data-name="Ellipse 4" cx="2.142" cy="2.142" rx="2.142" ry="2.142" transform="translate(8.27)" fill="#dba585"/>
                  <ellipse id="Ellipse_5" data-name="Ellipse 5" cx="2.142" cy="2.142" rx="2.142" ry="2.142" transform="translate(16.539)" fill="#009e00"/>
                </g>
              </g>
              <g id="Group_146" data-name="Group 146" transform="translate(81.918 15.002)">
                <g id="Group_140" data-name="Group 140" transform="translate(18.059 33.308)">
                  <path id="Path_114" data-name="Path 114" d="M334.089,206.664s-1.213,4.449-2.232,6.99a5.2,5.2,0,0,1-.89,1.664,2.445,2.445,0,0,1-1.48.41,8.012,8.012,0,0,1-1.817-.226s0,0-.009,0l-1.96-2.679s.042-1.18.115-3.025c.055-1.379.129-3.126.221-5.021.028-.572.055-1.153.088-1.747.3-5.713.71-12.126,1.18-13.855a60.428,60.428,0,0,1,2.822-7.534c0-.009,0-.014,0-.018Z" transform="translate(-325.702 -181.619)" fill="#dba585"/>
                </g>
                <g id="Group_141" data-name="Group 141" transform="translate(16.003 83.518)">
                  <path id="Path_115" data-name="Path 115" d="M359.437,307.532l-3.4-.161-16.492-.77-2.227-.1-16.073-.751,4.643-15.229,31.532,4.523Z" transform="translate(-321.242 -290.519)" fill="#eb4747"/>
                  <path id="Path_116" data-name="Path 116" d="M358.329,316.544l-2.227-.1L358,308.969Z" transform="translate(-340.029 -300.462)" fill="#eb4747"/>
                </g>
                <path id="Path_117" data-name="Path 117" d="M362.844,229.95s-1.4.078-3.665.083c-6.289.014-19.3-.493-27.867-4.606l4.044-12.836s-.719-12.324-1.342-22.011c-.392-6.077-.742-11.116-.858-11.439a16.752,16.752,0,0,1,0-3.924l4.523-2.932,3.744-2.425,9.876-.12,3.5,1.531,6.852,2.992-.622,12.287-1.282,25.193Z" transform="translate(-310.666 -141.908)" fill="#3a5271"/>
                <g id="Group_142" data-name="Group 142" transform="translate(47.3 22.52)">
                  <path id="Path_118" data-name="Path 118" d="M433.8,159.964s.223-1.651.714-1.741,1.7,2.142,1.7,2.142Z" transform="translate(-413.198 -158.221)" fill="#997761"/>
                  <path id="Path_119" data-name="Path 119" d="M430.714,169.618a8.667,8.667,0,0,1-1.3.041c-.074,0-.18-.088-.309-.226a24.123,24.123,0,0,1-1.923-2.808,5.832,5.832,0,0,1,.092-1.651,21.343,21.343,0,0,1,1.2-2.587l.641,2.084Z" transform="translate(-409.625 -160.467)" fill="#dba585"/>
                  <path id="Path_120" data-name="Path 120" d="M431.785,172.054a8.668,8.668,0,0,1-1.3.042c-.074,0-.18-.088-.309-.226l.36-.5-.765-2.172-.622-.728.581-.254.461-1.3Z" transform="translate(-410.695 -162.903)" fill="#997761"/>
                  <path id="Path_121" data-name="Path 121" d="M409.584,207.513l-.028.014c-.35.175-3.716,1.821-5.325,1.143a15.193,15.193,0,0,1-2.587-2.13c-4.14-3.864-11.517-11.651-12.14-12.684-.8-1.337-.622-10.172,3.306-14.307,0,0,7.05,8.954,8.742,11.9.646,1.12,1.2,2.089,1.646,2.854l1.12,1.964.3.632.668,1.425Z" transform="translate(-389.122 -169.716)" fill="#dba585"/>
                  <path id="Path_122" data-name="Path 122" d="M420.976,215.569l-2.734,5.238.65-9.258,1.12,1.964.3.632Z" transform="translate(-404.816 -186.961)" fill="#997761"/>
                  <path id="Path_123" data-name="Path 123" d="M431.271,166.553l-2.766,6.515s-.286,5.408-1.07,11.31c-.669,5.035-1.692,10.434-3.214,13.145l-.028.014a12.13,12.13,0,0,1-4.422,1.3,2.412,2.412,0,0,1-.9-.161,15.19,15.19,0,0,1-2.587-2.13c.853-2.822,1.9-6.247,2.969-9.641,2.1-6.7,4.246-13.274,5.062-14.823.576-1.1-1.7-10.439-1.7-10.439a11.926,11.926,0,0,1,2.679-.627c.535.092,4.191,1.877,4.191,1.877Z" transform="translate(-403.759 -159.726)" fill="#dba585"/>
                </g>
                <g id="Group_143" data-name="Group 143" transform="translate(20.31)">
                  <path id="Path_124" data-name="Path 124" d="M334.021,128.3c.059.179,1.13,5.148,2.023,6.233s1.844,2.24,1.844,2.24l-.595-9.484Z" transform="translate(-332.436 -119.032)" fill="#454545"/>
                  <path id="Path_125" data-name="Path 125" d="M377.6,131.375c-.687,2.623-2.038,4.933-4.265,5.187h-.014a.917.917,0,0,1-.161.014,1.654,1.654,0,0,1-.217.014c-.069,0-.138,0-.212,0l2.577-12.4.659-3.163s1.226.2,2,3.481A16.039,16.039,0,0,1,377.6,131.375Z" transform="translate(-353.299 -115.651)" fill="#454545"/>
                  <path id="Path_126" data-name="Path 126" d="M377.6,134.754c-.687,2.623-2.038,4.933-4.265,5.187h-.042l-.134.014a1.657,1.657,0,0,1-.217.014c-.069,0-.138,0-.212,0l2.577-12.4.65-.272s.549,2.859.83,3.629A15.13,15.13,0,0,1,377.6,134.754Z" transform="translate(-353.299 -119.031)" fill="#454545"/>
                  <path id="Path_127" data-name="Path 127" d="M352.4,185.893c-5.533.18-7.149-2.043-7.416-6.146-.184-2.813-.5-5.5-.094-7.463l3.744-2.425,9.876-.12,3.5,1.531C360.944,180.806,357.806,185.723,352.4,185.893Z" transform="translate(-338.188 -141.908)" fill="#dba585"/>
                  <path id="Path_128" data-name="Path 128" d="M362.423,163.53l-10.051,2.559-.235-2.766-.184-2.172,8.391-2.932.332.853Z" transform="translate(-342.1 -135.7)" fill="#dba585"/>
                  <path id="Path_129" data-name="Path 129" d="M360.675,159.072c-1.664,1.651-5.265,5.141-6.141,5.413-.581.18-1.563-.378-2.4-1.162l-.184-2.172,8.391-2.932Z" transform="translate(-342.1 -135.7)" fill="#997761"/>
                  <path id="Path_130" data-name="Path 130" d="M337.247,124.553s1.071,5.176,1.427,6.306a46.2,46.2,0,0,1,.655,5.592s1.725,2.856,7.02,4.641c0,0,6.484-4.045,7.555-5.473s3.153-9.519,1.368-12.434-4.581-5-8.15-4.7S338.5,121.7,338.5,121.7Z" transform="translate(-334.175 -114.271)" fill="#dba585"/>
                  <path id="Path_131" data-name="Path 131" d="M375.731,139.6s1.963-1.829,2.543-.4-.822,3.926-2.516,4.506Z" transform="translate(-354.915 -125.158)" fill="#dba585"/>
                  <path id="Path_132" data-name="Path 132" d="M350.641,121.1v5.934s.529.358.778-.4.894-3.471.894-3.471,1.63-6.969.783-9.022c-3.034-7.351-13.339-4.543-18.8-2.426a7.377,7.377,0,0,0-2.371,1.308c-2.145,1.958-1.806,6.81,1.736,6.635,0,0,8.73-2.305,11.229-2.037a11.367,11.367,0,0,1,4.819,2.007v2.053Z" transform="translate(-330.584 -109.377)" fill="#454545"/>
                  <path id="Path_133" data-name="Path 133" d="M358.566,125.063l-1.564.654s-3.212-2.439-5.235-2.558-11.143,3.51-11.311,3.552h0c2.6-.641,7.893-1.862,9.749-1.663a11.367,11.367,0,0,1,4.819,2.007v2.053l.937-.58v5.934s.529.358.778-.4.894-3.471.894-3.471A49.357,49.357,0,0,0,358.566,125.063Z" transform="translate(-335.904 -116.804)" fill="#454545"/>
                </g>
                <g id="Group_145" data-name="Group 145" transform="translate(0 34.403)">
                  <path id="Path_134" data-name="Path 134" d="M302.055,210.261l14.189-1.517-15.26-21.774L286.8,188.486Z" transform="translate(-286.674 -185.597)" fill="#1e1e1e"/>
                  <g id="Group_144" data-name="Group 144">
                    <path id="Path_135" data-name="Path 135" d="M289.063,195.048a13.817,13.817,0,0,0-1.918-2.5c-.669-.491-.714-.714-.491-.758s1.091-.624,1.594-.178,1.306,1.338,1.306,1.338Z" transform="translate(-286.533 -188.01)" fill="#dba585"/>
                    <path id="Path_136" data-name="Path 136" d="M312.535,214.934a5.2,5.2,0,0,1-.89,1.664c-.945.77-3.131.226-3.3.184,0,0,0,0-.009,0s-9.724-8.212-14.722-19.01a37.371,37.371,0,0,1-2.587-3.569c-.078-.24-.36-1.983-.627-3.845v0c-.134-.945-.267-1.923-.369-2.753a11.141,11.141,0,0,1-.166-2.144,12.661,12.661,0,0,1,2.679-1.425,16.7,16.7,0,0,1,4.191.267l1.5,1.54-2.079.221a33.031,33.031,0,0,0-.106,3.679,16.78,16.78,0,0,1,.715,6.012s6.045,6.137,9.945,10.3c1.512,1.623,2.7,2.946,3.085,3.495A41.379,41.379,0,0,1,312.535,214.934Z" transform="translate(-288.32 -183.994)" fill="#dba585"/>
                  </g>
                  <path id="Path_137" data-name="Path 137" d="M302.642,202.461l-1.9.835a6.692,6.692,0,0,0,1.245-4.269,11.838,11.838,0,0,1-.06-2.577A16.78,16.78,0,0,1,302.642,202.461Z" transform="translate(-294.191 -190.706)" fill="#997761"/>
                </g>
              </g>
            </g>
          </g>
          <g id="Group_153" data-name="Group 153" transform="translate(77.999 54.72)">
            <g id="Group_150" data-name="Group 150" transform="translate(0 0)">
              <path id="Path_139" data-name="Path 139" d="M238.236,202.629a12.635,12.635,0,1,1,12.635-12.635A12.65,12.65,0,0,1,238.236,202.629Zm0-21.373a8.738,8.738,0,1,0,8.738,8.738A8.748,8.748,0,0,0,238.236,181.255Z" transform="translate(-225.6 -177.358)" fill="#3a5271"/>
              <path id="Path_140" data-name="Path 140" d="M262.271,198.585l-2.857-2.65a8.738,8.738,0,0,0-6.408-14.679v-3.9a12.635,12.635,0,0,1,9.265,21.227Z" transform="translate(-240.37 -177.358)" fill="#e39f4e"/>
              <g id="Group_149" data-name="Group 149" transform="translate(8.335 9.64)">
                <path id="Path_141" data-name="Path 141" d="M247.495,199.552a1.325,1.325,0,0,1-.316.889,1.8,1.8,0,0,1-.913.539V201q1.393.176,1.393,1.317a1.427,1.427,0,0,1-.615,1.222,2.867,2.867,0,0,1-1.707.445,4.97,4.97,0,0,1-.832-.065,4.317,4.317,0,0,1-.828-.236v-1.248a3.322,3.322,0,0,0,.744.276,3.042,3.042,0,0,0,.7.089,1.426,1.426,0,0,0,.721-.139.474.474,0,0,0,.227-.436.491.491,0,0,0-.118-.352.765.765,0,0,0-.381-.187,3.065,3.065,0,0,0-.685-.063h-.343V200.5h.35q1.145,0,1.146-.586a.36.36,0,0,0-.17-.327.846.846,0,0,0-.455-.107,2.082,2.082,0,0,0-1.1.358l-.624-1a3.02,3.02,0,0,1,.9-.434,3.926,3.926,0,0,1,1.06-.13,2.337,2.337,0,0,1,1.355.343A1.089,1.089,0,0,1,247.495,199.552Z" transform="translate(-243.677 -198.266)" fill="#3a5271"/>
                <path id="Path_142" data-name="Path 142" d="M257.476,203.91h-4.038v-.989l1.359-1.374q.583-.609.761-.832a1.813,1.813,0,0,0,.249-.383.82.82,0,0,0,.071-.335.437.437,0,0,0-.141-.343.574.574,0,0,0-.4-.125,1.078,1.078,0,0,0-.531.15,3.8,3.8,0,0,0-.607.443l-.826-.966a4.444,4.444,0,0,1,.723-.55,2.564,2.564,0,0,1,.637-.253,3.147,3.147,0,0,1,.775-.088,2.328,2.328,0,0,1,.965.19,1.507,1.507,0,0,1,.658.542,1.393,1.393,0,0,1,.234.79,2.027,2.027,0,0,1-.335,1.151,3.782,3.782,0,0,1-.455.565q-.284.3-1.208,1.127v.038h2.1Z" transform="translate(-248.905 -198.266)" fill="#3a5271"/>
              </g>
            </g>
            <g id="Group_152" data-name="Group 152" transform="translate(0 32.46)">
              <path id="Path_143" data-name="Path 143" d="M238.236,273.032A12.636,12.636,0,1,1,250.871,260.4,12.65,12.65,0,0,1,238.236,273.032Zm0-21.374a8.738,8.738,0,1,0,8.738,8.739A8.748,8.748,0,0,0,238.236,251.658Z" transform="translate(-225.6 -247.761)" fill="#3a5271"/>
              <path id="Path_144" data-name="Path 144" d="M242.1,273.032a12.669,12.669,0,0,1-9.331-4.115l2.878-2.629a8.738,8.738,0,1,0,6.453-14.631v-3.9a12.636,12.636,0,0,1,0,25.271Z" transform="translate(-229.464 -247.761)" fill="#e39f4e"/>
              <g id="Group_151" data-name="Group 151" transform="translate(8.335 9.869)">
                <path id="Path_145" data-name="Path 145" d="M243.677,272.457a4.531,4.531,0,0,1,.333-1.886,2.2,2.2,0,0,1,.982-1.064,3.4,3.4,0,0,1,1.6-.342,5.673,5.673,0,0,1,.792.065v1.176a4.412,4.412,0,0,0-.826-.072,1.64,1.64,0,0,0-1.123.331,1.487,1.487,0,0,0-.4,1.081h.046a1.157,1.157,0,0,1,1.1-.647,1.433,1.433,0,0,1,1.151.478,2.322,2.322,0,0,1-.108,2.778,2.2,2.2,0,0,1-2.988-.108A2.639,2.639,0,0,1,243.677,272.457Zm2.063,1.237a.485.485,0,0,0,.39-.181.9.9,0,0,0,.15-.577q0-.677-.525-.677a.547.547,0,0,0-.421.175.607.607,0,0,0-.162.426,1.057,1.057,0,0,0,.156.6A.474.474,0,0,0,245.74,273.694Z" transform="translate(-243.677 -269.165)" fill="#3a5271"/>
                <path id="Path_146" data-name="Path 146" d="M254.148,274.912l1.911-4.312H253.65v-1.245h4.015v.887l-1.96,4.67Z" transform="translate(-249.052 -269.267)" fill="#3a5271"/>
              </g>
            </g>
          </g>
          <g id="Group_163" data-name="Group 163" transform="translate(0 38.091)">
            <g id="Group_162" data-name="Group 162">
              <g id="Group_155" data-name="Group 155" transform="translate(34.869 30.763)">
                <path id="Path_147" data-name="Path 147" d="M196.876,214.84a5.822,5.822,0,0,1,.833,6.782l-1.309-4.968Z" transform="translate(-166.734 -211.693)" fill="#5b3d14"/>
                <path id="Path_148" data-name="Path 148" d="M188.193,226.174s-.415,1.07-1.01,2.559-2.319,3.924-2.619,3.924a10.38,10.38,0,0,1-1.383-.563c-1.328-.59-3.186-1.452-3.675-1.609a.264.264,0,0,0-.115-.028s-2.859-5.653-2.679-8.092,2.2-4.938,4.223-6.247,5.238.12,6.008,2.084-.175,4.878-.175,5.828S188.193,226.174,188.193,226.174Z" transform="translate(-156.119 -212.11)" fill="#dba585"/>
                <path id="Path_149" data-name="Path 149" d="M186.182,238.672c-1.328-.59-3.186-1.452-3.675-1.609l-.235-7.88,2.233-1.365s.667,5.19.944,6.911C185.609,235.719,186.182,238.672,186.182,238.672Z" transform="translate(-159.12 -218.687)" fill="#997761"/>
                <g id="Group_154" data-name="Group 154" transform="translate(0 0.42)">
                  <path id="Path_150" data-name="Path 150" d="M146.744,213.629a7.665,7.665,0,0,1-1.531,3.873c-3.186,4.97-2.559,10.895-1.9,18.272.645,7.266-4.629,15.547-4.781,15.791l0,0c1.812-10.558-3.453-18.945-5.625-24.33s.032-13.03,4.643-16.958,9.106,1.9,9.106,1.9A5.145,5.145,0,0,1,146.744,213.629Z" transform="translate(-132.057 -208.924)" fill="#5b3d14"/>
                  <path id="Path_151" data-name="Path 151" d="M151.942,222.738c-3.186,4.97-2.559,10.895-1.9,18.272.645,7.266-4.629,15.547-4.781,15.791,3.444-7.243,1.807-15.552,1.807-15.552s-2.273-8.788-2.5-11.333,1.162-5.579,3.214-8.119a10,10,0,0,1,5.422-3.158s.1.083.272.226A7.666,7.666,0,0,1,151.942,222.738Z" transform="translate(-138.786 -214.16)" fill="#5b3d14"/>
                </g>
                <path id="Path_152" data-name="Path 152" d="M177.995,214.849c-.77,1.724-5.915,6.367-6.957,7.5a24.4,24.4,0,0,1-2.748,2.213c-1.369,1-2.7,1.89-2.7,1.89a16.935,16.935,0,0,1-3.509-7.612,16.343,16.343,0,0,1-.134-5.039,4.76,4.76,0,0,1,1.618-3.112c1.609-1.282,9.788-5.565,14.666.475A6.159,6.159,0,0,1,177.995,214.849Z" transform="translate(-148.092 -208.014)" fill="#5b3d14"/>
                <path id="Path_153" data-name="Path 153" d="M168.289,228.863c-1.369,1-2.7,1.89-2.7,1.89a16.935,16.935,0,0,1-3.509-7.612,16.343,16.343,0,0,1-.134-5.039,13.281,13.281,0,0,1,1.531-2.1c.207,0,3.333,3.841,3.333,3.841l.443,5.353Z" transform="translate(-148.092 -212.318)" fill="#5b3d14"/>
                <path id="Path_154" data-name="Path 154" d="M162.026,216a17.073,17.073,0,0,1-1.432,5.315l.952.337A27.052,27.052,0,0,0,162.825,216Z" transform="translate(-147.437 -212.319)" fill="#fff"/>
              </g>
              <g id="Group_156" data-name="Group 156" transform="translate(0 124.011)">
                <path id="Path_155" data-name="Path 155" d="M65.334,415.013l-.466,1.19-.092.244-.092.148c-.424.682-2.241,3.6-2.9,4.666-.069.115-.129.207-.171.272-.489.793-.184,2.015-.184,2.808a.573.573,0,0,0,.037.189,1.742,1.742,0,0,0,.452.609c.037.032.055.051.055.051.632.59,1.614,1.162,1.775,1.406.244.364-1.342.973-2.683.913s-3.232-.184-3.536-1.646.613-4.265.489-6.46-1.522-6.4-1.586-6.948,2.075-2.195,2.623-2.195a31.99,31.99,0,0,1,4.113,1.637Z" transform="translate(-56.429 -410.259)" fill="#dba585"/>
                <path id="Path_156" data-name="Path 156" d="M69.991,422.308l-.092.244-.092.148c-.424.682-2.241,3.6-2.9,4.666-.069.115-.129.208-.171.272-.489.793-.184,2.015-.184,2.808a.572.572,0,0,0,.037.189A4.518,4.518,0,0,1,66,429.067a10.651,10.651,0,0,1,.9-5.4,6.628,6.628,0,0,1,2.573-2.079Z" transform="translate(-61.552 -416.365)" fill="#dba585"/>
              </g>
              <g id="Group_157" data-name="Group 157" transform="translate(6.737 96.38)">
                <path id="Path_157" data-name="Path 157" d="M128.781,359.251l-20.527,16.419s-3.748,2.052-5.173,2.144-30.43,6.335-30.43,6.335c-.134-.272-.277-.6-.42-.964-.6-1.54-1.19-3.587-1.19-3.587,5.533-.715,18.115-7.852,19.365-8.119s10.623-1.342,10.623-1.342l16.336-19.088.576-.673.041-.046.018.014Z" transform="translate(-71.042 -350.329)" fill="#454545"/>
                <path id="Path_158" data-name="Path 158" d="M130.172,359.267l-20.527,16.419s-3.748,2.052-5.173,2.144-30.43,6.335-30.43,6.335c-.134-.272-.277-.6-.42-.964,3.661-1.13,14.7-4.532,17.373-5.224,3.214-.835,16.921-2.734,16.921-2.734l11.872-13.209s-.839-9.083-1.033-10.969c-.018-.194-.032-.309-.037-.337l.613-.337.06-.032Z" transform="translate(-72.432 -350.345)" fill="#454545"/>
              </g>
              <g id="Group_158" data-name="Group 158" transform="translate(51.959 54.077)">
                <path id="Path_159" data-name="Path 159" d="M186.546,284.1l2.324,15.436-18.65-1.784s.9-2.333,1.918-5.15a75.577,75.577,0,0,0,2.808-8.862s-2.831-9.175-4.546-15.344c-.231-.812-.433-1.568-.613-2.245a26.953,26.953,0,0,1-.664-2.928l7.787-4.647s1.632,1.162,3.67,2.651c3.006,2.2,6.9,5.1,7.755,6.008.627.664.839,2.19.835,3.919a35.646,35.646,0,0,1-.659,6.252,60.755,60.755,0,0,1-1.96,6.681Z" transform="translate(-169.122 -258.579)" fill="#eb4747"/>
              </g>
              <g id="Group_159" data-name="Group 159" transform="translate(52.35 93.254)">
                <path id="Path_160" data-name="Path 160" d="M219.932,382.638a24.912,24.912,0,0,1-5.533.267s-.977-11.158-1.337-12.495c-.046-.175-.124-.484-.226-.894-.655-2.679-2.273-9.549-2.273-9.549l-.355-4.906s-16.972,1.858-24.57,1.969a20.619,20.619,0,0,1-2.826-.1c-4.551-.622-10.711-2.854-12.495-7.585,0,0-.982-3.569.36-5.8,0,0,17.848,1.07,26.235,2.052s17.935,3.126,19.005,3.748,2.591,3.928,2.591,3.928S219.757,377.013,219.932,382.638Z" transform="translate(-169.97 -343.549)" fill="#454545"/>
                <path id="Path_161" data-name="Path 161" d="M231.436,376.854l-.286,3.3c-.655-2.679-2.273-9.549-2.273-9.549l-.355-4.906s-16.972,1.858-24.57,1.969c.48-.009,26.769-4.38,26.769-4.38Z" transform="translate(-188.284 -354.188)" fill="#454545"/>
              </g>
              <g id="Group_160" data-name="Group 160" transform="translate(96.06 132.1)">
                <path id="Path_162" data-name="Path 162" d="M287.032,434.436a1.868,1.868,0,0,1-.567.3,72.911,72.911,0,0,1-8.345.226c-2.365-.046-8.7.977-9.77.756-.987-.2-3.121-2.089-3.509-2.513a.4.4,0,0,1-.06-.074c-.092-.18.535-2.992.71-4.818,0,0,4.016-.941,5.533-.267l3.034,2.453s6.114,1.738,7.589,2.407,6.068.4,6.155.581C287.867,433.615,287.507,434.1,287.032,434.436Z" transform="translate(-264.772 -427.803)" fill="#dba585"/>
                <path id="Path_163" data-name="Path 163" d="M287.113,440.732a1.87,1.87,0,0,1-.567.3,72.9,72.9,0,0,1-8.345.226c-2.365-.046-8.7.977-9.77.756-.987-.2-3.121-2.089-3.509-2.513a7.76,7.76,0,0,1,3.108.415,7.443,7.443,0,0,0,3.7.761,16.922,16.922,0,0,1,4.638-.226c1.743.267,9.373.226,9.373.226Z" transform="translate(-264.853 -434.098)" fill="#dba585"/>
              </g>
              <g id="Group_161" data-name="Group 161" transform="translate(51.665)">
                <path id="Path_164" data-name="Path 164" d="M177.209,271.1c-2.826,1.217-5.242-.3-6.81-2.7a50.53,50.53,0,0,1-1.277-5.173l7.787-4.647s1.632,1.162,3.67,2.651C180.75,264.2,180.575,269.654,177.209,271.1Z" transform="translate(-168.828 -204.502)" fill="#dba585"/>
                <path id="Path_165" data-name="Path 165" d="M177.741,195.415s-.922,6.455-3.689,7.377-5.072.922-5.533-4.611,3.689-23.975,3.227-24.436,0-16.6.461-19.826a16.878,16.878,0,0,1-1.711-3.882c-.178-1.249-.357-2.945-.357-2.945l1.071-1.517V142.63l1.606-1.338a21.741,21.741,0,0,1,3.481,2.142c.535.625.267,5.443.267,6.158a34.912,34.912,0,0,1-1.071,4.194s1.428,14.367.892,19.632C176.388,173.418,177.935,188.945,177.741,195.415Z" transform="translate(-168.484 -141.292)" fill="#dba585"/>
                <path id="Path_166" data-name="Path 166" d="M179.367,266.677a30.184,30.184,0,0,1-3.311,2.275,4.841,4.841,0,0,1-2,.63A4.272,4.272,0,0,0,179.367,266.677Z" transform="translate(-171.488 -208.862)" fill="#997761"/>
                <path id="Path_167" data-name="Path 167" d="M174.3,154.531l-.312-3.949-.351.5Z" transform="translate(-171.263 -146.299)" fill="#997761"/>
              </g>
            </g>
          </g>
          <g id="Group_164" data-name="Group 164" transform="translate(158.282 20.727)">
            <rect id="Rectangle_82" data-name="Rectangle 82" width="13.355" height="2.139" transform="translate(10.2 1.589)" fill="#1e1e1e"/>
            <rect id="Rectangle_83" data-name="Rectangle 83" width="13.355" height="2.139" transform="translate(10.2 9.563)" fill="#1e1e1e"/>
            <path id="Path_168" data-name="Path 168" d="M402.1,126.295a.574.574,0,0,1-.407-.169l-1.8-1.8a.576.576,0,0,1,.815-.815L402.1,124.9l3.151-3.15a.576.576,0,0,1,.815.815l-3.558,3.559A.574.574,0,0,1,402.1,126.295Z" transform="translate(-399.726 -113.306)" fill="#e39f4e"/>
            <rect id="Rectangle_84" data-name="Rectangle 84" width="13.355" height="2.139" transform="translate(10.2 16.506)" fill="#1e1e1e"/>
            <path id="Path_169" data-name="Path 169" d="M402.1,141.353a.574.574,0,0,1-.407-.169l-1.8-1.8a.576.576,0,1,1,.815-.815l1.388,1.388,3.151-3.151a.576.576,0,0,1,.815.815l-3.558,3.558A.574.574,0,0,1,402.1,141.353Z" transform="translate(-399.726 -121.422)" fill="#e39f4e"/>
            <path id="Path_170" data-name="Path 170" d="M403.384,108.948a2.659,2.659,0,1,1,2.659-2.658A2.662,2.662,0,0,1,403.384,108.948Zm0-4.165a1.506,1.506,0,1,0,1.506,1.506A1.508,1.508,0,0,0,403.384,104.784Z" transform="translate(-400.264 -103.631)" fill="#cb4949"/>
          </g>
          <g id="Group_165" data-name="Group 165" transform="translate(15.547 34.572)">
            <rect id="Rectangle_85" data-name="Rectangle 85" width="4.818" height="2.139" transform="translate(0.001 0)" fill="#1e1e1e"/>
            <rect id="Rectangle_86" data-name="Rectangle 86" width="18.263" height="2.139" transform="translate(7.498 0)" fill="#1e1e1e"/>
            <rect id="Rectangle_87" data-name="Rectangle 87" width="25.76" height="2.142" transform="translate(0 4.501)" fill="#1e1e1e"/>
            <rect id="Rectangle_88" data-name="Rectangle 88" width="12.878" height="2.139" transform="translate(0.001 9.005)" fill="#1e1e1e"/>
            <rect id="Rectangle_89" data-name="Rectangle 89" width="7.912" height="2.139" transform="translate(14.396 9.005)" fill="#1e1e1e"/>
            <rect id="Rectangle_90" data-name="Rectangle 90" width="25.76" height="2.142" transform="translate(0 13.504)" fill="#1e1e1e"/>
            <rect id="Rectangle_91" data-name="Rectangle 91" width="14.992" height="2.142" transform="translate(0 18.006)" fill="#1e1e1e"/>
          </g>
          <g id="Group_168" data-name="Group 168" transform="translate(64.931 0)">
            <path id="Path_171" data-name="Path 171" d="M251.429,97.851c3.785-3.363,6.061-7.679,6.061-12.385,0-10.736-11.839-19.44-26.442-19.44s-26.442,8.7-26.442,19.44,11.838,19.44,26.442,19.44a33.029,33.029,0,0,0,15.705-3.8c3.281,1.725,9.428,5.065,9.428,5.065Z" transform="translate(-201.218 -62.638)" fill="#ccc" style="mix-blend-mode: multiply;isolation: isolate"/>
            <path id="Path_172" data-name="Path 172" d="M244.08,90.5c3.785-3.363,6.061-7.679,6.061-12.385,0-10.736-11.838-19.44-26.442-19.44s-26.442,8.7-26.442,19.44S209.1,97.557,223.7,97.557a33.027,33.027,0,0,0,15.705-3.8c3.282,1.725,9.428,5.065,9.428,5.065Z" transform="translate(-197.257 -58.677)" fill="#fff"/>
            <g id="Group_166" data-name="Group 166" transform="translate(27.348 12.414)">
              <rect id="Rectangle_92" data-name="Rectangle 92" width="17.491" height="2.142" fill="#1e1e1e"/>
              <rect id="Rectangle_93" data-name="Rectangle 93" width="15.184" height="2.142" transform="translate(0 4.201)" fill="#1e1e1e"/>
              <rect id="Rectangle_94" data-name="Rectangle 94" width="17.491" height="2.142" transform="translate(0 8.402)" fill="#1e1e1e"/>
              <rect id="Rectangle_95" data-name="Rectangle 95" width="12.417" height="2.142" transform="translate(0 12.604)" fill="#1e1e1e"/>
            </g>
            <g id="Group_167" data-name="Group 167" transform="translate(7.675 11.956)">
              <path id="Path_173" data-name="Path 173" d="M225.258,93.8l.895,5.21-4.68-2.462-4.68,2.462.134-.788.761-4.422L213.9,90.11l5.233-.761,2.338-4.74,2.338,4.74.438.065,4.8.7Z" transform="translate(-213.902 -84.609)" fill="#b27532"/>
              <path id="Path_174" data-name="Path 174" d="M216.927,98.22l.761-4.422L213.9,90.11l5.233-.761,2.338-4.74,2.338,4.74.438.065Z" transform="translate(-213.902 -84.609)" fill="#e39f4e"/>
            </g>
          </g>
        </g>
      </g>
    </g>
  </g>
</svg>
