<svg xmlns="http://www.w3.org/2000/svg" xmlns:xlink="http://www.w3.org/1999/xlink" width="352" height="242" viewBox="0 0 352 242">
  <defs>
    <clipPath id="clip-_3-workshop-in-lebanon-and-outside">
      <rect width="352" height="242"/>
    </clipPath>
  </defs>
  <g id="_3-workshop-in-lebanon-and-outside" data-name="3-workshop-in-lebanon-and-outside" clip-path="url(#clip-_3-workshop-in-lebanon-and-outside)">
    <g id="Group_487" data-name="Group 487" transform="translate(0 0.273)">
      <g id="Group_459" data-name="Group 459" transform="translate(0)">
        <path id="Path_109" data-name="Path 109" d="M231.786,276.339c-25.811,9.931-77.484,10.98-114,2.662s-81.135-44.583-82.758-71.533,23.53-43.918,35.294-65.878.812-25.619-.406-42.254S96.7,42.442,142.536,42.775,223.672,61.407,254.5,52.756s55.578-13.642,68.154,6.321-6.085,42.588,12.576,57.227,56.389,48.576,50.709,75.194-43.813,49.574-71.4,47.91S253.11,268.135,231.786,276.339Z" transform="translate(-34.958 -42.773)" fill="#e4c0cf"/>
        <path id="Path_110" data-name="Path 110" d="M225.066,277.443s-104.644-.315-132.821-20.028-29.713-62.984,0-81.9,50.632-44.123,59.894-62.212,10.693-43.957,33.515-42.252,37.71,38.41,80.523,26.795,65.873-16.451,76.608,18.157,35.668,65.556,9.842,83.27-45.107,8.866-62.5,31.756S253.743,280,225.066,277.443Z" transform="translate(-47.6 -52.795)" fill="#efdbe4"/>
        <g id="Group_217" data-name="Group 217" transform="translate(142.885 43.496)">
          <g id="Group_179" data-name="Group 179" transform="translate(0 0)">
            <rect id="Rectangle_101" data-name="Rectangle 101" width="135.397" height="110.556" rx="5" fill="#5a68a0"/>
          </g>
          <g id="Group_180" data-name="Group 180" transform="translate(7.525 8.387)">
            <rect id="Rectangle_102" data-name="Rectangle 102" width="120.346" height="93.779" rx="5" fill="#fff"/>
          </g>
          <g id="Group_206" data-name="Group 206" transform="translate(41.041 14.13)">
            <g id="Group_181" data-name="Group 181" transform="translate(25.416 43.217)">
              <path id="Path_206" data-name="Path 206" d="M3013.4,457.033a64.56,64.56,0,0,1,.866,6.99c.167,3.275-4.044,2.851-4.044,2.851l-3.872-4.708,3.037-3.781Z" transform="translate(-3006.354 -457.033)" fill="#eea886"/>
            </g>
            <g id="Group_182" data-name="Group 182" transform="translate(16.852 41.436)">
              <path id="Path_207" data-name="Path 207" d="M2972.378,449.733a70.049,70.049,0,0,0-1.129,8.365c-.206,3.772,7.328,1.218,7.328,1.218l.624-.894.27-8.133Z" transform="translate(-2971.245 -449.733)" fill="#eea886"/>
            </g>
            <g id="Group_183" data-name="Group 183" transform="translate(0 3.613)">
              <path id="Path_208" data-name="Path 208" d="M2927.231,303.8v30.387l-4.515,1.433-2.576-3.132s1.59-7.3-.156-9.151a24.452,24.452,0,0,1-4.266-7.777c-.651-2.116-1.526-1.969-4.885-3.232s-9.285-3.032-8.627-5.037,4.125-7.149,5.516-9.3,1.821-3.461,3.643-3.311,4.445.989,4.4,2.327-.631,1.952-1.216,1.851-3.032-.295-3.032-1.383a1.258,1.258,0,0,0-.535.939c-.05.646-.41,5.142-1.576,6.777a3.761,3.761,0,0,1,3.064-.2c1.41.694,2.055,1.191,2.93.991a5.8,5.8,0,0,1,4.617.4c1.9,1.139,4.457-.05,4.5-1.49s.05-1.136.05-1.136Z" transform="translate(-2902.154 -294.662)" fill="#eea886"/>
            </g>
            <g id="Group_184" data-name="Group 184" transform="translate(25.078 3.613)">
              <path id="Path_209" data-name="Path 209" d="M3004.969,303.8v30.387l6.116.426.971-2.125s-1.591-7.3.158-9.151a24.417,24.417,0,0,0,4.261-7.777c.655-2.116,1.531-1.969,4.885-3.232s9.285-3.032,8.632-5.037-4.13-7.149-5.513-9.3-1.823-3.461-3.649-3.311-4.443.989-4.4,2.327.635,1.952,1.22,1.851,3.033-.295,3.033-1.383a1.257,1.257,0,0,1,.535.939c.05.646.406,5.142,1.576,6.777a3.757,3.757,0,0,0-3.064-.2c-1.411.694-1.459,1.191-2.334.991s-3.318-.744-5.212.4-4.459-.05-4.507-1.49-.049-1.136-.049-1.136Z" transform="translate(-3004.969 -294.662)" fill="#eea886"/>
            </g>
            <g id="Group_186" data-name="Group 186" transform="translate(17.203 25.672)">
              <g id="Group_185" data-name="Group 185">
                <path id="Path_210" data-name="Path 210" d="M2988.432,388.473a4.511,4.511,0,0,1-4.613.712c-1.764-.821-2.014-.959-3.259-.959s-1.506.148-3.257.959a4.494,4.494,0,0,1-4.617-.712,6.687,6.687,0,0,0,3.474-1.44,7.678,7.678,0,0,1,1.769-1.354,6.246,6.246,0,0,1,5.259,0,7.335,7.335,0,0,1,1.756,1.35A6.661,6.661,0,0,0,2988.432,388.473Z" transform="translate(-2972.685 -385.1)" fill="#d3957d"/>
              </g>
            </g>
            <g id="Group_188" data-name="Group 188" transform="translate(20.186 31.328)">
              <g id="Group_187" data-name="Group 187">
                <path id="Path_211" data-name="Path 211" d="M2994.694,410.262a3.061,3.061,0,0,1-2.814.563,5,5,0,0,0-4.153,0,3.055,3.055,0,0,1-2.815-.567,5.773,5.773,0,0,0,2.17-.928,5.169,5.169,0,0,1,1.136-.744,4.7,4.7,0,0,1,1.563-.3,4.575,4.575,0,0,1,1.6.3,4.992,4.992,0,0,1,1.133.744A5.69,5.69,0,0,0,2994.694,410.262Z" transform="translate(-2984.912 -408.291)" fill="#d3957d"/>
              </g>
            </g>
            <g id="Group_190" data-name="Group 190" transform="translate(21.209 34.782)">
              <g id="Group_189" data-name="Group 189">
                <path id="Path_212" data-name="Path 212" d="M2996.842,424.226a2.336,2.336,0,0,1-2.3.594,4.339,4.339,0,0,0-3.139.012,2.352,2.352,0,0,1-2.293-.605,4.808,4.808,0,0,0,1.653-.889,3.12,3.12,0,0,1,.894-.626,4.157,4.157,0,0,1,1.272-.259,3.711,3.711,0,0,1,1.367.263,3.58,3.58,0,0,1,.567.338c.182.12.163.166.343.29A4.606,4.606,0,0,0,2996.842,424.226Z" transform="translate(-2989.106 -422.452)" fill="#d3957d"/>
              </g>
            </g>
            <g id="Group_192" data-name="Group 192" transform="translate(21.746 37.671)">
              <g id="Group_191" data-name="Group 191">
                <path id="Path_213" data-name="Path 213" d="M2997.973,435.967a2,2,0,0,1-2.032.617,2.954,2.954,0,0,0-1.252-.209,3.048,3.048,0,0,0-1.356.218,1.677,1.677,0,0,1-.528.041,5.277,5.277,0,0,1-.6-.073,1.9,1.9,0,0,1-.891-.594,6.681,6.681,0,0,0,.825-.426l.254-.211c.086-.088.331-.19.294-.231a2.337,2.337,0,0,1,.774-.562,3.581,3.581,0,0,1,1.134-.238,3.232,3.232,0,0,1,1.227.24,2.782,2.782,0,0,1,.506.311c.161.107.125.143.281.259A3.827,3.827,0,0,0,2997.973,435.967Z" transform="translate(-2991.309 -434.298)" fill="#d3957d"/>
              </g>
            </g>
            <g id="Group_193" data-name="Group 193" transform="translate(22.29 12.671)">
              <path id="Path_214" data-name="Path 214" d="M2997.975,334.5c.193-.229.662-.671,1.139-1.172a1.29,1.29,0,0,1-.07-.365c-.05-1.431-.05-1.136-.05-1.136l-2.665.052-2.667-.052s0-.295-.05,1.136a1.225,1.225,0,0,1-.07.365c.479.5.945.944,1.138,1.172.411.495,1.1.3,1.317.29l.332-.018.329.018C2996.877,334.8,2997.56,334.994,2997.975,334.5Z" transform="translate(-2993.541 -331.8)" fill="#d3957d"/>
            </g>
            <g id="Group_194" data-name="Group 194" transform="translate(19.789 1.145)">
              <path id="Path_215" data-name="Path 215" d="M2993.141,291.454h-.089c.039-.311.075-.624.116-.921.19-1.526.633-5.988-4.595-5.988s-4.788,4.461-4.6,5.988c.041.3.077.61.117.921H2984c-.8-.594-.862.973-.531,1.5a3.4,3.4,0,0,1,.447.977c.12.359.326.406.494.37.023.211.037.4.05.544.074.821,2.018,2.477,2.46,2.992.411.481,1.1.295,1.318.284s.331-.018.331-.018.106,0,.329.018.9.2,1.317-.284c.438-.515,2.386-2.171,2.457-2.992.018-.145.032-.333.054-.544.17.037.37-.011.495-.37a3.351,3.351,0,0,1,.442-.977C2994,292.427,2993.937,290.86,2993.141,291.454Z" transform="translate(-2983.284 -284.546)" fill="#eea886"/>
            </g>
            <g id="Group_195" data-name="Group 195" transform="translate(20.211)">
              <path id="Path_216" data-name="Path 216" d="M2993.61,279.85s.209.6-4.253.6c0,0,0,0,0,0-.088,0-.186,0-.3.009a4.048,4.048,0,0,0-4.037,4.33l.009-.007a14.194,14.194,0,0,0,.376,3.121l.088-.5a5.8,5.8,0,0,1,.24-1.121c.013-.03.018-.063.032-.1a4,4,0,0,1,.216-.517c1.156-2.359,3.9-1.59,3.9-1.59s2.746-.771,3.908,1.594a5.353,5.353,0,0,1,.2.5c.014.036.023.075.041.114a5.9,5.9,0,0,1,.24,1.113l.086.5c.12-.649.25-1.3.324-1.955v-.011A10.179,10.179,0,0,0,2993.61,279.85Z" transform="translate(-2985.015 -279.85)" fill="#643b07"/>
            </g>
            <g id="Group_196" data-name="Group 196" transform="translate(12.943 47.605)">
              <path id="Path_217" data-name="Path 217" d="M2959.345,475.026c-.424,3.411-.683,10.306-.227,12.773a7.9,7.9,0,0,1-.424,4.946c-.542,1.615-.372,4.438.277,7.691s1.066,4.688-.533,6.212-3.956,2.6-3,3.831,3.282.538,4.148-.283a6.661,6.661,0,0,1,2.275-1.656,1.674,1.674,0,0,0,.737-2.365,6.286,6.286,0,0,1-.413-3.738c.252-1.383,2.157-4.736,2.128-6.845s-.667-1.653,0-4.024a75.4,75.4,0,0,0,2.919-15.81Z" transform="translate(-2955.219 -475.026)" fill="#eea886"/>
            </g>
            <g id="Group_197" data-name="Group 197" transform="translate(25.184 47.605)">
              <path id="Path_218" data-name="Path 218" d="M3013.3,475.026c.428,3.411.687,10.306.234,12.773a7.8,7.8,0,0,0,.424,4.946c.535,1.615.37,4.438-.277,7.691s-1.073,4.688.531,6.212,3.958,2.6,3,3.831-3.281.538-4.153-.283a6.664,6.664,0,0,0-2.268-1.656,1.671,1.671,0,0,1-.737-2.365,6.3,6.3,0,0,0,.41-3.738c-.25-1.383-2.157-4.736-2.125-6.845s.664-1.653,0-4.024a75.575,75.575,0,0,1-2.926-15.81Z" transform="translate(-3005.406 -475.026)" fill="#eea886"/>
            </g>
            <g id="Group_198" data-name="Group 198" transform="translate(17.439 41.436)">
              <path id="Path_219" data-name="Path 219" d="M2974.2,449.733s.914,1.1,7.092,1.1V458.5h-.42s-4.316-5.115-7.219-5.507Z" transform="translate(-2973.65 -449.733)" fill="#232323"/>
            </g>
            <g id="Group_199" data-name="Group 199" transform="translate(24.969 41.436)">
              <path id="Path_220" data-name="Path 220" d="M3011.709,449.733s-.925,1.1-7.187,1.1V458.5h.424s4.377-5.115,7.321-5.507Z" transform="translate(-3004.522 -449.733)" fill="#232323"/>
            </g>
            <g id="Group_201" data-name="Group 201" transform="translate(0.198 17.169)">
              <g id="Group_200" data-name="Group 200">
                <path id="Path_221" data-name="Path 221" d="M2917.928,355.522c-.106-1.989-3.241-1.465-6.8-2.2s-3.425-1.885-3.425-1.885a5.734,5.734,0,0,1-4.737-1.2h0c1,1.622,5.658,3.044,8.48,4.107,3.359,1.263,4.234,1.116,4.885,3.232a24.834,24.834,0,0,0,1.552,3.649C2916.978,358.915,2918.014,357.173,2917.928,355.522Z" transform="translate(-2902.964 -350.24)" fill="#d3957d"/>
              </g>
            </g>
            <g id="Group_203" data-name="Group 203" transform="translate(34.982 17.169)">
              <g id="Group_202" data-name="Group 202">
                <path id="Path_222" data-name="Path 222" d="M3045.579,355.522c.107-1.989,3.248-1.465,6.8-2.2s3.425-1.885,3.425-1.885a5.736,5.736,0,0,0,4.738-1.2h0c-1.009,1.622-5.656,3.044-8.48,4.107-3.359,1.263-4.235,1.116-4.885,3.232a25.077,25.077,0,0,1-1.549,3.649C3046.533,358.915,3045.495,357.173,3045.579,355.522Z" transform="translate(-3045.574 -350.24)" fill="#d3957d"/>
              </g>
            </g>
            <g id="Group_204" data-name="Group 204" transform="translate(13.092 15.706)">
              <path id="Path_223" data-name="Path 223" d="M2955.827,344.242a5.547,5.547,0,0,1,3.941,3.18,14.7,14.7,0,0,0,.7,1.969,2.955,2.955,0,0,0,.851,1.061,3.5,3.5,0,0,0,1.365.6l.424.091.536.059a6.147,6.147,0,0,0,.961.032,2.957,2.957,0,0,0,3.126-1.876,2.606,2.606,0,0,1-.447,2.49,4.635,4.635,0,0,1-2.25,1.524,8.653,8.653,0,0,1-1.282.306l-.589.1-.709.04a5.149,5.149,0,0,1-2.876-.8,4.954,4.954,0,0,1-1.921-2.436,7.13,7.13,0,0,1-.411-2.408A11.64,11.64,0,0,0,2955.827,344.242Z" transform="translate(-2955.827 -344.242)" fill="#d3957d"/>
            </g>
            <g id="Group_205" data-name="Group 205" transform="translate(25.038 15.706)">
              <path id="Path_224" data-name="Path 224" d="M3016.856,344.242a11.6,11.6,0,0,0-1.424,3.924,7.15,7.15,0,0,1-.41,2.406,4.937,4.937,0,0,1-1.917,2.438,5.164,5.164,0,0,1-2.875.8l-.705-.04-.594-.1a8.51,8.51,0,0,1-1.282-.306,4.653,4.653,0,0,1-2.254-1.524,2.629,2.629,0,0,1-.443-2.49,2.953,2.953,0,0,0,3.125,1.876,6.075,6.075,0,0,0,.957-.032l.54-.059c.1-.032.29-.052.419-.091a3.524,3.524,0,0,0,1.372-.6,2.916,2.916,0,0,0,.844-1.061c.12-.231.217-.517.313-.746.048-.147.093-.372.149-.517a5.4,5.4,0,0,1,.238-.705A5.546,5.546,0,0,1,3016.856,344.242Z" transform="translate(-3004.805 -344.242)" fill="#d3957d"/>
            </g>
          </g>
          <g id="Group_207" data-name="Group 207" transform="translate(80.359 49.622)">
            <rect id="Rectangle_103" data-name="Rectangle 103" width="17.06" height="1.041" fill="#c7c7c7"/>
          </g>
          <g id="Group_208" data-name="Group 208" transform="translate(100.483 47.712)">
            <rect id="Rectangle_104" data-name="Rectangle 104" width="20.838" height="4.856" fill="#90b8eb"/>
          </g>
          <g id="Group_209" data-name="Group 209" transform="translate(94.927 88.112)">
            <rect id="Rectangle_105" data-name="Rectangle 105" width="20.838" height="4.86" fill="#90b8eb"/>
          </g>
          <g id="Group_210" data-name="Group 210" transform="translate(94.927 15.729)">
            <rect id="Rectangle_106" data-name="Rectangle 106" width="20.838" height="4.858" fill="#90b8eb"/>
          </g>
          <g id="Group_211" data-name="Group 211" transform="translate(16.282 15.314)">
            <rect id="Rectangle_107" data-name="Rectangle 107" width="20.838" height="4.856" fill="#90b8eb"/>
          </g>
          <g id="Group_212" data-name="Group 212" transform="translate(18.409 76.447)">
            <rect id="Rectangle_108" data-name="Rectangle 108" width="20.838" height="4.854" fill="#90b8eb"/>
          </g>
          <g id="Group_213" data-name="Group 213" transform="translate(79.856 67.083)">
            <path id="Path_225" data-name="Path 225" d="M3074.709,520.933h-7.5l-5.917-23.732,1.009-.249,5.72,22.941h6.691Z" transform="translate(-3061.289 -496.951)" fill="#c7c7c7"/>
          </g>
          <g id="Group_214" data-name="Group 214" transform="translate(28.443 63.198)">
            <path id="Path_226" data-name="Path 226" d="M2851.266,492.112l-.764-.71,9.63-10.378h18.135v1.041h-17.679Z" transform="translate(-2850.502 -481.023)" fill="#c7c7c7"/>
          </g>
          <g id="Group_215" data-name="Group 215" transform="translate(25.683 21.907)">
            <path id="Path_227" data-name="Path 227" d="M2864.6,329.754h-14.479l-10.938-17.464.88-.556,10.639,16.976h13.9Z" transform="translate(-2839.187 -311.735)" fill="#c7c7c7"/>
          </g>
          <g id="Group_216" data-name="Group 216" transform="translate(93.276 23.254)">
            <path id="Path_228" data-name="Path 228" d="M3122.253,325.318h-5.944v-1.043h5.425l5.319-7.017.833.63Z" transform="translate(-3116.309 -317.258)" fill="#c7c7c7"/>
          </g>
        </g>
        <g id="Group_219" data-name="Group 219" transform="translate(67.865 49.266)">
          <path id="Path_229" data-name="Path 229" d="M2700.957,391.055c-3.4-1.778-7.913-1.009-10.2-.834s-3.84-.388-7.4-1.545-11.322-4.735-16.1-4.055-9.834-.07-12.651-1.619-9.04-4.452-13.22-4.262c-2.987.138-7.949.458-10.347.53.6,1.905,1.208,3.8,1.955,5.663,1.572,3.906,2.595,10.322,4.552,14.028a3.714,3.714,0,0,0,.374-1.708,56.232,56.232,0,0,0,21.623-3.191s10.644,4.656,17.481,2.7,6.97-1.78,10.388-1.488,8.9.372,5.965-1a10.559,10.559,0,0,0-2.831-.916c1.531.013,3.738.043,4.7.08C2696.777,393.491,2704.354,392.827,2700.957,391.055Z" transform="translate(-2581.098 -346.253)" fill="#eea886"/>
          <g id="Group_218" data-name="Group 218" transform="translate(0 0)">
            <path id="Path_230" data-name="Path 230" d="M2595.724,607.789a128.66,128.66,0,0,1,1.741,14.073c.35,6.6-8.133,5.745-8.133,5.745l-7.8-9.48,6.115-7.614Z" transform="translate(-2543.675 -519.442)" fill="#eea886"/>
            <path id="Path_231" data-name="Path 231" d="M2513.129,593.126a142.547,142.547,0,0,0-2.279,16.835c-.415,7.586,14.76,2.449,14.76,2.449l1.257-1.794.535-16.377Z" transform="translate(-2490.225 -508.355)" fill="#eea886"/>
            <path id="Path_232" data-name="Path 232" d="M2498.692,362.793c5.207,1.025,10.287-1.871,10.387-4.765s.093-2.293.093-2.293l5.368.1v61.184l-9.092,2.883-5.18-6.3s3.2-14.695-.322-18.434-4.792-11.388-6.114-15.652Z" transform="translate(-2477.364 -328.827)" fill="#eea886"/>
            <path id="Path_233" data-name="Path 233" d="M2498.692,362.793c5.207,1.025,10.287-1.871,10.387-4.765s.093-2.293.093-2.293l5.368.1v61.184l-9.092,2.883-5.18-6.3s3.2-14.695-.322-18.434-4.792-11.388-6.114-15.652Z" transform="translate(-2477.364 -328.827)" fill="#eea886"/>
            <path id="Path_234" data-name="Path 234" d="M2450.547,411.333c.365,2.508-5.217,6.269-5.217,6.269-1.29.871-2.417,3.576-3.565,6.1a8.693,8.693,0,0,1-3.8,3.765c3.47,1.223,12.093,14.061,12.891,14.978s1.4-2.257,1.4-2.257c-1.248-1.628.669-3.261,1.361-4.023s2.2-.454,3.792,1.5-1.06,5.967-3.4,8.1-4.441.637-8.807-1.136-14.667-11.732-17.86-14.052,1.88-10.655,5.059-16.066,2.872-9.3,5.922-11.626Z" transform="translate(-2426.316 -364.51)" fill="#eea886"/>
            <path id="Path_235" data-name="Path 235" d="M2599.444,379.512c-1.322,4.264-2.59,11.914-6.114,15.652s-.322,18.434-.322,18.434l-1.947,4.273-12.327-.855V355.832l5.369-.1s0-.6.1,2.293,3.908,3.955,8.29,4.765Z" transform="translate(-2541.558 -328.827)" fill="#eea886"/>
            <path id="Path_236" data-name="Path 236" d="M2565.171,359.777c.361-.438,1.222-1.259,2.13-2.2-.084-2.363-.084-1.839-.084-1.839l-5.369.1-5.368-.1s0-.529-.079,1.844c.905.937,1.767,1.762,2.13,2.2.83.991,2.211.6,2.658.585s.656-.045.656-.045.218.018.674.045C2562.955,360.381,2564.336,360.769,2565.171,359.777Z" transform="translate(-2524.672 -328.831)" fill="#a77860"/>
            <path id="Path_237" data-name="Path 237" d="M2554.938,268.936h-.177c.075-.635.154-1.254.231-1.86.388-3.069,1.272-12.052-9.258-12.052s-9.637,8.983-9.244,12.052c.075.605.156,1.225.231,1.86h-.177c-1.608-1.2-1.737,1.957-1.073,3.028a6.509,6.509,0,0,1,.9,1.971c.254.714.66.819,1,.739.05.426.084.8.106,1.1.147,1.656,4.06,4.98,4.949,6.019.83.968,2.211.592,2.658.574l.655-.041.674.041c.438.018,1.819.395,2.654-.574.885-1.039,4.8-4.364,4.944-6.019.032-.3.066-.674.107-1.1.34.08.75-.025,1-.739a6.629,6.629,0,0,1,.9-1.971C2556.676,270.893,2556.542,267.734,2554.938,268.936Z" transform="translate(-2508.563 -252.72)" fill="#eea886"/>
            <path id="Path_238" data-name="Path 238" d="M2555.89,245.576s.42,1.2-8.561,1.2l0,.009c-.186,0-.387,0-.608.018-8.6.383-8.126,8.711-8.126,8.711l.018-.009a28.647,28.647,0,0,0,.753,6.282l.18-1.009a11.8,11.8,0,0,1,.487-2.257c.023-.055.039-.125.062-.188a11.187,11.187,0,0,1,.429-1.043c2.34-4.747,7.856-3.2,7.856-3.2s5.539-1.547,7.879,3.211c.154.345.3.685.411,1.018.02.073.048.148.074.222a11.741,11.741,0,0,1,.488,2.241l.174,1.009c.245-1.311.513-2.617.651-3.937,0-.007,0-.011,0-.018A20.508,20.508,0,0,0,2555.89,245.576Z" transform="translate(-2511.201 -245.576)" fill="#232323"/>
            <path id="Path_239" data-name="Path 239" d="M2506.576,644.016c-.859,6.87-1.381,20.757-.465,25.719s.231,6.707-.853,9.959-.742,8.938.563,15.479,2.152,9.442-1.073,12.51c0,0,.572,8.793,2.327,7.144s3.193-2.944,4.572-3.336,2.483-2.363,1.479-4.758a12.684,12.684,0,0,1-.831-7.53c.508-2.787,4.346-9.532,4.287-13.783s-1.343-3.329,0-8.1a152.758,152.758,0,0,0,5.89-31.831Z" transform="translate(-2485.516 -546.832)" fill="#eea886"/>
            <path id="Path_240" data-name="Path 240" d="M2595.513,644.016c.857,6.87,1.381,20.757.465,25.719s-.227,6.707.853,9.959.747,8.938-.562,15.479-.277,8.493.6,12.857c.774,3.817-.1,8.446-1.853,6.8s-3.2-2.944-4.572-3.336-2.483-2.363-1.483-4.758a12.7,12.7,0,0,0,.83-7.53c-.5-2.787-4.341-9.532-4.282-13.783s1.338-3.329,0-8.1a152.161,152.161,0,0,1-5.9-31.831Z" transform="translate(-2542.22 -546.832)" fill="#eea886"/>
            <path id="Path_241" data-name="Path 241" d="M2462.672,383.984s3.014-10.68,11.751-10.68c6.076,0,7.822.984,10.95-1.885s0,7.287,0,7.287l-14.547,10.6Z" transform="translate(-2453.804 -340.339)" fill="#eea886"/>
            <path id="Path_242" data-name="Path 242" d="M2620.138,383.984s-3.019-10.68-11.755-10.68c-6.079,0-7.818.984-10.946-1.885s0,7.287,0,7.287l14.544,10.6Z" transform="translate(-2554.647 -340.339)" fill="#eea886"/>
          </g>
          <path id="Path_243" data-name="Path 243" d="M2518.449,383.531a8.292,8.292,0,0,1-7.731-4.695l-.048-.068-.086.063c-1.7.637-3.452.3-6.479.331l-.186.084c1.454,10.306-4.91,21.51-4.91,21.51l-.007.066c0,3.411,2.241,9.022,4.854,11.8,3.524,3.74.322,18.434.322,18.434l5.18,6.3,9.092-2.883Z" transform="translate(-2481.272 -346.281)" fill="#285173"/>
          <path id="Path_244" data-name="Path 244" d="M2578.323,383.531a8.289,8.289,0,0,0,7.734-4.695l.05-.068c.027.023.055.041.086.063,1.692.637,3.452.3,6.475.331l.186.084c-1.451,10.306,4.917,21.51,4.917,21.51l0,.066a17.155,17.155,0,0,1-4.858,11.8c-3.524,3.74-.318,18.434-.318,18.434l-5.184,6.3-12.891-3.523Z" transform="translate(-2541.147 -346.281)" fill="#285173"/>
          <path id="Path_245" data-name="Path 245" d="M2506.455,593.126a369.537,369.537,0,0,0-4.441,39l16.026,1.032,2.687-21.682V594.239Z" transform="translate(-2483.55 -508.355)" fill="#eb4747"/>
          <path id="Path_246" data-name="Path 246" d="M2592.794,593.126a370.5,370.5,0,0,1,4.438,39l-16.028,1.032-2.688-21.682-2.011-17.159Z" transform="translate(-2541.34 -508.355)" fill="#eb4747"/>
          <path id="Path_247" data-name="Path 247" d="M2620.739,882.716c-1.232-3.241-1.951-6.121,3.184-6.117,4.318,0,3.6,3.032,2.216,6.117Z" transform="translate(-2572.644 -722.686)" fill="#232323"/>
          <path id="Path_248" data-name="Path 248" d="M2617.332,892.352s-1.061-.377-.954,2.368-.622,5.432.549,6.936,4.858,7.307,9.374,6.021,2.84-4.758,1.935-6.246c-1.291-2.132-3.068-3.073-2.962-5.221s.75-3.9-1.724-3.874S2617.332,892.352,2617.332,892.352Z" transform="translate(-2569.924 -734.583)" fill="#232323"/>
          <path id="Path_249" data-name="Path 249" d="M2513.915,882.716c1.232-3.241,1.951-6.121-3.184-6.117-4.325,0-3.6,3.032-2.211,6.117Z" transform="translate(-2487.656 -722.686)" fill="#232323"/>
          <path id="Path_250" data-name="Path 250" d="M2499.679,892.352s1.061-.377.955,2.368.621,5.432-.549,6.936-4.858,7.307-9.378,6.021-2.837-4.758-1.93-6.246c1.291-2.132,3.069-3.073,2.962-5.221s-.75-3.9,1.724-3.874S2499.679,892.352,2499.679,892.352Z" transform="translate(-2472.734 -734.583)" fill="#232323"/>
          <path id="Path_251" data-name="Path 251" d="M2506.354,560.859c.649.27,1.1,9.176.885,10.56s2.272-.075,2.733-4.661.115-4.245.805-3.785,2.037,2.123,2.867,1.715.889-1.365-.59-2.776c-2.148-2.041-1.7-2.844-4.128-5.781s-3.89-1.456-3.89-1.456Z" transform="translate(-2485.835 -479.001)" fill="#fdb171"/>
        </g>
      </g>
    </g>
  </g>
</svg>
