<svg xmlns="http://www.w3.org/2000/svg" xmlns:xlink="http://www.w3.org/1999/xlink" width="352" height="242" viewBox="0 0 352 242">
  <defs>
    <clipPath id="clip-_4-group-sessions">
      <rect width="352" height="242"/>
    </clipPath>
  </defs>
  <g id="_4-group-sessions" data-name="4-group-sessions" clip-path="url(#clip-_4-group-sessions)">
    <g id="Group_488" data-name="Group 488" transform="translate(0 0)">
      <g id="Group_457" data-name="Group 457" transform="translate(0 0)">
        <g id="Group_136" data-name="Group 136">
          <path id="Path_109" data-name="Path 109" d="M231.786,276.339c-25.811,9.931-77.484,10.98-114,2.662s-81.135-44.583-82.758-71.533,23.53-43.918,35.294-65.878.812-25.619-.406-42.254S96.7,42.442,142.536,42.775,223.672,61.407,254.5,52.756s55.578-13.642,68.154,6.321-6.085,42.588,12.576,57.227,56.389,48.576,50.709,75.194-43.813,49.574-71.4,47.91S253.11,268.135,231.786,276.339Z" transform="translate(-34.958 -42.773)" fill="#e4c0cf" opacity="0.999"/>
          <path id="Path_110" data-name="Path 110" d="M225.066,277.443s-104.644-.315-132.821-20.028-29.713-62.984,0-81.9,50.632-44.123,59.894-62.212,10.693-43.957,33.515-42.252,37.71,38.41,80.523,26.795,65.873-16.451,76.608,18.157,35.668,65.556,9.842,83.27-45.107,8.866-62.5,31.756S253.743,280,225.066,277.443Z" transform="translate(-47.6 -52.794)" fill="#efdbe4"/>
        </g>
        <g id="Group_135" data-name="Group 135" transform="translate(30.039 43.496)">
          <g id="Group_96" data-name="Group 96" transform="translate(0)">
            <path id="Path_12" data-name="Path 12" d="M514.975,243.593s5.64,11.892,1.758,12.6c-5.33.977-7.487-8.873-7.487-8.873Z" transform="translate(-463.076 -206.614)" fill="#163342"/>
            <path id="Path_13" data-name="Path 13" d="M528.978,207.491s3.047-2.4,4.344-3.7,7.027-10.5,8.183-12.283,2.471-5.309,3.259-6.834,8.569-13.247,8.569-13.247l3,1.262s-5.362,13.562-6.729,15.823-2.734,6.834-3.785,8.831-6.728,10.041-7.728,11.881a32.436,32.436,0,0,0-1.949,5.429S527.626,212.45,528.978,207.491Z" transform="translate(-476.061 -158.776)" fill="#ad6b59"/>
            <path id="Path_14" data-name="Path 14" d="M496.047,257.312a38.085,38.085,0,0,1,.28,7.033c-.28,2.868,7.85.765,7.85.765s-.455-6.238.245-8.481S496.047,257.312,496.047,257.312Z" transform="translate(-454.327 -214.695)" fill="#ad6b59"/>
            <path id="Path_15" data-name="Path 15" d="M436.66,385.152s-1.1,2.7-1.814,4.557-4.161,9.389-5.1,14.74-2.359,15.055-2.565,17.728a29.644,29.644,0,0,1-2.29,8.927c-1.074,2.189-3.477,8.6-3.747,12.693s-2.38,22.178-2.38,22.178,1.841,1.6,4.988-.6c0,0,5.171-17.1,6.457-19.611a46.273,46.273,0,0,0,3.329-11.407c.184-2.376,2.332-5.048,4.137-10.563s9.35-21.383,10.086-24.524c0,0,.07-1.4,1.948-1.132L448.519,384.5Z" transform="translate(-403.092 -300.022)" fill="#faa146"/>
            <path id="Path_16" data-name="Path 16" d="M496.172,384.868s1.173,2.91,1.887,4.764,4.144,9.4,5.077,14.749,2.331,15.06,2.533,17.733a29.644,29.644,0,0,0,2.273,8.932c1.07,2.191,3.462,8.606,3.724,12.7s2.34,22.183,2.34,22.183-1.844,1.6-4.987-.611c0,0-5.14-17.111-6.421-19.623a46.281,46.281,0,0,1-3.308-11.413c-.179-2.376-2.323-5.053-4.118-10.57S485.741,402.246,484.726,399a1.192,1.192,0,0,0-1.637-.947l-10.614-14.137Z" transform="translate(-438.701 -299.638)" fill="#faa146"/>
            <path id="Path_17" data-name="Path 17" d="M405.168,620.051a1.686,1.686,0,0,1-1.238.467c-.749-.048-2.986-.849-3.927-.4s-1.236,4.761-3.061,5.913-7.293,4.735-6.836,7.519c.461,2.811,8.029,1.632,9.874-.793s3.612-1.379,5.1-3.082S405.014,621.674,405.168,620.051Z" transform="translate(-384.079 -456.127)" fill="#eb7171"/>
            <path id="Path_18" data-name="Path 18" d="M578.52,621.065a1.763,1.763,0,0,0,1.248.442c.749-.046,2.987-.843,3.928-.4s1.228,4.764,3.05,5.918,7.284,4.749,6.823,7.531c-.466,2.81-8.032,1.616-9.873-.811s-3.609-1.385-5.094-3.091S578.671,622.688,578.52,621.065Z" transform="translate(-508.624 -456.787)" fill="#eb7171"/>
            <path id="Path_19" data-name="Path 19" d="M486.691,226.874s-.742-.891-1.018.006.63,3.565.729,3.951c0,0,.45,1.5.63,1.306A48.578,48.578,0,0,0,486.691,226.874Z" transform="translate(-447.415 -195.27)" fill="#ad6b59"/>
            <path id="Path_20" data-name="Path 20" d="M526.509,227.2s.742-.891,1.019.006-.63,3.565-.729,3.951c0,0-.45,1.5-.629,1.306A48.474,48.474,0,0,1,526.509,227.2Z" transform="translate(-474.27 -195.488)" fill="#ad6b59"/>
            <path id="Path_21" data-name="Path 21" d="M495.522,202.228s6.811,1.049,5.814,11.777-7.008,9.877-7.409,9.867-6.03.223-6.518-12.868C487.409,211,487.182,201.324,495.522,202.228Z" transform="translate(-448.6 -179.153)" fill="#ad6b59"/>
            <path id="Path_22" data-name="Path 22" d="M488.486,209.935s7.559,2.248,11.178,1.529c0,0,.231,1.336.751,1.417s.785-2.552.785-2.552.177-8.724-7.715-8.806-6.289,9.45-6.289,9.45l.107,1.629S488.434,213.048,488.486,209.935Z" transform="translate(-448.371 -178.725)" fill="#163342"/>
            <path id="Path_23" data-name="Path 23" d="M498.8,263.518s2.385,2.259,6.053.186a3.823,3.823,0,0,1-3.14,1.765A3.463,3.463,0,0,1,498.8,263.518Z" transform="translate(-456.151 -219.823)" fill="#633029"/>
            <path id="Path_24" data-name="Path 24" d="M480.889,274.786a19.684,19.684,0,0,0,3.2,1.222c.946.158,7.2,5.257,7.411,5.783s-1.471,4.836-2.1,6.833S486.05,302.66,486.3,303.5s2.606,9.286,2.717,9.966c-16.365,3.224-24.889.462-24.889.462s2.766-8.169,2.661-9.746-1.629-10.513-2.734-13.037-2.943-8.884-2.943-8.884,7.149-5.572,7.359-5.94,3.792-1.052,4.773-1.537Z" transform="translate(-431.17 -227.293)" fill="#ad6b59"/>
            <path id="Path_25" data-name="Path 25" d="M429.751,207.561a55.881,55.881,0,0,1-4.734-3.768c-1.3-1.3-7.027-10.5-8.183-12.283s-2.471-5.309-3.259-6.834-8.569-13.247-8.569-13.247l-3,1.262s5.362,13.562,6.729,15.823,2.733,6.834,3.785,8.831,6.728,10.041,7.727,11.881a32.432,32.432,0,0,1,1.949,5.429S431.1,212.519,429.751,207.561Z" transform="translate(-391.988 -158.776)" fill="#ad6b59"/>
            <path id="Path_26" data-name="Path 26" d="M489.57,277.064s3.451,10.629,4.643,15.171c0,0-1.816,8.127-2.033,9.342a56.174,56.174,0,0,0-20.38.352s-2.2-9.556-2.414-10.094a52.179,52.179,0,0,0,5.03-14.7,4.673,4.673,0,0,1,2.295-.658S475.744,287.1,482.736,287s4.845-10.62,4.845-10.62A12.768,12.768,0,0,1,489.57,277.064Z" transform="translate(-436.653 -228.349)" fill="#faa146"/>
            <g id="Group_86" data-name="Group 86" transform="translate(5.841 5.156)">
              <g id="Group_85" data-name="Group 85">
                <g id="Group_84" data-name="Group 84">
                  <path id="Path_27" data-name="Path 27" d="M398.517,159.3a5.226,5.226,0,0,1-.785-1.83c-.036-.58.036-1.419.021-1.947a19.044,19.044,0,0,0-.539-3.309,14.543,14.543,0,0,1-1.273-1.746c-.13-.452-.281-1.4-.671-1.271s-.488,1.027-.488,1.027a.587.587,0,0,0-.52-.393,1.011,1.011,0,0,0-.933.438s-.418-.311-.721-.225a1.29,1.29,0,0,0-.854.6,1.183,1.183,0,0,0-.8.127,1.08,1.08,0,0,0-.54.89s-.751.21-.8.643a3.632,3.632,0,0,0,.207,1.11,12.45,12.45,0,0,0,3.058,4.594,12.256,12.256,0,0,1,2.5,3.723Z" transform="translate(-389.609 -149.189)" fill="#ad6b59"/>
                </g>
              </g>
            </g>
            <g id="Group_87" data-name="Group 87" transform="translate(4.014 5.564)">
              <rect id="Rectangle_77" data-name="Rectangle 77" width="11.253" height="2.066" transform="matrix(0.905, -0.425, 0.425, 0.905, 0, 4.785)" fill="#b85858"/>
            </g>
            <g id="Group_89" data-name="Group 89" transform="translate(5.848 5.775)">
              <g id="Group_88" data-name="Group 88">
                <path id="Path_28" data-name="Path 28" d="M395.008,151.649s1.182,2.4.8,3.231-.854-.005-.854-.005.484.823-.138,1.288-1.125-.549-1.125-.549a.772.772,0,0,1-.575.953c-.773.228-1-.711-1-.711s-.291,1.185-1.1.608a4,4,0,0,1-1.391-2.941s.039-.475.8-.643a1.069,1.069,0,0,1,1.339-1.017s.763-1.121,1.575-.372A.931.931,0,0,1,395.008,151.649Z" transform="translate(-389.63 -151.025)" fill="#995647"/>
              </g>
            </g>
            <path id="Path_29" data-name="Path 29" d="M404.351,134.375l.748-.363a1.191,1.191,0,0,1,1.592.551l4.976,10.251a1.191,1.191,0,0,1-.552,1.592l-.747.363a1.192,1.192,0,0,1-1.592-.551L403.8,135.967A1.191,1.191,0,0,1,404.351,134.375Z" transform="translate(-393.096 -133.892)" fill="#eb7171"/>
            <path id="Rectangle_78" data-name="Rectangle 78" d="M1.606,0h0A1.607,1.607,0,0,1,3.214,1.607V12.171a1.607,1.607,0,0,1-1.607,1.607h0A1.607,1.607,0,0,1,0,12.171V1.606A1.606,1.606,0,0,1,1.606,0Z" transform="translate(8.906 16.78) rotate(154.116)" fill="#eb7171"/>
            <g id="Group_92" data-name="Group 92" transform="translate(75.541 5.156)">
              <g id="Group_91" data-name="Group 91">
                <g id="Group_90" data-name="Group 90">
                  <path id="Path_30" data-name="Path 30" d="M596.38,159.3a5.227,5.227,0,0,0,.785-1.83c.037-.58-.036-1.419-.021-1.947a19.079,19.079,0,0,1,.539-3.309,14.512,14.512,0,0,0,1.273-1.746c.13-.452.281-1.4.671-1.271s.488,1.027.488,1.027a.587.587,0,0,1,.52-.393,1.011,1.011,0,0,1,.933.438s.418-.311.722-.225a1.288,1.288,0,0,1,.853.6,1.183,1.183,0,0,1,.8.127,1.079,1.079,0,0,1,.54.89s.752.21.8.643a3.661,3.661,0,0,1-.207,1.11,12.452,12.452,0,0,1-3.058,4.594,12.254,12.254,0,0,0-2.5,3.723Z" transform="translate(-596.38 -149.189)" fill="#ad6b59"/>
                </g>
              </g>
            </g>
            <g id="Group_93" data-name="Group 93" transform="translate(75.213 5.564)">
              <rect id="Rectangle_79" data-name="Rectangle 79" width="2.066" height="11.253" transform="translate(0 1.87) rotate(-64.836)" fill="#b85858"/>
            </g>
            <g id="Group_95" data-name="Group 95" transform="translate(78.186 5.775)">
              <g id="Group_94" data-name="Group 94">
                <path id="Path_31" data-name="Path 31" d="M605.1,151.649s-1.182,2.4-.8,3.231.854-.005.854-.005-.483.823.138,1.288,1.124-.549,1.124-.549a.772.772,0,0,0,.575.953c.773.228,1-.711,1-.711s.291,1.185,1.1.608a4,4,0,0,0,1.391-2.941s-.04-.475-.8-.643a1.069,1.069,0,0,0-1.339-1.017s-.762-1.121-1.575-.372A.931.931,0,0,0,605.1,151.649Z" transform="translate(-604.227 -151.025)" fill="#995647"/>
              </g>
            </g>
            <path id="Path_32" data-name="Path 32" d="M592.121,134.375l-.748-.363a1.191,1.191,0,0,0-1.592.551l-4.976,10.251a1.191,1.191,0,0,0,.552,1.592l.747.363a1.192,1.192,0,0,0,1.592-.551l4.976-10.251A1.192,1.192,0,0,0,592.121,134.375Z" transform="translate(-513.087 -133.892)" fill="#eb7171"/>
            <path id="Path_33" data-name="Path 33" d="M622.408,148.5l-1.3-.63a.886.886,0,0,0-1.183.41l-5.243,10.8a.885.885,0,0,0,.41,1.183l1.3.63a.885.885,0,0,0,1.183-.41l5.243-10.8A.886.886,0,0,0,622.408,148.5Z" transform="translate(-532.914 -143.1)" fill="#eb7171"/>
          </g>
          <g id="Group_124" data-name="Group 124" transform="translate(201.369 24.384)">
            <path id="Path_55" data-name="Path 55" d="M1402.2,219.012s-1.757-7.02,2.581-10.568a8.628,8.628,0,0,1,11.552,0c2.405,2.287,5.367,6.925,2.607,13.51s-3.356,5.022-2.134,9.872,2.721,8.2.276,10.409-6.23,1.617-6.585-1.143-.674-12.576-.928-14.016S1402.2,219.012,1402.2,219.012Z" transform="translate(-1363.348 -206.23)" fill="#1c4154"/>
            <path id="Path_56" data-name="Path 56" d="M1396.576,278.811a50.323,50.323,0,0,0,6.856,2.187c1.832.236,1.158,5.674,1.158,5.674a21.933,21.933,0,0,1,1.22,6.213c-.124,3.3-1.669,4.189-1.788,4.426s-1.477,8.038-1.6,9.4a13.361,13.361,0,0,0,.689,4.226c.348,1.261,1.469,5.905,1.469,5.905s-9.244,2.794-23.193.252c0,0,.911-3.6,1.24-5.384a14.2,14.2,0,0,0,.468-4.585c-.237-1.773-2.187-9.22-2.246-9.93s-3.9-4.61-.473-9.279c0,0,.886-4.846,1.123-6.147,0,0,5.969-2.719,7.565-2.955S1396.576,278.811,1396.576,278.811Z" transform="translate(-1348.172 -254.276)" fill="#eea886"/>
            <path id="Path_57" data-name="Path 57" d="M1449.938,285.506a8.544,8.544,0,0,1,4.241,1.4c1.817,1.33,3.058,6.738,3.369,7.624s3.679,6.472,4.255,8.245.887,2.881,1.153,2.792a51.427,51.427,0,0,0,4.344-6.981c.609-1.526,3.015-8.179,3.015-8.179l2.563,4.766.17.4s-2.467,6.673-3.221,9.067-2.527,8.023-3.369,8.777-4.078,1.818-5.807.443-5.763-7.8-6.782-9.974-3.015-5.674-3.015-5.674S1447.648,287.781,1449.938,285.506Z" transform="translate(-1394.678 -258.783)" fill="#eea886"/>
            <path id="Path_58" data-name="Path 58" d="M1350.156,287.785s-2.556-.03-3.753,1.035-3.458,3.635-3.99,5.9-.842,6.339-1.552,8.555-2.7,7.935-3.724,10.018-1.95,10.772-2.571,12.855-2.9,9.029-2.9,9.029l3.606,1.832s7.314-16.047,8.023-18.485.842-5.408,1.507-7.226,3.59-8.5,4.034-9.767S1354.263,288.346,1350.156,287.785Z" transform="translate(-1316.823 -260.294)" fill="#eea886"/>
            <path id="Path_59" data-name="Path 59" d="M1340.866,395.655s-1.254,2.593-2.08,4.37a101.361,101.361,0,0,0-5.177,14.482c-1.242,5.195-3.978,14.328-4.331,16.937a28.469,28.469,0,0,1-2.8,8.629c-1.2,2.089-3.979,8.246-4.474,12.243s-3.608,21.612-3.608,21.612,1.773,1.666,5.072-.329c0,0,6.151-16.489,7.587-18.881a44.534,44.534,0,0,0,3.982-11c.314-2.319,2.63-4.825,4.752-10.135s10.732-20.521,11.938-23.645a1.276,1.276,0,0,1,1.611-.867l-.458-13.429Z" transform="translate(-1308.025 -331.791)" fill="#285173"/>
            <path id="Path_60" data-name="Path 60" d="M1408.806,395.11s1.348,2.788,2.173,4.565,4.3,9.569,5.538,14.764,3.617,14.045,3.97,16.654a28.472,28.472,0,0,0,2.8,8.629c1.2,2.089,3.98,8.246,4.475,12.243s3.607,21.612,3.607,21.612-1.774,1.666-5.072-.329c0,0-6.151-16.489-7.586-18.881a44.5,44.5,0,0,1-3.982-11c-.315-2.319-2.63-4.825-4.753-10.135s-10.731-20.521-11.938-23.645a1.192,1.192,0,0,0-1.707-.839l-11.515-13.276Z" transform="translate(-1352.054 -331.441)" fill="#285173"/>
            <path id="Path_61" data-name="Path 61" d="M1404.388,219.627a14.1,14.1,0,0,0-1.065,10.764c1.774,6.269,4.315,6.668,6.41,6.033,2.543-.771,4.977-6.072,5.391-8.437s1.992-8.049-4.113-8.773C1408.211,218.88,1405.373,218.975,1404.388,219.627Z" transform="translate(-1363.936 -214.712)" fill="#eea886"/>
            <path id="Path_62" data-name="Path 62" d="M1414.923,263.477s-.046,6.818.887,8.718-8.415.726-8.415.726,1.147-7.7.733-9.553S1414.923,263.477,1414.923,263.477Z" transform="translate(-1367.022 -243.581)" fill="#eea886"/>
            <path id="Path_63" data-name="Path 63" d="M1402.7,223.2s2.318-5.441,4.6-5.244c0,0,4.464,5.818,8.384,8.075,0,0,4.825-7.916-6.53-11.347C1409.161,214.683,1402.278,211.962,1402.7,223.2Z" transform="translate(-1363.899 -211.641)" fill="#1c4154"/>
            <path id="Path_64" data-name="Path 64" d="M1410.908,266.77s1.49,1.8,3.124,1.515a5.543,5.543,0,0,0,2.555-1.091,3.071,3.071,0,0,1-2.733,1.789C1412.154,268.983,1410.908,266.77,1410.908,266.77Z" transform="translate(-1369.351 -246.363)" fill="#a77860"/>
            <path id="Path_65" data-name="Path 65" d="M1400.78,279.96s2.913,4.745,3.628,6.307c0,0,3.836,7.255-.567,10.639a67.947,67.947,0,0,1-1.242,6.942,54.428,54.428,0,0,0-20.2.314s-1.723-6.5-1.723-7.375c0,0-4.137-5.053-.473-9.279,0,0,3.257-6.594,3.527-7.205A18.651,18.651,0,0,1,1400.78,279.96Z" transform="translate(-1347.99 -253.871)" fill="#eb4747"/>
            <path id="Path_66" data-name="Path 66" d="M1529.821,280.386c0,3.917-2.752,7.093-6.146,7.093s-6.147-3.175-6.147-7.093,2.752-7.092,6.147-7.092S1529.821,276.469,1529.821,280.386Z" transform="translate(-1440.031 -250.688)" fill="#d1c0ba"/>
            <path id="Path_67" data-name="Path 67" d="M1532.03,288.67a3.119,3.119,0,1,1-3.087-3.562A3.35,3.35,0,0,1,1532.03,288.67Z" transform="translate(-1445.552 -258.519)" fill="#948884"/>
            <path id="Path_68" data-name="Path 68" d="M1514.741,294.981a21.423,21.423,0,0,1,3.251-3.242c1.211-.769,2.453-1.892,2.305-3.074s-1.389-3.96-2.157-4.049a17.377,17.377,0,0,0-3.635.857l-2.5,4.344Z" transform="translate(-1436.372 -258.19)" fill="#eea886"/>
            <path id="Path_69" data-name="Path 69" d="M1504.356,278.4c0,3.917-2.752,7.093-6.146,7.093s-6.147-3.176-6.147-7.093,2.752-7.093,6.147-7.093S1504.356,274.479,1504.356,278.4Z" transform="translate(-1423.15 -249.368)" fill="#eddad3"/>
            <path id="Path_70" data-name="Path 70" d="M1505.963,284.833a3.344,3.344,0,1,1-3.309-3.819A3.592,3.592,0,0,1,1505.963,284.833Z" transform="translate(-1427.976 -255.805)" fill="#ccbbb5"/>
            <path id="Path_71" data-name="Path 71" d="M1401.729,278.014s-5.064,11.169,4.6,11.479,5.923-10.457,5.657-11.49C1411.986,278,1407.984,275.51,1401.729,278.014Z" transform="translate(-1362.387 -253.077)" fill="#eea886"/>
            <path id="Path_72" data-name="Path 72" d="M1303.609,622.014a1.8,1.8,0,0,1-1.3.395c-.754-.089-2.97-1.02-3.946-.621s-1.507,4.743-3.413,5.807-7.625,4.389-7.314,7.226c.313,2.865,8.023,2.083,10.018-.266s3.723-1.2,5.319-2.837S1303.366,623.644,1303.609,622.014Z" transform="translate(-1287.625 -481.644)" fill="#ccbbb5"/>
            <path id="Path_73" data-name="Path 73" d="M1505.862,621.98a1.865,1.865,0,0,0,1.332.428c.754-.089,2.97-1.02,3.945-.621s1.507,4.743,3.413,5.807,7.624,4.389,7.314,7.226c-.313,2.865-8.024,2.083-10.018-.266s-3.723-1.2-5.319-2.837S1506.106,623.611,1505.862,621.98Z" transform="translate(-1432.172 -481.644)" fill="#ccbbb5"/>
            <path id="Path_74" data-name="Path 74" d="M1385.01,392.084s10.575.228,23.193-.252l.552,1.547s-9.326,1.772-24.338.194Z" transform="translate(-1351.79 -329.268)" fill="#3b78ab"/>
            <g id="Group_120" data-name="Group 120" transform="translate(11.283 73.444)">
              <g id="Group_119" data-name="Group 119">
                <g id="Group_118" data-name="Group 118">
                  <path id="Path_75" data-name="Path 75" d="M1325.564,424.111a5.125,5.125,0,0,0-1.014,1.5,8.461,8.461,0,0,1-1.222,1.763,19.6,19.6,0,0,0-1.7,3.006,14.894,14.894,0,0,1-.1,2.223c-.187.447-.678,1.309-.279,1.454s1.054-.51,1.054-.51a.6.6,0,0,0,.165.651,1.042,1.042,0,0,0,1.032.249s.135.519.435.646a1.327,1.327,0,0,0,1.07.07,1.221,1.221,0,0,0,.724.412,1.113,1.113,0,0,0,1.008-.367s.739.315,1.056,0a3.758,3.758,0,0,0,.548-1.025,12.273,12.273,0,0,0,.5-5.662,6.207,6.207,0,0,1,.865-4.319Z" transform="translate(-1321.096 -424.111)" fill="#eea886"/>
                </g>
              </g>
            </g>
            <g id="Group_121" data-name="Group 121" transform="translate(9.522 79.264)">
              <rect id="Rectangle_80" data-name="Rectangle 80" width="2.128" height="11.59" transform="translate(0 2.068) rotate(-76.444)" fill="#d1c0ba"/>
            </g>
            <g id="Group_123" data-name="Group 123" transform="translate(12.428 79.07)">
              <g id="Group_122" data-name="Group 122">
                <path id="Path_76" data-name="Path 76" d="M1324.515,444.306s.594-2.687,1.437-3.113.683.554.683.554.141-.972.94-.946.55,1.166.55,1.166a.8.8,0,0,1,1.076-.4c.768.314.343,1.214.343,1.214s1-.764,1.277.221a4.126,4.126,0,0,1-.777,3.26s-.338.356-1.056,0a1.1,1.1,0,0,1-1.731-.045s-1.335.41-1.505-.716C1325.752,445.507,1324.305,445.861,1324.515,444.306Z" transform="translate(-1324.494 -440.8)" fill="#db9c7c"/>
              </g>
            </g>
            <path id="Path_77" data-name="Path 77" d="M1309.791,437.567l-1.273-.29a1,1,0,0,1-.754-1.2l2.705-11.883a1,1,0,0,1,1.2-.754l1.274.29a1,1,0,0,1,.754,1.2l-2.705,11.883A1,1,0,0,1,1309.791,437.567Z" transform="translate(-1300.958 -350.205)" fill="#eddad3"/>
            <path id="Rectangle_81" data-name="Rectangle 81" d="M1.654,0h0A1.655,1.655,0,0,1,3.31,1.655V12.536a1.655,1.655,0,0,1-1.655,1.655h0A1.655,1.655,0,0,1,0,12.536V1.654A1.654,1.654,0,0,1,1.654,0Z" transform="matrix(0.975, 0.222, -0.222, 0.975, 21.002, 75.729)" fill="#eddad3"/>
          </g>
          <g id="Group_134" data-name="Group 134" transform="translate(101.241)">
            <path id="Path_93" data-name="Path 93" d="M1194.737,617.775s1.737,2.9,3.007,3.629,5.759,3.673,6.518,5.366c.533,1.188-.024,2.643-4.5,1.868s-4.371-4.048-7.634-4.983c-2.182-.625-2.427-.985-2.427-2.484,0-.433.5-1.489.322-2.264S1194.737,617.775,1194.737,617.775Z" transform="translate(-1114.471 -481.296)" fill="#364240"/>
            <path id="Path_94" data-name="Path 94" d="M939.513,628.718s-1.615,2.626-2.886,3.358-5.758,3.673-6.518,5.366c-.533,1.188.024,2.643,4.5,1.868s4.372-4.048,7.634-4.982c2.182-.625,2.427-.985,2.427-2.484,0-.433-.719-1.785-.544-2.561S939.513,628.718,939.513,628.718Z" transform="translate(-929.943 -489.052)" fill="#364240"/>
            <path id="Path_95" data-name="Path 95" d="M1067.737,218.474s2.135-.769,1.96-1.778a62.033,62.033,0,0,0-5.414-10.152,47.235,47.235,0,0,1-7.007-11.011c-.455-1.479-14.648-17.344-15.282-18.133l-2.4,1.784s8.932,15.686,10.345,17.621,6.556,13.493,7.089,13.928S1067.737,218.474,1067.737,218.474Z" transform="translate(-1007.838 -168.456)" fill="#285173"/>
            <path id="Path_96" data-name="Path 96" d="M1019.657,157.245s-.854-1.3-1.785-1.377-3.829-.47-4.056-.893.1-.769.592-.727,2.837.234,2.819-.048c-.156-2.475-5.677-6.447-5.7-6.882a.735.735,0,0,1,.774-.8,26.616,26.616,0,0,1,5.344,3.25,18.886,18.886,0,0,1,4.409,5.692Z" transform="translate(-987.901 -146.517)" fill="#c68b63"/>
            <path id="Path_97" data-name="Path 97" d="M1076.046,404.206s1.127,2.153,1.58,2.829,13.076,20.576,14.577,23.923c1.525,3.4,2.433,5.16,3.155,6.473.588,1.069,3.02,7.687,4.858,12.979s5.587,14.428,6.218,15.51-5.173,1.163-5.173,1.163-7.324-12.392-9.141-14.726a27.1,27.1,0,0,1-4.367-9.251c-.581-2.755-8.18-9.994-9.78-12.428-1.478-2.246-7.348-10.628-8.361-12.421a2.987,2.987,0,0,0-2.906-1.355L1065.2,406.62Z" transform="translate(-1026.027 -329.578)" fill="#4f4f4f"/>
            <path id="Path_98" data-name="Path 98" d="M983.015,403.662s-.8,2.289-1.154,3.022-7.411,14.771-8.524,18.737c-.99,3.525-3.618,12.189-4.237,13.993-.4,1.152-2.255,7.869-3.307,13.365s-3.587,14.679-4.054,15.839,5.2,1.439,5.2,1.439,5.694-13.92,7.155-16.484a26.982,26.982,0,0,0,2.98-9.769c.175-2.809,6.1-11.794,7.741-13.931s5.464-10.8,6.925-12.26,2.4-1.351,2.4-1.351l-.03-11.73Z" transform="translate(-952.511 -329.191)" fill="#4f4f4f"/>
            <path id="Path_99" data-name="Path 99" d="M1169.121,351.889s1.967-1.121,2.644-.344a61.784,61.784,0,0,1,4.481,10.581,46.818,46.818,0,0,0,4.134,12.335c.866,1.29,4.2,22.156,4.416,23.14l-2.931.673s-6.561-16.779-7.172-19.084-6.366-13.581-6.365-14.261S1169.121,351.889,1169.121,351.889Z" transform="translate(-1099.291 -291.973)" fill="#285173"/>
            <path id="Path_100" data-name="Path 100" d="M1076.2,291.054s1.968,3.991,2.349,4.922a54.736,54.736,0,0,1,2.935,10.61s-4.076,3.771-7.1,4.8c0,0-3.009-5.2-3.322-5.359s-6.2,4.457-8.061,6.488c-1.29,1.406-1.663,7.657-2.18,8.615s-23.571-5.061-25.886-10.313c0,0,6.19-10.035,7.155-11.474s11.066-14.746,11.653-15.5-.851-6.6-.851-6.6,3.831-4.023,6.861-4.156c0,0,4.026,4.085,4.709,4.552s5.56,4.545,6.68,6.357S1076.2,291.054,1076.2,291.054Z" transform="translate(-1004.534 -236.433)" fill="#285173"/>
            <path id="Path_101" data-name="Path 101" d="M1210.228,511.921s.469,1.474-.064,2.228-2.081,3.193-1.9,3.635.664.419.948.018,1.631-2.293,1.84-2.1c1.837,1.7,1.415,8.412,1.741,8.7a.75.75,0,0,0,1.119-.074,25.644,25.644,0,0,0,.874-6.115,18.6,18.6,0,0,0-1.633-6.97Z" transform="translate(-1127.653 -405.62)" fill="#c68b63"/>
            <path id="Path_102" data-name="Path 102" d="M1162.268,309.759a9.513,9.513,0,0,0-3.806,2.854s-3.3,3.156-5.977-.549a4.025,4.025,0,0,1,.74-6s1.846.12,4.838-2.643S1162.268,309.759,1162.268,309.759Z" transform="translate(-1087.307 -257.608)" fill="#c68b63"/>
            <g id="Group_130" data-name="Group 130" transform="translate(69.841 37.705)">
              <path id="Path_103" data-name="Path 103" d="M1188.469,280.088s2.409,5.388-6.035,9.7-10.625-.409-10.807-.7-2.99-4.231,6.517-10.716C1178.143,278.37,1185.235,273.669,1188.469,280.088Z" transform="translate(-1171.101 -276.71)" fill="#c68b63"/>
            </g>
            <g id="Group_131" data-name="Group 131" transform="translate(79.77 49.43)">
              <path id="Path_104" data-name="Path 104" d="M1209.087,317.2s.946.157.473.735-3.653,1.334-3.914,1.406c0,0-.3.051-.254-.159A35.759,35.759,0,0,1,1209.087,317.2Z" transform="translate(-1205.387 -317.197)" fill="#c68b63"/>
            </g>
            <g id="Group_132" data-name="Group 132" transform="translate(73.527 38.678)">
              <path id="Path_105" data-name="Path 105" d="M1187.338,280.829s.262-.908-.473-.735-2.895,2.769-2.968,2.876c0,0-.174.243.038.293A35.416,35.416,0,0,0,1187.338,280.829Z" transform="translate(-1183.829 -280.072)" fill="#c68b63"/>
            </g>
            <g id="Group_133" data-name="Group 133" transform="translate(74.676 36.249)">
              <path id="Path_106" data-name="Path 106" d="M1195.369,285.638l-1.433-.08a23.721,23.721,0,0,0,2.407-1.66c.261-.325.9-.4,1.075-.644s-.358-6.584-5.7-8.366c0,0-.946,1.166-1.31.906s-2.615,1.411-2.615,1.411l.3-1s3.609-3.212,4.324-3.577c.951-.485,4.942-3.444,9.148,4.5a5.306,5.306,0,0,1,.609,2.964,4.011,4.011,0,0,1-1.9,3.313A52.585,52.585,0,0,1,1195.369,285.638Z" transform="translate(-1187.797 -271.685)" fill="#434343"/>
            </g>
            <path id="Path_107" data-name="Path 107" d="M1169.532,307.861s-1.152,3.811,3.7,5.62a4.551,4.551,0,0,1-3.973-1.721A3.276,3.276,0,0,1,1169.532,307.861Z" transform="translate(-1099.56 -261.135)" fill="#a77860"/>
          </g>
        </g>
      </g>
    </g>
  </g>
</svg>
