<svg xmlns="http://www.w3.org/2000/svg" xmlns:xlink="http://www.w3.org/1999/xlink" width="352" height="242" viewBox="0 0 352 242">
  <defs>
    <clipPath id="clip-_5-seminars">
      <rect width="352" height="242"/>
    </clipPath>
  </defs>
  <g id="_5-seminars" data-name="5-seminars" clip-path="url(#clip-_5-seminars)">
    <g id="Group_489" data-name="Group 489" transform="translate(0 0)">
      <g id="Group_458" data-name="Group 458">
        <g id="Group_221" data-name="Group 221">
          <path id="Path_109" data-name="Path 109" d="M231.786,276.339c-25.811,9.931-77.484,10.98-114,2.662s-81.135-44.583-82.758-71.533,23.53-43.918,35.294-65.878.812-25.619-.406-42.254S96.7,42.442,142.536,42.775,223.672,61.407,254.5,52.756s55.578-13.642,68.154,6.321-6.085,42.588,12.576,57.227,56.389,48.576,50.709,75.194-43.813,49.574-71.4,47.91S253.11,268.135,231.786,276.339Z" transform="translate(-34.958 -42.773)" fill="#e4c0cf"/>
          <path id="Path_110" data-name="Path 110" d="M225.066,277.443s-104.644-.315-132.821-20.028-29.713-62.984,0-81.9,50.632-44.123,59.894-62.212,10.693-43.957,33.515-42.252,37.71,38.41,80.523,26.795,65.873-16.451,76.608,18.157,35.668,65.556,9.842,83.27-45.107,8.866-62.5,31.756S253.743,280,225.066,277.443Z" transform="translate(-47.6 -52.794)" fill="#efdbe4"/>
        </g>
        <g id="Group_344" data-name="Group 344" transform="translate(66.752 43.497)">
          <g id="Group_343" data-name="Group 343" transform="translate(0 0)">
            <g id="Group_223" data-name="Group 223" transform="translate(7.97 124.676)">
              <path id="Path_252" data-name="Path 252" d="M134.817,1990.447a2,2,0,0,0-1.882-1.129,32.469,32.469,0,0,0-4.189.369c-1.12.079-1.886-.065-2.535,1.114a6.367,6.367,0,0,0-.588,2.093c-1.331,8.337-2.421,16.71-3.51,25.082l-.78,6-.306,2.35-1.355,10.418a8.085,8.085,0,0,1-.6,1.738h-.013l-3.725,2.659-.68,1.213,1.625.786,3.766-.7,2.6-1.763.036-1.581a7.666,7.666,0,0,1,.2-1.7c.26-1.107.669-2.186,1.028-3.264.541-1.839,1.1-3.673,1.649-5.51q1.787-6.009,3.507-12.038c1.185-4.134,2.517-8.227,3.747-12.347C133.933,2000.488,137.229,1993.986,134.817,1990.447Z" transform="translate(-114.657 -1989.306)" fill="#3b455a"/>
            </g>
            <g id="Group_224" data-name="Group 224" transform="translate(33.794 128.131)">
              <path id="Path_253" data-name="Path 253" d="M220.579,2002.477a4.52,4.52,0,0,1,2.111,1.081c1.857,1.753.714,4.369.393,6.518a69.176,69.176,0,0,0-.709,8.35q-.222,8.244-.666,16.481c-.236,4.391-1.67,10.057-.578,14.336l1.571,2.726-.705.866-2.629-.225c-.354-.03-1.539-2.094-1.637-2.5-.349-1.444.007-2.879-.187-4.311-.158-1.158-.6-2.346-.814-3.535q-.5-2.79-.961-5.587c-.6-3.657-1.153-7.323-1.619-11q-.889-7.019-1.777-14.038c-.254-2-.756-3.479.461-5.175a10.157,10.157,0,0,1,4.394-3.759,5.973,5.973,0,0,1,2.825-.325C220.228,2002.407,220.4,2002.438,220.579,2002.477Z" transform="translate(-212.05 -2002.337)" fill="#3b455a"/>
            </g>
            <g id="Group_225" data-name="Group 225" transform="translate(31.623 111.707)">
              <path id="Path_254" data-name="Path 254" d="M218.167,1966.324a39.929,39.929,0,0,1-4.1-.112c-3.065-.268-6.06-.934-9.155-.927-.328-1.709-.854-3.489-1-5.209a46.06,46.06,0,0,1,.29-5.9q.3-6.885.984-13.746c4.08-.158,8.133.3,12.194.275,1.032-.005,2.451-.283,2.932.664.7,1.371.4,3.208.58,4.694.269,2.267.477,4.532.537,6.815a65.258,65.258,0,0,1-1.029,13.389C219.654,1966.289,218.91,1966.312,218.167,1966.324Z" transform="translate(-203.865 -1940.396)" fill="#4f4f4f"/>
            </g>
            <g id="Group_226" data-name="Group 226" transform="translate(13.522 107.037)">
              <path id="Path_255" data-name="Path 255" d="M139.688,1952.433q-1.418-.145-2.83-.339a1.706,1.706,0,0,1-.924-.32c-.46-.405-.36-1.135-.221-1.732,1.325-5.715,2.622-11.438,3.975-17.147.216-.909,2.308-10.11,2.846-10.115l11.429.118a1.53,1.53,0,0,1,.985.239,1.512,1.512,0,0,1,.408.919,132.744,132.744,0,0,1,1.97,15.41c.3,4.385-2.126,8.412-4.279,12.129a1.873,1.873,0,0,1-1.98,1.211A82.759,82.759,0,0,1,139.688,1952.433Z" transform="translate(-135.597 -1922.782)" fill="#4f4f4f"/>
            </g>
            <g id="Group_248" data-name="Group 248" transform="translate(74.506 33.832)">
              <g id="Group_228" data-name="Group 228">
                <g id="Group_227" data-name="Group 227">
                  <path id="Path_256" data-name="Path 256" d="M373.223,1675.195c-.034-.2-.061-.411-.085-.615a70.139,70.139,0,0,1,.051-11.867c.151-3.244.574-7,3.128-9.312.391-.354,2.306-1.973.522-2.128a.833.833,0,0,0-.869.781,11.822,11.822,0,0,0,1.334-3.395.864.864,0,0,0,0-.533.9.9,0,0,0-.284-.313l-1.281-1.021a.272.272,0,0,0-.434.018l-2.284,1.978c-1.288,1.117-.811,2.926-1.055,4.4a10.8,10.8,0,0,1-1.617,3.757,49.765,49.765,0,0,0-4.2,12.565,15.989,15.989,0,0,0-.482,5.341,14.928,14.928,0,0,0,2.157,5.57,35.97,35.97,0,0,0,4.617,6.582,21.98,21.98,0,0,0,3.137,2.914,7.819,7.819,0,0,1,2.219,2.955,1.143,1.143,0,0,0,.339.432c.439.288.994-.117,1.353-.5a56.139,56.139,0,0,0,5.778-7.269,3.483,3.483,0,0,0,.6-1.246,2.5,2.5,0,0,0-1.2-2.391,8.9,8.9,0,0,0-2.63-1.013,27.976,27.976,0,0,1-6.833-2.99,4.474,4.474,0,0,1-1.488-1.267A3.663,3.663,0,0,1,373.223,1675.195Z" transform="translate(-365.597 -1646.691)" fill="#c68b63"/>
                </g>
              </g>
              <g id="Group_230" data-name="Group 230" transform="translate(33.129 4.115)">
                <g id="Group_229" data-name="Group 229">
                  <path id="Path_257" data-name="Path 257" d="M501.5,1690.108c2.795-1.518,2.636-4.75,3.284-8.655.654-3.94,1.8-9.309-.837-12.8-.318-.421-1.9-2.368-.117-2.188a.833.833,0,0,1,.709.929,11.811,11.811,0,0,1-.678-3.584.864.864,0,0,1,.1-.524.9.9,0,0,1,.338-.255l1.449-.764a.271.271,0,0,1,.423.1l1.875,2.369c1.058,1.337.251,3.026.217,4.514a10.8,10.8,0,0,0,.888,3.993,49.756,49.756,0,0,1,1.782,13.127,15.987,15.987,0,0,1-.522,5.337,14.931,14.931,0,0,1-3.158,5.071c-2.813,3.241-6.781,7.17-10.982,8.518-7.549,2.423-7.507-12.785-.608-14.115a25.022,25.022,0,0,1,2.544-.213A8.41,8.41,0,0,0,501.5,1690.108Z" transform="translate(-490.542 -1662.21)" fill="#c68b63"/>
                </g>
              </g>
              <g id="Group_232" data-name="Group 232" transform="translate(32.888 109.161)">
                <g id="Group_231" data-name="Group 231">
                  <path id="Path_258" data-name="Path 258" d="M490.547,2058.39l-.5,11.074c-.263,3.065-.175,6.142-.177,9.213,0,2.852-.754,5.746.432,8.463.372.852,1.236,1.482,1.979.57.573-.7.408-1.99.591-2.835,1.374-6.354,3.582-12.5,4.886-18.865C499.127,2059.338,496.512,2059.356,490.547,2058.39Z" transform="translate(-489.635 -2058.39)" fill="#c68b63"/>
                </g>
              </g>
              <g id="Group_233" data-name="Group 233" transform="translate(31.957 135.749)">
                <path id="Path_259" data-name="Path 259" d="M486.948,2158.881l-.825,1.8,3.31,3.3,3.2.329,1.141-1.627-4.081-4.015Z" transform="translate(-486.123 -2158.666)" fill="#3b455a"/>
              </g>
              <g id="Group_237" data-name="Group 237" transform="translate(14.821 108.689)">
                <g id="Group_235" data-name="Group 235" transform="translate(0.337)">
                  <g id="Group_234" data-name="Group 234">
                    <path id="Path_260" data-name="Path 260" d="M422.766,2056.607l1.159,11.025c.316,4.916,1.53,9.775,1.846,14.691a12.7,12.7,0,0,0,.279,3.437c.376,1.068,1.267,1.179,2.112.541,1.131-.854.776-2.567.857-3.849.543-8.541,1.877-16.9,2.712-25.429a.381.381,0,0,0-.065-.318.367.367,0,0,0-.258-.072C430.574,2056.623,422.791,2056.845,422.766,2056.607Z" transform="translate(-422.766 -2056.607)" fill="#c68b63"/>
                  </g>
                </g>
                <g id="Group_236" data-name="Group 236" transform="translate(0 27.73)">
                  <path id="Path_261" data-name="Path 261" d="M427.96,2161.189l.979,1.723-3.01,3.573-3.157.608-1.279-1.522,3.715-4.356Z" transform="translate(-421.493 -2161.189)" fill="#3b455a"/>
                </g>
              </g>
              <g id="Group_238" data-name="Group 238" transform="translate(9.862 70.926)">
                <path id="Path_262" data-name="Path 262" d="M436.222,1959.682l2.284-15.618c-.635-8.968-4.537-18.039-5.158-27.038a2.359,2.359,0,0,0-.523-1.6,2.272,2.272,0,0,0-1.227-.473,76.5,76.5,0,0,0-12.666-.689c-4.127,0-12.231-.876-14.3,3.184-2.124,4.175-1.5,13.561-1.669,18.286a173.046,173.046,0,0,0,.466,23.312l16.023-.265,1.348-17.419,2.435,11.356-.1,6.965Z" transform="translate(-402.79 -1914.186)" fill="#285173"/>
              </g>
              <g id="Group_239" data-name="Group 239" transform="translate(10.133 30.176)">
                <path id="Path_263" data-name="Path 263" d="M431.4,1766.771a10.026,10.026,0,0,0-.934-1.884c-1.759-2.818-7.229-4.767-10.526-4.327-2.849.38-5.647.424-8.329,1.6-2.014.886-3.838,3.765-4.872,5.56-3.556,6.17-2.112,13.72-2.105,20.524,0,3.587-.344,7.193-.491,10.776-.1,2.341-.183,4.684-.2,7.027-.005.833-.408,3.465.208,4.163.54.612,3.986-.022,5.023-.054q3.808-.118,7.618-.11,4.515.01,9.027.2c3.088.13,5.932.764,9.027.064a1.922,1.922,0,0,0,1.086-.53,2.036,2.036,0,0,0,.249-1.567q-.977-8.534-2.409-17.008c-.443-2.618-1.353-5.45-1.378-8.1-.021-2.236.015-4.469-.137-6.737C432.059,1773.364,432.438,1769.618,431.4,1766.771Z" transform="translate(-403.814 -1760.498)" fill="#faa146"/>
              </g>
              <g id="Group_245" data-name="Group 245" transform="translate(19.089 8.482)">
                <g id="Group_240" data-name="Group 240" transform="translate(10.636 3.249)">
                  <path id="Path_264" data-name="Path 264" d="M480.057,1694.107a8.874,8.874,0,0,1,1.088,4.008,1.272,1.272,0,0,0,.342,1.019c.321.234.039.749.283.435a6.845,6.845,0,0,0,1.112-1.8,14.7,14.7,0,0,0,0-2.792,4.006,4.006,0,0,0-.771-2.264,4.558,4.558,0,0,0-1.142-.869,5.835,5.835,0,0,0-1.9-.852c-1.181-.22-1.905.2-.863,1.027A7.215,7.215,0,0,1,480.057,1694.107Z" transform="translate(-477.703 -1690.935)" fill="#32376b"/>
                </g>
                <g id="Group_242" data-name="Group 242" transform="translate(1.369 3.507)">
                  <g id="Group_241" data-name="Group 241">
                    <path id="Path_265" data-name="Path 265" d="M447,1710.658c.008.571-.109,1.164.395,1.607a1.728,1.728,0,0,0,.889.349,5.508,5.508,0,0,0,2.474-.175,2.223,2.223,0,0,0,.9-.476,1.129,1.129,0,0,0,.321-.915c.016-.43.1-.868.16-1.3.123-.955.179-1.918.207-2.881,1.415-.243,3.079-.7,3.563-2.182a4.863,4.863,0,0,0,.161-1.472l.045-6.16a5.944,5.944,0,0,0-.236-2.1,4.272,4.272,0,0,0-2.574-2.28,9.243,9.243,0,0,0-8.381.512,4.571,4.571,0,0,0-1.68,1.689,7.185,7.185,0,0,0-.426,3.822q.127,1.8.255,3.6c.1,1.382.3,2.972,1.378,3.7.57.388,1.306.458,1.8.96.857.875.449,2.183.7,3.244A2.075,2.075,0,0,1,447,1710.658Z" transform="translate(-442.754 -1691.908)" fill="#c68b63"/>
                  </g>
                </g>
                <g id="Group_243" data-name="Group 243" transform="translate(1.369 12.967)">
                  <path id="Path_266" data-name="Path 266" d="M456.564,1728.609c-.023-.381-.189-1.5-.762-.8a1.148,1.148,0,0,0-.2.687,2.587,2.587,0,0,1-.075.725,1.279,1.279,0,0,1-1.281.759,1.251,1.251,0,0,1-.6-.142,1.867,1.867,0,0,1-.456-.42l-1-1.149c-.574-.658-1.712-.373-2.485-.273a4.954,4.954,0,0,0-2.511.972c-.073.059-.145.121-.217.183a2.65,2.65,0,0,1-.556.4,1.715,1.715,0,0,1-2.023-.641c-.221-.287-.427-.657-.771-.7a.705.705,0,0,0-.668.406,2.013,2.013,0,0,0-.194.843,6.189,6.189,0,0,0,.538,3.1c1,2.04,2.924,2.29,4.861,2.244l2.3-.054a7.268,7.268,0,0,0,4.059-.905,5.027,5.027,0,0,0,1.912-3.217A7.934,7.934,0,0,0,456.564,1728.609Zm-5.121,2.891a2.68,2.68,0,0,1-2.371.275c-.349-.1-.2-.691.149-.586a2.154,2.154,0,0,0,1.937-.213C451.466,1730.769,451.749,1731.294,451.442,1731.5Z" transform="translate(-442.751 -1727.587)" fill="#434343"/>
                </g>
                <g id="Group_244" data-name="Group 244">
                  <path id="Path_267" data-name="Path 267" d="M453.062,1681.545a10.923,10.923,0,0,0,.3-1.516,3,3,0,0,1-1.485.127q0-.442,0-.885c0-.246-3.324-.418-3.594-.44-2.527-.207-4.838-.4-7.123.952a6.881,6.881,0,0,0-3.5,5.14,10.525,10.525,0,0,0,1.662,6.747,14.676,14.676,0,0,1-.2-2.468,4.862,4.862,0,0,1,.531-1.557,6.418,6.418,0,0,1,2.252-2.368,12.473,12.473,0,0,1,4.923-1.659,13.478,13.478,0,0,1,5.053,0c.748.2.873.389,1.326-.367a12.851,12.851,0,0,0,.651-1.689Z" transform="translate(-437.589 -1678.682)" fill="#434343"/>
                </g>
              </g>
              <g id="Group_246" data-name="Group 246" transform="translate(31.571 30.043)">
                <path id="Path_268" data-name="Path 268" d="M495.15,1760.165a2.583,2.583,0,0,1,1.329-.116,2.378,2.378,0,0,1,1.168,1,28.55,28.55,0,0,1,4.5,9.388,2.177,2.177,0,0,1,.046,1.408,2.392,2.392,0,0,1-.76.839c-4.319,3.519-7.011,8.746-11.413,12.16a116.9,116.9,0,0,1-1.768-13.217,21.047,21.047,0,0,0-.863-5.477c-.629-1.772-3.97-3.92-2.221-5.17.646-.461,3.926.1,4.8.039A28.763,28.763,0,0,0,495.15,1760.165Z" transform="translate(-484.666 -1759.998)" fill="#faa146"/>
              </g>
              <g id="Group_247" data-name="Group 247" transform="translate(1.882 27.344)">
                <path id="Path_269" data-name="Path 269" d="M392.428,1754.007a1.405,1.405,0,0,0-.295-.542,1.887,1.887,0,0,0-1.233-.417,41.636,41.636,0,0,1-5.575-.913c-1.074-.252-2.575-1.006-3.89-1.413-.074-.092-.151-.183-.224-.277q-.134-.173-.265-.349c-.436-.587-1.054-.148-1.633.494-.982.393-1.525,1.59-2.176,2.388a34.749,34.749,0,0,1-3.882,3.472,1.022,1.022,0,0,0-.275,1.622l10.594,17.018c-.139-.224,3.862-6.636,4.2-7.414.851-1.955,1.21-4.215,2.114-6.109.187-.393,2.041-2.69,1.706-3.632.147-.232.285-.47.41-.716A4.3,4.3,0,0,0,392.428,1754.007Z" transform="translate(-372.694 -1749.82)" fill="#faa146"/>
              </g>
            </g>
            <g id="Group_256" data-name="Group 256" transform="translate(47.842)">
              <g id="Group_255" data-name="Group 255">
                <g id="Group_254" data-name="Group 254">
                  <g id="Group_250" data-name="Group 250" transform="translate(23.686 19.285)">
                    <g id="Group_249" data-name="Group 249">
                      <path id="Path_270" data-name="Path 270" d="M356.12,1591.826l13.3,1.658a2.224,2.224,0,0,1,2.086-.949l35.1,4.375a2.225,2.225,0,0,1,1.79,1.432l13.3,1.658-1.757,14.1-13.154-1.64a2.248,2.248,0,0,1-2.272,1.26l-35.1-4.376a2.248,2.248,0,0,1-1.893-1.779l-13.154-1.64Z" transform="translate(-354.363 -1591.826)" fill="#4f4f4f"/>
                    </g>
                  </g>
                  <g id="Group_253" data-name="Group 253">
                    <g id="Group_251" data-name="Group 251" transform="translate(83.632 10.198)">
                      <path id="Path_271" data-name="Path 271" d="M611.932,1578.3l-1.305-.6a1.592,1.592,0,0,0-.61-.143l1.4-11.274a6.239,6.239,0,0,0-5.445-6.942l-.775-.1a6.244,6.244,0,0,0-6.846,4.671,6.244,6.244,0,0,0-5.49-6.208l-.775-.1A6.237,6.237,0,0,0,585.11,1563l-4.614,37.04a6.239,6.239,0,0,0,5.445,6.942l.775.1a6.244,6.244,0,0,0,6.846-4.671,6.246,6.246,0,0,0,5.491,6.209l.775.1a6.238,6.238,0,0,0,6.981-5.393l1.4-11.274a1.6,1.6,0,0,0,.626.011l1.412-.261a3,3,0,0,0,2.056-2.733l.948-7.611A3,3,0,0,0,611.932,1578.3Z" transform="translate(-580.448 -1557.557)" fill="#4f4f4f"/>
                    </g>
                    <g id="Group_252" data-name="Group 252">
                      <path id="Path_272" data-name="Path 272" d="M292.379,1520.875l-.775-.1a6.244,6.244,0,0,0-6.846,4.671,6.245,6.245,0,0,0-5.49-6.209l-.775-.1a6.237,6.237,0,0,0-6.981,5.393l-1.4,11.274a1.6,1.6,0,0,0-.626-.011l-1.412.261a3,3,0,0,0-2.056,2.732l-.948,7.611a3,3,0,0,0,1.323,3.154l1.305.6a1.6,1.6,0,0,0,.61.143l-1.4,11.274a6.239,6.239,0,0,0,5.444,6.942l.775.1a6.243,6.243,0,0,0,6.846-4.671,6.246,6.246,0,0,0,5.49,6.209l.775.1a6.238,6.238,0,0,0,6.981-5.393l4.614-37.04A6.238,6.238,0,0,0,292.379,1520.875Z" transform="translate(-265.032 -1519.095)" fill="#4f4f4f"/>
                    </g>
                  </g>
                </g>
              </g>
            </g>
            <g id="Group_258" data-name="Group 258" transform="translate(18.975 66.427)">
              <g id="Group_257" data-name="Group 257">
                <path id="Path_273" data-name="Path 273" d="M185.442,1777.038a20.367,20.367,0,0,1,1.272,6.042,103.348,103.348,0,0,1,.772,11.475c.063,4.454-.125,8.905-.477,13.342q-.264,3.328-.641,6.647c-.128,1.146.377,4.088-.863,4.691a4.283,4.283,0,0,1-2.3.18l-14.114-1.482c-3.959-.416-8.138-.683-11.917-2.008a1.254,1.254,0,0,1-.55-.313,1.283,1.283,0,0,1-.245-.641c-.632-3.537.275-6.31.882-9.679a119.874,119.874,0,0,0,1.106-12.348c.334-4.618,1.074-10.812,2.825-15.2a14.517,14.517,0,0,1,3.414-4.992,10.45,10.45,0,0,1,6.734-3.128,14.751,14.751,0,0,1,6.839,1.31,23.548,23.548,0,0,1,5.167,3.311A8.316,8.316,0,0,1,185.442,1777.038Z" transform="translate(-156.163 -1769.621)" fill="#285173"/>
              </g>
            </g>
            <g id="Group_267" data-name="Group 267" transform="translate(31.719 44.801)">
              <g id="Group_260" data-name="Group 260" transform="translate(10.733 10.688)">
                <g id="Group_259" data-name="Group 259">
                  <path id="Path_274" data-name="Path 274" d="M248.6,1734.129a18.493,18.493,0,0,1-3.892,2.974,31.436,31.436,0,0,0,2.882-8.1.826.826,0,0,1,.289-.569.774.774,0,0,1,.6-.019C252.016,1729.322,250.615,1732.11,248.6,1734.129Z" transform="translate(-244.705 -1728.368)" fill="#3b455a"/>
                </g>
              </g>
              <g id="Group_261" data-name="Group 261" transform="translate(2.712 3.89)">
                <path id="Path_275" data-name="Path 275" d="M216.136,1718.842a5.326,5.326,0,0,1-.553-.761c-2.139-3.567-2.042-16.949,7.523-15.189,8.685,1.6,3.083,11.85-.57,15.468a6.347,6.347,0,0,1-2.6,1.678c-.276.08-.194,2.77-.438,3.175a2.007,2.007,0,0,1-2.475.673,3.341,3.341,0,0,1-1.572-2.07C215.338,1721.271,216.336,1719.071,216.136,1718.842Z" transform="translate(-214.453 -1702.733)" fill="#eea886"/>
              </g>
              <g id="Group_266" data-name="Group 266">
                <g id="Group_263" data-name="Group 263" transform="translate(0 1.679)">
                  <g id="Group_262" data-name="Group 262">
                    <path id="Path_276" data-name="Path 276" d="M208.516,1708.849c-.873.466-1.9-.289-2.494-1.081a9.626,9.626,0,0,1,.109-11.349c2.091-2.683,6.968-3.047,5.886,1.03-.384,1.445-2.087,2.864-2.629,4.409A23.553,23.553,0,0,0,208.516,1708.849Z" transform="translate(-204.225 -1694.393)" fill="#3b455a"/>
                  </g>
                </g>
                <g id="Group_265" data-name="Group 265" transform="translate(7.878)">
                  <g id="Group_264" data-name="Group 264">
                    <path id="Path_277" data-name="Path 277" d="M246.9,1692.283c2.642,4.041,1.906,9.473,3.968,13.838a14.319,14.319,0,0,1-9.98-4.966c-2.425-2.855-9.322-7.456-6.115-11.213C238.036,1686.12,244.584,1688.742,246.9,1692.283Z" transform="translate(-233.938 -1688.06)" fill="#3b455a"/>
                  </g>
                </g>
              </g>
            </g>
            <g id="Group_271" data-name="Group 271" transform="translate(28.919 68.59)">
              <g id="Group_270" data-name="Group 270">
                <g id="Group_268" data-name="Group 268" transform="translate(0 6.367)">
                  <path id="Path_278" data-name="Path 278" d="M229.084,1807.987a10.779,10.779,0,0,0-10.314-2.8,8.258,8.258,0,0,1-6.236-1.232c-2.552-1.695-6.412-3.193-10.763-1.229-5.834,2.634-8.048,8.862-8.1,14.9a32.62,32.62,0,0,0,2.46,13.367c1.78,4.009,5.743,8.649,10.644,7.979a6.519,6.519,0,0,1,4.306.864c6.153,3.778,12.448-2.791,15.713-7.38,3.41-4.793,6.34-10.915,5.749-16.953A12.4,12.4,0,0,0,229.084,1807.987Z" transform="translate(-193.665 -1801.794)" fill="#e55353"/>
                </g>
                <g id="Group_269" data-name="Group 269" transform="translate(20.16)">
                  <path id="Path_279" data-name="Path 279" d="M270.449,1782.185a8.932,8.932,0,0,1,3.933-3.4,12.234,12.234,0,0,1,4.375-.957,26.418,26.418,0,0,1,3.671.025,20.467,20.467,0,0,1-1.767,3.008,26.563,26.563,0,0,1-3.168,4.005,9.456,9.456,0,0,1-4.018,2.549C270.614,1788.153,268.51,1785.419,270.449,1782.185Z" transform="translate(-269.698 -1777.779)" fill="#55a06b"/>
                </g>
              </g>
            </g>
            <g id="Group_276" data-name="Group 276" transform="translate(7.987 42.314)">
              <g id="Group_273" data-name="Group 273" transform="translate(1.193)">
                <g id="Group_272" data-name="Group 272">
                  <path id="Path_280" data-name="Path 280" d="M119.3,1683.825a20.962,20.962,0,0,1-.081-2.473,1.415,1.415,0,0,1,.461-1.205l.69-.805a2.237,2.237,0,0,1,.476-.455,2.268,2.268,0,0,1,1.657-.095.714.714,0,0,1,.322.121.484.484,0,0,1,.1.535,3.04,3.04,0,0,0-.392,1.41,6.831,6.831,0,0,0,.17,1.765c.241-.086.383-.33.558-.546.146-.181.336-.381.567-.35.307.042.4.45.345.755a7.173,7.173,0,0,1-.777,1.688c-.4.835-.483,2.469-1.474,2.65a10.218,10.218,0,0,1-1.968-.055l-.491-2.011A7.8,7.8,0,0,1,119.3,1683.825Z" transform="translate(-119.221 -1678.682)" fill="#eea886"/>
                </g>
              </g>
              <g id="Group_275" data-name="Group 275" transform="translate(0 7.187)">
                <g id="Group_274" data-name="Group 274">
                  <path id="Path_281" data-name="Path 281" d="M141.354,1723.148q-8.664-.45-17.307-1.234a1.425,1.425,0,0,1-1.612-1.49q-1.089-6.687-1.6-13.451a1.308,1.308,0,0,0-.419-1.054,1.287,1.287,0,0,0-.762-.125c-1.219.052-2.7-.23-3.6.821-.868,1.01-.475,2.792-.5,4.062q-.121,5.641-.7,11.261c-.124,1.2-.356,2.979.428,4.022.69.918,2.2,1.522,3.175,2.16l11.728,7.691a5.21,5.21,0,0,0,2.7,1.108c1.58.012,1.586-1.088,2.026-2.135a20.357,20.357,0,0,1,2.388-3.484A31.4,31.4,0,0,0,141.354,1723.148Z" transform="translate(-114.72 -1705.789)" fill="#285173"/>
                </g>
              </g>
            </g>
            <g id="Group_279" data-name="Group 279" transform="translate(53.794 106.987)">
              <g id="Group_277" data-name="Group 277" transform="translate(2.988 0.428)">
                <path id="Path_282" data-name="Path 282" d="M300.681,1930.921a1.9,1.9,0,0,1-1.77-.9,2.431,2.431,0,0,1-.071-1.548,11.592,11.592,0,0,1,.786-2.479c.887-1.987,3.686-2.662,4.494-.219C304.839,1927.944,302.981,1930.875,300.681,1930.921Z" transform="translate(-298.749 -1924.205)" fill="#eea886"/>
              </g>
              <g id="Group_278" data-name="Group 278">
                <path id="Path_283" data-name="Path 283" d="M287.974,1926.448a1.938,1.938,0,0,1-.424-1.69,3.767,3.767,0,0,1,1.359-1.567c.542-.372.991.121,1.268.549a2.839,2.839,0,0,0,.95,1.026c.36-.517-.074-1.046.235-1.57a1.682,1.682,0,0,1,.55-.53c.073-.047.161-.093.231-.062a.225.225,0,0,1,.1.122c.525,1.125,1.556,1.693,1.824,3.005a2.174,2.174,0,0,1-1.96,2.7,4.5,4.5,0,0,1-3.982-1.782C288.073,1926.584,288.024,1926.518,287.974,1926.448Z" transform="translate(-287.482 -1922.592)" fill="#eea886"/>
              </g>
            </g>
            <g id="Group_292" data-name="Group 292" transform="translate(0 9.489)">
              <g id="Group_291" data-name="Group 291">
                <g id="Group_286" data-name="Group 286">
                  <g id="Group_285" data-name="Group 285">
                    <g id="Group_284" data-name="Group 284">
                      <g id="Group_280" data-name="Group 280" transform="translate(0 1.174)">
                        <path id="Path_284" data-name="Path 284" d="M84.6,1559.307l3.633,33.861c.111,1.039,4.93,1.874,10.764,1.884s10.656-.808,10.771-1.847l3.751-33.848Z" transform="translate(-84.599 -1559.307)" fill="#8ec3cb"/>
                      </g>
                      <g id="Group_281" data-name="Group 281" transform="translate(2.51 6.752)" opacity="0.64">
                        <path id="Path_285" data-name="Path 285" d="M117.915,1581.305a.114.114,0,0,0,.059-.085c0-.471-5.342-.862-11.934-.874s-11.936.362-11.937.833a.114.114,0,0,0,.059.085h-.095l3.01,26.526c.092.814,4.082,1.468,8.912,1.476s8.822-.632,8.917-1.446l3.1-26.515Z" transform="translate(-94.067 -1580.346)" fill="#fff"/>
                      </g>
                      <g id="Group_282" data-name="Group 282" transform="translate(0.043)">
                        <path id="Path_286" data-name="Path 286" d="M113.594,1555.995c0,.6-6.456,1.078-14.419,1.064s-14.416-.512-14.415-1.114,6.457-1.078,14.419-1.064S113.6,1555.393,113.594,1555.995Z" transform="translate(-84.761 -1554.881)" fill="#7bb1b7"/>
                      </g>
                      <g id="Group_283" data-name="Group 283" transform="translate(2.442 6.743)" opacity="0.51">
                        <ellipse id="Ellipse_6" data-name="Ellipse 6" cx="0.773" cy="12.005" rx="0.773" ry="12.005" transform="translate(0 1.546) rotate(-89.902)" fill="#fff"/>
                      </g>
                    </g>
                  </g>
                </g>
                <g id="Group_290" data-name="Group 290" transform="translate(8.972 16.932)">
                  <g id="Group_287" data-name="Group 287">
                    <path id="Path_287" data-name="Path 287" d="M122.131,1621.956q.091-1.4.121-2.813a.409.409,0,0,0-.817-.025q-.027,1.286-.106,2.57l-2.023-.061.032-1.828a.409.409,0,0,0-.817-.025l-.083,4.737a.409.409,0,0,0,.817.025l.037-2.1,1.983.059q-.092,1.253-.232,2.5c-.059.519.759.541.817.025q.153-1.357.247-2.717A.456.456,0,0,0,122.131,1621.956Z" transform="translate(-118.438 -1618.738)" fill="#fff"/>
                  </g>
                  <g id="Group_288" data-name="Group 288" transform="translate(3.97 6.689)">
                    <path id="Path_288" data-name="Path 288" d="M135.04,1646.481c-.065-.006-.593-.045-.792-.067a2.081,2.081,0,0,0,.3-.291c.076-.082.157-.158.231-.242a1.371,1.371,0,0,0,.413-1.262.844.844,0,0,0-1.643-.006c-.119.507.662.749.782.239q.214,0,.021.249a1.412,1.412,0,0,1-.247.311c-.114.123-.235.238-.342.367a1.163,1.163,0,0,0-.343.852c.1.716,1.079.614,1.6.661S135.563,1646.529,135.04,1646.481Z" transform="translate(-133.411 -1643.966)" fill="#fff"/>
                  </g>
                  <g id="Group_289" data-name="Group 289" transform="translate(6.73 0.61)">
                    <path id="Path_289" data-name="Path 289" d="M146.267,1621.382a.364.364,0,0,0-.379-.342c-1.371,0-2.044,2.026-2.067,3.128-.026,1.234.6,2.735,2.038,2.737a2.606,2.606,0,0,0,2.376-2.605C148.326,1623.188,147.481,1621.571,146.267,1621.382Zm1.131,3.071c-.125.806-.712,1.748-1.659,1.635s-1.143-1.3-1.094-2.049a3.3,3.3,0,0,1,.265-1.092,2.556,2.556,0,0,1,.677-1,.422.422,0,0,0,.434.216c.441-.059.957.642,1.153.961A1.924,1.924,0,0,1,147.4,1624.453Z" transform="translate(-143.82 -1621.04)" fill="#fff"/>
                  </g>
                </g>
              </g>
            </g>
            <g id="Group_303" data-name="Group 303" transform="translate(174.857 4.571)">
              <g id="Group_302" data-name="Group 302" transform="translate(0 0)">
                <g id="Group_300" data-name="Group 300" transform="translate(0)">
                  <g id="Group_293" data-name="Group 293" transform="translate(4.117 4.087)">
                    <path id="Path_290" data-name="Path 290" d="M779.484,1555.594a5.2,5.2,0,0,0-2.466-.952l-8.083-.189a4.2,4.2,0,0,1-2.446-.909.673.673,0,0,0-.946-.957l-.02.019-.815-.86-5.116,4.849.815.86-.182.173a.674.674,0,1,0,.927.979l.15-.141a4.193,4.193,0,0,1,.812,2.643l-.46,8.1a5.2,5.2,0,0,0,.818,2.513l3.494,3.687s6.919.182,6.9,7.206l20.853,22.08s11.846-2.216,17.012-16.123L789.8,1566.56c-6.755-.32-6.825-7.279-6.825-7.279Z" transform="translate(-759.591 -1551.746)" fill="#8ec3cb"/>
                  </g>
                  <g id="Group_294" data-name="Group 294" transform="translate(17.523 19.041)">
                    <path id="Path_291" data-name="Path 291" d="M837.71,1619.27l-10.544-11.126-3.78,4.209c-3.107,3.215-5.558,5.441-9.06,8.586l-4.172,3.328,10.544,11.125-.054.051c11.684-5.249,17.119-16.225,17.119-16.225Z" transform="translate(-810.154 -1608.144)" fill="#ebb044"/>
                  </g>
                  <g id="Group_295" data-name="Group 295" transform="translate(27.778 26.772)">
                    <path id="Path_292" data-name="Path 292" d="M848.831,1640.21l3.066-2.906-.125,5.279,3.706-1.5-.792,8.44-1.709-4.938-2.773,1.754Z" transform="translate(-848.831 -1637.304)" fill="#fff"/>
                  </g>
                  <g id="Group_296" data-name="Group 296">
                    <rect id="Rectangle_109" data-name="Rectangle 109" width="9.462" height="5.461" rx="1.86" transform="translate(0 6.509) rotate(-43.463)" fill="#3b455a"/>
                  </g>
                  <g id="Group_297" data-name="Group 297" transform="translate(5.873 5.907)" opacity="0.15" style="mix-blend-mode: multiply;isolation: isolate">
                    <path id="Path_293" data-name="Path 293" d="M766.214,1563.575l5.123-4.964a6.727,6.727,0,0,0,.629.379Z" transform="translate(-766.214 -1558.611)" fill="#080a0a"/>
                  </g>
                  <g id="Group_299" data-name="Group 299" transform="translate(10.539 11.671)" opacity="0.06">
                    <g id="Group_298" data-name="Group 298">
                      <path id="Path_294" data-name="Path 294" d="M800.874,1580.4l-.049-.052-17.012,16.123.049.051s6.919.182,6.9,7.206l.072.076,7.841-6.748q.753-.648,1.443-1.364l7.651-7.937-.072-.075C800.944,1587.361,800.874,1580.4,800.874,1580.4Z" transform="translate(-783.813 -1580.35)" fill="#080a0a"/>
                    </g>
                  </g>
                </g>
                <g id="Group_301" data-name="Group 301" transform="translate(45.132 30.113)">
                  <path id="Path_295" data-name="Path 295" d="M914.281,1649.907l0-.005h0Z" transform="translate(-914.279 -1649.901)" fill="#a4a6a9"/>
                </g>
              </g>
            </g>
            <g id="Group_326" data-name="Group 326" transform="translate(161.769 45.426)">
              <g id="Group_322" data-name="Group 322">
                <g id="Group_304" data-name="Group 304" transform="translate(0 31.345)">
                  <path id="Path_296" data-name="Path 296" d="M707.647,1836.683c-.04-.307-.029-.337-.292-.506-.292-.188-.609-.346-.916-.506a8.615,8.615,0,0,1-2.053-4.1,32.334,32.334,0,0,0-1.3-3.4q-1.278-3.328-2.5-6.681a1.962,1.962,0,0,1-.173-1.062,1.831,1.831,0,0,1,.395-.712,30.337,30.337,0,0,1,2.575-2.907,9.973,9.973,0,0,1,2.484-1.766c1.014-.56.638-1.653.269-2.592-.15-.38-1.715-3.656-1.554-3.82q-4.7,4.754-9.352,9.561a1.755,1.755,0,0,0-.491.719,1.823,1.823,0,0,0,.177,1.118,78.916,78.916,0,0,0,4.066,8.748q1.141,2.113,2.4,4.153c.489.792,2.139,2.4,1.778,3.435a2.637,2.637,0,0,0-.132.345,1.1,1.1,0,0,0,.029.435,7.97,7.97,0,0,0,.488,1.577c.2.46.564.515.97.7.423.191.7.6,1.1.831a1,1,0,0,0,1.124-.18q.257-.173.506-.359.147-.109.291-.224a.558.558,0,0,0,.153-.159.582.582,0,0,0,.055-.214A9.5,9.5,0,0,0,707.647,1836.683Z" transform="translate(-694.707 -1808.635)" fill="#c68b63"/>
                </g>
                <g id="Group_305" data-name="Group 305" transform="translate(25.686 5.037)">
                  <path id="Path_297" data-name="Path 297" d="M803.943,1724.308a3.8,3.8,0,0,0,1.572-1.124,3.858,3.858,0,0,0,.484-1.218l2.465-9.118c-.816-.884-.843-2.82.746-1.752.141.095.3.215.462.179a.554.554,0,0,0,.291-.234l.965-1.241a.972.972,0,0,1,.4-.354.892.892,0,0,1,.409-.019,5.424,5.424,0,0,1,2.854,1.256,13.01,13.01,0,0,1-1.959,2.256,6.686,6.686,0,0,0-.8.792c-.96,1.23-.762,3.617-.929,5.1q-.342,3.04-.684,6.081a2.255,2.255,0,0,1-.214.86,2.232,2.232,0,0,1-.794.721,86.5,86.5,0,0,1-16.365,8.24,14.872,14.872,0,0,1-1.264-4.705c.038-1.384,2.057-1.5,3.189-1.9A98.085,98.085,0,0,0,803.943,1724.308Z" transform="translate(-791.583 -1709.412)" fill="#c68b63"/>
                </g>
                <g id="Group_306" data-name="Group 306" transform="translate(13.058 24.938)">
                  <path id="Path_298" data-name="Path 298" d="M747.489,1785.481c-2.132.7-3.206,1.938-3.269,4.85a60.6,60.6,0,0,0,.387,10.561c.3,1.96.8,3.887,1.086,5.849a30.824,30.824,0,0,1-.693,11.987c-.332,1.314-1.681,3.477-.68,4.631.959,1.1,2.794.4,4.011.346l12.07-.583c2.464-.119,7.536-.246,6.9-4.052-.293-1.76-2-3.607-2.653-5.309a14.825,14.825,0,0,1-1.108-5.94,70.476,70.476,0,0,0-.6-8.872c-.324-4.125-.463-8.394-2.2-12.224-1.463-3.219-8.753-2.216-11.546-1.673A14.02,14.02,0,0,0,747.489,1785.481Z" transform="translate(-743.956 -1784.468)" fill="#c68b63"/>
                </g>
                <g id="Group_309" data-name="Group 309" transform="translate(36.723 115.464)">
                  <g id="Group_307" data-name="Group 307" transform="translate(0.275)">
                    <path id="Path_299" data-name="Path 299" d="M834.673,2133.958a12.381,12.381,0,0,0,2.267-.155,38.869,38.869,0,0,0-.367-7.918c-1.262,1.224-2.2.4-2.326,2.851C834.206,2129.529,834.907,2132.761,834.673,2133.958Z" transform="translate(-834.245 -2125.885)" fill="#c68b63"/>
                  </g>
                  <g id="Group_308" data-name="Group 308" transform="translate(0 6.582)">
                    <path id="Path_300" data-name="Path 300" d="M836.438,2150.729c.908-.257.964,1.872.937,2.37a3.714,3.714,0,0,0-.016.9,2.4,2.4,0,0,0,.441.877l1.177,1.7a2.806,2.806,0,0,1,.439.816,1.656,1.656,0,0,1-.983,1.871c-2.459,1.04-4.433-2.016-4.818-3.971-.059-.3-.1-.6-.134-.906-.077-.627-.454-2.009-.168-2.6.335-.686,1.168-.116,1.755-.344C835.614,2151.236,836.071,2150.834,836.438,2150.729Z" transform="translate(-833.208 -2150.708)" fill="#3b455a"/>
                  </g>
                </g>
                <g id="Group_312" data-name="Group 312" transform="translate(15.941 116.102)">
                  <g id="Group_310" data-name="Group 310" transform="translate(2.008)">
                    <path id="Path_301" data-name="Path 301" d="M765.611,2135.936a12.431,12.431,0,0,1-2.262.224,38.886,38.886,0,0,1-.952-7.869c1.448,1,2.235.028,2.766,2.425C765.336,2131.492,765.182,2134.8,765.611,2135.936Z" transform="translate(-762.398 -2128.291)" fill="#c68b63"/>
                  </g>
                  <g id="Group_311" data-name="Group 311" transform="translate(0 6.135)">
                    <path id="Path_302" data-name="Path 302" d="M757.075,2152.343c-.1,1.446-1.343,2.926-2.061,4.183a.893.893,0,0,0,.066,1.173,1.861,1.861,0,0,0,.707.761,1.768,1.768,0,0,0,1.018.058q.857-.128,1.7-.334a1.165,1.165,0,0,0,.4-.154,1.2,1.2,0,0,0,.316-.4,4.369,4.369,0,0,0,.847-2.16,13.344,13.344,0,0,1,.214-2.721c.111-.427.256-.972-.1-1.235-.274-.2-.816.014-1.131.044a4.25,4.25,0,0,0-1.588.239.734.734,0,0,0-.283.212A.613.613,0,0,0,757.075,2152.343Z" transform="translate(-754.826 -2151.43)" fill="#3b455a"/>
                  </g>
                </g>
                <g id="Group_320" data-name="Group 320" transform="translate(4.48)">
                  <g id="Group_319" data-name="Group 319">
                    <g id="Group_316" data-name="Group 316" transform="translate(11.335 6.193)">
                      <g id="Group_314" data-name="Group 314" transform="translate(0 3.298)">
                        <g id="Group_313" data-name="Group 313">
                          <path id="Path_303" data-name="Path 303" d="M758.252,1742.254a1.04,1.04,0,0,0,.21.26,2.283,2.283,0,0,0,1.3.537,5.663,5.663,0,0,0,1.849-.211c.82-.193.769-.676.857-1.431.048-.412.071-.827.084-1.242.007-.228-.116-1.036.022-1.2.093-.112.494-.093.666-.192a1.932,1.932,0,0,0,.647-.7,5.429,5.429,0,0,0,.5-1.4l.649-2.513a13.152,13.152,0,0,0,.488-2.6c.068-1.33-.227-3.193-1.27-4.119a5.987,5.987,0,0,0-3.524-1.2,7.229,7.229,0,0,0-4.649,1.15,3.868,3.868,0,0,0-1.371,1.476,6.255,6.255,0,0,0-.279,3.272l.286,3.073c.11,1.178.315,2.532,1.227,3.134.484.32,1.1.366,1.522.784a3.061,3.061,0,0,1,.581,2.036A2.525,2.525,0,0,0,758.252,1742.254Z" transform="translate(-754.356 -1726.212)" fill="#c68b63"/>
                        </g>
                      </g>
                      <g id="Group_315" data-name="Group 315" transform="translate(4.411)">
                        <path id="Path_304" data-name="Path 304" d="M775.022,1719.625a1.743,1.743,0,0,1,.151.294c.212.536.111,1.156.319,1.693.329.853,1.361,1.329,1.552,2.223.156.731-.317,1.453-.327,2.2-.011.817.543,1.565.5,2.372a5.33,5.33,0,0,1-.834,2.28c.122-.179,1.293-.168,1.589-.366a1.23,1.23,0,0,0,.615-.975,9.773,9.773,0,0,1,.182-1.458c.237-.615.757-1.082.918-1.735.22-.89-.288-1.8-.291-2.715,0-1.388,1.137-2.745.645-4.043-.288-.761-1.06-1.223-1.512-1.9a10.455,10.455,0,0,1-.735-1.7,2.063,2.063,0,0,0-1.254-1.276,10.093,10.093,0,0,0-1.026-.076,12.569,12.569,0,0,1-1.66-.631c-.816-.237-2.2.637-2.639,1.339s-.177,1.261.325,1.839C772.374,1717.951,774.319,1718.52,775.022,1719.625Z" transform="translate(-770.991 -1713.773)" fill="#3b455a"/>
                      </g>
                    </g>
                    <g id="Group_317" data-name="Group 317" transform="translate(6.114 5.138)">
                      <path id="Path_305" data-name="Path 305" d="M737.325,1713.074a15.3,15.3,0,0,0-1.472,1.087,4.536,4.536,0,0,0-.911,3.314,21.982,21.982,0,0,0-.24,3.085,2.674,2.674,0,0,0,1.067,1.864c.766.507,1.936.545,2.3,1.386.4.914-.512,2.126.107,2.909.342.431.977.469,1.451.749a4.067,4.067,0,0,1,1.157,1.41,1.861,1.861,0,0,0,1.446,1.007,5.118,5.118,0,0,0-.455-2.511c-.254-.487-.977-1.375-.475-1.936.312-.462,1.087-.641,1.083-1.2a1.287,1.287,0,0,0-.347-.688,3.2,3.2,0,0,1-.362-2.9,4.165,4.165,0,0,1,1.974-2.218c1.045-.563.861-.816,1.128-1.851.245-.952.769-1.2,1.6-1.575a1.785,1.785,0,0,0,1.233-1.266,2.073,2.073,0,0,0,.086-1.732,3.52,3.52,0,0,0-1.123-1.06,4.56,4.56,0,0,0-2.965-1.144c-.6.069-1.151.375-1.75.436-.4.04-.8-.031-1.2-.028a3.194,3.194,0,0,0-1.933.677c-.541.435-.506.864-.792,1.46A2.091,2.091,0,0,1,737.325,1713.074Z" transform="translate(-734.665 -1709.793)" fill="#3b455a"/>
                    </g>
                    <g id="Group_318" data-name="Group 318">
                      <path id="Path_306" data-name="Path 306" d="M722.633,1694.895c.077-.655-.027-1.5-.657-1.692-.345-.106-.721.043-1.078-.014-.76-.121-1.056-1.022-1.48-1.664a.57.57,0,0,0-.245-.236.931.931,0,0,0-.486.033c-.746.124-1.347-.591-2.065-.829a1.775,1.775,0,0,0-2.189,1.208c-.092.373-.056.769-.142,1.143-.347,1.519-2.518,2.252-2.506,3.81.008,1.053,1.08,2.016.722,3.006-.229.633-1.011,1.092-.891,1.754a.929.929,0,0,0,.979.673,1.866,1.866,0,0,0,1.133-.578c.5-.474.863-1.07,1.335-1.57a2.344,2.344,0,0,1,1.8-.86c.664.054,1.283.542,1.934.4.521-.111.89-.6,1.4-.75a4.87,4.87,0,0,1,1.485.032c.5.009,1.1-.277,1.089-.775a1.257,1.257,0,0,1-.008-.36c.092-.326.641-.331.731-.657-.276-.389-.636-.23-.845-.744A2.873,2.873,0,0,1,722.633,1694.895Z" transform="translate(-711.605 -1690.417)" fill="#3b455a"/>
                    </g>
                  </g>
                </g>
                <g id="Group_321" data-name="Group 321" transform="translate(4.17 20.303)">
                  <path id="Path_307" data-name="Path 307" d="M718.339,1793.074c.009.6-.111,3.169.848,3.232,4.765.306,9.446-1.565,14.089-2.321a25.02,25.02,0,0,1,3.654-.353c1.1-.016,2.119.492,2.417-.677a17.57,17.57,0,0,0,.095-3.9c.014-2.572-.3-4.917.3-7.433a27.414,27.414,0,0,1,2.853-7.251,1.8,1.8,0,0,0,.286-.722,3.992,3.992,0,0,0-.328-1.265c-.169-.612-.264-1.252-.413-1.87q-.431-1.783-1-3.531a9.383,9.383,0,0,1-2.414,1.39c-1.351.53-2.8.744-4.153,1.271-.7.271-1.223.74-1.87,1.062-.613.305-1.282.292-1.638,1.011a7.151,7.151,0,0,0-.062,2.454,15.353,15.353,0,0,1-.159,2.514c-.185,1.061-.691,2.319-1.763,2.425a2.2,2.2,0,0,1-1.766-.929c-1.226-1.44-1.035-3.3-1.927-4.835a6.844,6.844,0,0,0-1.158-1.541c-.563-.232-2.269.85-2.837,1.094a20.845,20.845,0,0,0-4.173,2.1,25.438,25.438,0,0,0-3.627,3.225c-.974,1.029-1.911,2.109-2.783,3.225-.957,1.226.122,1.824.97,2.782q.878.993,1.848,1.9a8.536,8.536,0,0,0,1.885,1.622c.9.4,1.864-.588,2.454-1.155-.251.242.371,2.355.419,2.811C718.511,1790.606,718.322,1791.875,718.339,1793.074Z" transform="translate(-710.434 -1766.988)" fill="#eb4747"/>
                </g>
              </g>
              <g id="Group_325" data-name="Group 325" transform="translate(13.007 55.833)">
                <g id="Group_323" data-name="Group 323" transform="translate(0 2.179)">
                  <path id="Path_308" data-name="Path 308" d="M771.656,1968.913c-.068-2.026-.17-4.056-.275-6.084-.182-3.516-.353-6.972-.711-10.466-1.1-10.765-1.55-21.642-2.317-32.438a46.611,46.611,0,0,0-.713-9.687,1.636,1.636,0,0,0-.175-.508c-.309-.507-1.018-.545-1.611-.52-2.324.1-4.754.6-7.058.545-2.588-.063-5.328-.286-8-.136-1.837.1-3.695-.59-5.569-.241-.914.17-.888.936-1.042,1.83a23.806,23.806,0,0,0-.268,2.93q-.124,2.635-.148,5.274c-.04,4.355.638,8.748.855,13.1q.34,6.844.593,13.692c.218,5.779,1.046,11.526,1.76,17.236.253,2.018.509,4.036.8,6.046a9.074,9.074,0,0,0,.372,2.2c.516,1.075,1.891.957,2.747.826a12.155,12.155,0,0,0,2.212-.555c-.276-7.971.559-16.067.522-24.094a149.136,149.136,0,0,1,1.117-15.939,26.778,26.778,0,0,1,.391-3c.2-.922.577-1.8.731-2.749.168-1.034,1-1.1,1.369-.2a28.581,28.581,0,0,1,.963,3.75c1.608,6.219,3.466,12.347,4.519,18.758,1.3,7.921,3.409,15.776,4.482,23.678a10.574,10.574,0,0,0,2.112.209c.8,0,2.078-.1,2.371-1.236A9.73,9.73,0,0,0,771.656,1968.913Z" transform="translate(-743.764 -1909.205)" fill="#285173"/>
                </g>
                <g id="Group_324" data-name="Group 324" transform="translate(0.99)">
                  <path id="Path_309" data-name="Path 309" d="M770.286,1904.181c0-.449-.9-1.223-1.1-1.655-.222-.486-.416-.973-.674-1.453a.185.185,0,0,0-.049-.066c-.084-.062-.188.039-.265.108-.273.243-1,.083-1.337.086l-1.755.017-3.4.032c-4.548.044-9.049.3-13.592.014-.181.454-.825,2.009-.55,2.469.1.168.272.135.475.155.466.046.939.054,1.406.073,1.518.064,3.037.1,4.555.141q5.626.138,11.256.174A49.771,49.771,0,0,0,770.286,1904.181Z" transform="translate(-747.496 -1900.987)" fill="#3b78ab"/>
                </g>
              </g>
            </g>
            <g id="Group_342" data-name="Group 342" transform="translate(112.978 94.651)">
              <g id="Group_327" data-name="Group 327" transform="translate(4.749 58.491)">
                <path id="Path_310" data-name="Path 310" d="M552.2,2096.835c1.919,1.338,15.043,18.74,15.043,18.74l-7.522,5.779-31.123-6.483V2109.1l11.932-.932s-8.695-1.271-11.059-7.041S552.2,2096.835,552.2,2096.835Z" transform="translate(-528.602 -2096.664)" fill="#faa146"/>
              </g>
              <g id="Group_328" data-name="Group 328" transform="translate(0 71.527)">
                <path id="Path_311" data-name="Path 311" d="M511.678,2147.679c-.654,1.74-1.325,4.048-.8,5.988.586,2.148,3.936,3.647,4.848.953a1.516,1.516,0,0,0-.258-1.54c-.824-.826-1.514-1.733.044-2.285.578-.2,1.211-.178,1.806-.323a1.038,1.038,0,0,0,.556-.288,1.2,1.2,0,0,0,.206-.762,18.8,18.8,0,0,0-.154-3.056c-.041-.31-2.975-.565-3.28-.532A3.586,3.586,0,0,0,511.678,2147.679Z" transform="translate(-510.691 -2145.83)" fill="#4f4f4f"/>
              </g>
              <g id="Group_329" data-name="Group 329" transform="translate(24.968 58.662)">
                <path id="Path_312" data-name="Path 312" d="M613.6,2107.691l11.472,6.511,3.023-2.461v-2.863L613.6,2097.31l-8.741,9.473Z" transform="translate(-604.857 -2097.31)" fill="#faa146"/>
              </g>
              <g id="Group_335" data-name="Group 335" transform="translate(2.605)">
                <g id="Group_330" data-name="Group 330" transform="translate(0 19.877)">
                  <path id="Path_313" data-name="Path 313" d="M536.389,1952.428a6.523,6.523,0,0,1,1.039-.528c6.04-2.385,10.465.308,12.412,6.145a68.147,68.147,0,0,1,2.024,38.292,163.976,163.976,0,0,1-21.666.137c-2.41-.2-5.049-.57-6.665-2.369a8.314,8.314,0,0,1-1.52-2.831,29.856,29.856,0,0,1,.574-20.205,45.825,45.825,0,0,1,11.6-16.844A13.859,13.859,0,0,1,536.389,1952.428Z" transform="translate(-520.515 -1951.033)" fill="#4f4f4f"/>
                </g>
                <g id="Group_334" data-name="Group 334" transform="translate(14.893)">
                  <g id="Group_332" data-name="Group 332" transform="translate(1.959 7.668)">
                    <g id="Group_331" data-name="Group 331">
                      <path id="Path_314" data-name="Path 314" d="M597.342,1905.445c-3.143.811-6.468-1.287-9.5-.067a6.544,6.544,0,0,0-3.675,5.069,5.236,5.236,0,0,0,.29,2.97,4.7,4.7,0,0,0,1.146,1.5,6.593,6.593,0,0,0,2.128,1.287,22.011,22.011,0,0,1-1.1,2.045c.484.3.26,1.285.706,1.783a2.013,2.013,0,0,0,1.959.465,5.212,5.212,0,0,0,1.814-1c.5-.376.237-2.924.752-3.046a6.926,6.926,0,0,0,1.282-.438,8.2,8.2,0,0,0,4.566-6.661A15.165,15.165,0,0,0,597.342,1905.445Z" transform="translate(-584.074 -1904.987)" fill="#eea987"/>
                    </g>
                  </g>
                  <g id="Group_333" data-name="Group 333">
                    <path id="Path_315" data-name="Path 315" d="M584.39,1884.2q.181-.009.36-.01a11.872,11.872,0,0,1,5.006,1.068,4.56,4.56,0,0,1,1.56,1.045,3.751,3.751,0,0,1,.83,2.625,9.664,9.664,0,0,1-.618,2.785,1.891,1.891,0,0,0,1.1-.424,8.61,8.61,0,0,0,2.642-2.581c1.09-1.894,1.137-3.242,2.993-4.6,1.539-1.125,3.5-.452,4.737-2.358,1.013-1.561.415-4.094-1.375-4.6a2.512,2.512,0,0,0-2.329.551c-.662.6-1.382,1.659-2.158,1.211a1.859,1.859,0,0,1-.606-.865c-1.324-2.654-4.154-2.192-6.416-1.2a13.686,13.686,0,0,1-3.887,1.454c-1.1.115-2.194-.174-3.3-.142a6.43,6.43,0,0,0-4.782,2.531,6.078,6.078,0,0,0-1.076,5.956,20.6,20.6,0,0,1,.991,2.959c.1.349.869,1.769,1.166.631.231-.883.175-1.814.412-2.7A4.91,4.91,0,0,1,584.39,1884.2Z" transform="translate(-576.685 -1876.067)" fill="#163342"/>
                  </g>
                </g>
              </g>
              <g id="Group_336" data-name="Group 336" transform="translate(19.195 28.151)">
                <path id="Path_316" data-name="Path 316" d="M621.28,1982.348c-4.6-.4-10.408,2.067-11.811,6.054-1.362-4-8.413-6.49-13.019-6.13-12.155.949-16.337,14.693-11.233,23.973a52.9,52.9,0,0,0,11.037,13.3c3.624,3.292,12.977,10.281,13.006,10.258.028.024,9.453-6.879,13.109-10.137a52.96,52.96,0,0,0,11.171-13.2C638.738,1997.236,633.425,1983.409,621.28,1982.348Z" transform="translate(-583.085 -1982.237)" fill="#eb4747"/>
              </g>
              <g id="Group_337" data-name="Group 337" transform="translate(37.229 47.197)">
                <path id="Path_317" data-name="Path 317" d="M680.89,2060.206a66.6,66.6,0,0,1-10.393,10.151c-3.7,2.88-8.022,5.383-12.773,6.2a16.4,16.4,0,0,1-6.626-.175c3.86,3.056,8.056,6.182,8.075,6.166.029.023,9.453-6.879,13.109-10.137a52.962,52.962,0,0,0,11.171-13.2,15.449,15.449,0,0,0,1.778-5.149A48.683,48.683,0,0,1,680.89,2060.206Z" transform="translate(-651.098 -2054.069)" fill="#eb4747"/>
              </g>
              <g id="Group_338" data-name="Group 338" transform="translate(23.043 36.639)">
                <path id="Path_318" data-name="Path 318" d="M641.654,2027.24l-9.546.2-3.39-12.744a.664.664,0,0,0-1.253-.006l-7.5,22.122-.434,1.282-4.951-14.609-.794-2.343a.67.67,0,0,0-1.187-.154l-3.688,7.069-10.681-.049a.621.621,0,1,0-.006,1.242l11.083.051a.649.649,0,0,0,.563-.305l3.161-6.058,5.08,14.987.794,2.343a.665.665,0,0,0,1.253.006l7.5-22.122.359-1.058,2.963,11.14a.655.655,0,0,0,.624.459l10.045-.212A.621.621,0,1,0,641.654,2027.24Z" transform="translate(-597.598 -2014.252)" fill="#fff"/>
              </g>
              <g id="Group_339" data-name="Group 339" transform="translate(14.626 29.055)">
                <path id="Path_319" data-name="Path 319" d="M569.067,2006.639a10.468,10.468,0,0,0,3.509,5l4.166,3.021a3.665,3.665,0,0,1,1.018.959,4.852,4.852,0,0,1,.465,1.918,4.492,4.492,0,0,0,2.229,3.5c1.3.62,3.181,0,3.494-1.4-.6-.8-1.166-1.653-1.807-2.422-.347-.415-1.114-1.418.128-1.087a1.517,1.517,0,0,0,.584.092.847.847,0,0,0,.636-.6,1.741,1.741,0,0,0,.045-.89c-2.825-.052-5.937-2.793-7.469-4.979-4.1-5.846-2.453-13.264-3.826-19.829a6.077,6.077,0,0,0-1.835-3.532,2.911,2.911,0,0,0-3.712-.128c-1.058.993-.9,2.684-.67,4.116l1.012,6.165C567.534,1999.588,567.864,2003.412,569.067,2006.639Z" transform="translate(-565.851 -1985.648)" fill="#eea987"/>
              </g>
              <g id="Group_340" data-name="Group 340" transform="translate(13.002 25.618)">
                <path id="Path_320" data-name="Path 320" d="M560.02,1977.083a37.241,37.241,0,0,0-.106,8.384,87.388,87.388,0,0,1,10.107-.916,63.453,63.453,0,0,0-1.543-8.733,4.207,4.207,0,0,0-4.535-3.131C561.544,1972.784,560.286,1974.974,560.02,1977.083Z" transform="translate(-559.727 -1972.683)" fill="#4f4f4f"/>
              </g>
              <g id="Group_341" data-name="Group 341" transform="translate(36.092 27.427)">
                <path id="Path_321" data-name="Path 321" d="M649.266,1981.239a.673.673,0,0,1,.509.082.617.617,0,0,1,.161.485,3.407,3.407,0,0,1-.613,1.956.579.579,0,0,0-.162.439c.04.164.219.247.376.307l1.237.472a.5.5,0,0,0,.259.048.5.5,0,0,0,.268-.2,6.338,6.338,0,0,0,1.4-2.255,2.162,2.162,0,0,0-.718-2.392c-1.225-.785-5.075-1.294-5.173.916A4.388,4.388,0,0,0,649.266,1981.239Z" transform="translate(-646.812 -1979.509)" fill="#eea987"/>
              </g>
            </g>
          </g>
        </g>
      </g>
    </g>
  </g>
</svg>
