<svg xmlns="http://www.w3.org/2000/svg" xmlns:xlink="http://www.w3.org/1999/xlink" width="251" height="73" viewBox="0 0 251 73">
  <defs>
    <clipPath id="clip-fitness">
      <rect width="251" height="73"/>
    </clipPath>
  </defs>
  <g id="fitness" clip-path="url(#clip-fitness)">
    <rect width="251" height="73" fill="#fff"/>
    <g id="Group_479" data-name="Group 479" transform="translate(-995 -12341)">
      <path id="Path_421" data-name="Path 421" d="M4.8,0V-71.2H35.2v9.6H15V-40H32.6v9.6H15V0ZM42.1,0V-71.2H52.3V0ZM68.9,0V-61.6H57.1v-9.6H90.9v9.6H79.1V0ZM95,0V-71.2h9.8l15.4,42.9h.2V-71.2h10.2V0H121L105.4-42.8h-.2V0Zm44.8,0V-71.2h30.4v9.6H150v20.9h17.6v9.6H150v20.9h20.2V0Zm70-50.7H199.6V-53a10.891,10.891,0,0,0-1.65-6.05q-1.65-2.55-5.55-2.55a6.417,6.417,0,0,0-3.4.8,6.705,6.705,0,0,0-2.1,2,8.458,8.458,0,0,0-1.1,2.95,19.26,19.26,0,0,0-.3,3.45,33.814,33.814,0,0,0,.15,3.5,6.645,6.645,0,0,0,.75,2.5,5.561,5.561,0,0,0,1.75,1.9,16.077,16.077,0,0,0,3.15,1.6l7.8,3.1a19.339,19.339,0,0,1,5.5,3.05,13.185,13.185,0,0,1,3.3,4.05,18.931,18.931,0,0,1,1.5,5.45,53.93,53.93,0,0,1,.4,6.95,36.647,36.647,0,0,1-.9,8.35A17.59,17.59,0,0,1,206-5.4,14.4,14.4,0,0,1,200.5-1,19.4,19.4,0,0,1,192.2.6a18.157,18.157,0,0,1-6.9-1.3,16.412,16.412,0,0,1-5.5-3.6,17.52,17.52,0,0,1-3.65-5.35,16.245,16.245,0,0,1-1.35-6.65v-3.8H185v3.2a8.332,8.332,0,0,0,1.65,5.05Q188.3-9.6,192.2-9.6a8.95,8.95,0,0,0,4.05-.75,5.384,5.384,0,0,0,2.25-2.15,7.9,7.9,0,0,0,.95-3.35q.15-1.95.15-4.35a43.1,43.1,0,0,0-.2-4.6,7.917,7.917,0,0,0-.8-2.9,5.622,5.622,0,0,0-1.85-1.8A23.706,23.706,0,0,0,193.7-31l-7.3-3q-6.6-2.7-8.85-7.15A24.6,24.6,0,0,1,175.3-52.3a25.867,25.867,0,0,1,1.1-7.6,17.287,17.287,0,0,1,3.3-6.2,15.124,15.124,0,0,1,5.35-4.15,17.857,17.857,0,0,1,7.75-1.55,16.922,16.922,0,0,1,6.95,1.4,17.9,17.9,0,0,1,5.45,3.7,15.45,15.45,0,0,1,4.6,11Zm40.6,0H240.2V-53a10.891,10.891,0,0,0-1.65-6.05Q236.9-61.6,233-61.6a6.417,6.417,0,0,0-3.4.8,6.705,6.705,0,0,0-2.1,2,8.458,8.458,0,0,0-1.1,2.95,19.26,19.26,0,0,0-.3,3.45,33.814,33.814,0,0,0,.15,3.5,6.645,6.645,0,0,0,.75,2.5,5.561,5.561,0,0,0,1.75,1.9,16.077,16.077,0,0,0,3.15,1.6l7.8,3.1a19.339,19.339,0,0,1,5.5,3.05,13.185,13.185,0,0,1,3.3,4.05,18.931,18.931,0,0,1,1.5,5.45,53.93,53.93,0,0,1,.4,6.95,36.647,36.647,0,0,1-.9,8.35,17.59,17.59,0,0,1-2.9,6.55A14.4,14.4,0,0,1,241.1-1,19.4,19.4,0,0,1,232.8.6a18.157,18.157,0,0,1-6.9-1.3,16.412,16.412,0,0,1-5.5-3.6,17.52,17.52,0,0,1-3.65-5.35,16.245,16.245,0,0,1-1.35-6.65v-3.8h10.2v3.2a8.332,8.332,0,0,0,1.65,5.05Q228.9-9.6,232.8-9.6a8.95,8.95,0,0,0,4.05-.75,5.384,5.384,0,0,0,2.25-2.15,7.9,7.9,0,0,0,.95-3.35q.15-1.95.15-4.35a43.1,43.1,0,0,0-.2-4.6,7.917,7.917,0,0,0-.8-2.9,5.622,5.622,0,0,0-1.85-1.8A23.706,23.706,0,0,0,234.3-31L227-34q-6.6-2.7-8.85-7.15A24.6,24.6,0,0,1,215.9-52.3a25.867,25.867,0,0,1,1.1-7.6,17.287,17.287,0,0,1,3.3-6.2,15.124,15.124,0,0,1,5.35-4.15,17.857,17.857,0,0,1,7.75-1.55,16.922,16.922,0,0,1,6.95,1.4,17.9,17.9,0,0,1,5.45,3.7,15.45,15.45,0,0,1,4.6,11Z" transform="translate(990 12413)" fill="#e4c0cf"/>
      <path id="Path_420" data-name="Path 420" d="M4.8,0V-71.2H35.2v9.6H15V-40H32.6v9.6H15V0ZM42.1,0V-71.2H52.3V0ZM68.9,0V-61.6H57.1v-9.6H90.9v9.6H79.1V0ZM95,0V-71.2h9.8l15.4,42.9h.2V-71.2h10.2V0H121L105.4-42.8h-.2V0Zm44.8,0V-71.2h30.4v9.6H150v20.9h17.6v9.6H150v20.9h20.2V0Zm70-50.7H199.6V-53a10.891,10.891,0,0,0-1.65-6.05q-1.65-2.55-5.55-2.55a6.417,6.417,0,0,0-3.4.8,6.705,6.705,0,0,0-2.1,2,8.458,8.458,0,0,0-1.1,2.95,19.26,19.26,0,0,0-.3,3.45,33.814,33.814,0,0,0,.15,3.5,6.645,6.645,0,0,0,.75,2.5,5.561,5.561,0,0,0,1.75,1.9,16.077,16.077,0,0,0,3.15,1.6l7.8,3.1a19.339,19.339,0,0,1,5.5,3.05,13.185,13.185,0,0,1,3.3,4.05,18.931,18.931,0,0,1,1.5,5.45,53.93,53.93,0,0,1,.4,6.95,36.647,36.647,0,0,1-.9,8.35A17.59,17.59,0,0,1,206-5.4,14.4,14.4,0,0,1,200.5-1,19.4,19.4,0,0,1,192.2.6a18.157,18.157,0,0,1-6.9-1.3,16.412,16.412,0,0,1-5.5-3.6,17.52,17.52,0,0,1-3.65-5.35,16.245,16.245,0,0,1-1.35-6.65v-3.8H185v3.2a8.332,8.332,0,0,0,1.65,5.05Q188.3-9.6,192.2-9.6a8.95,8.95,0,0,0,4.05-.75,5.384,5.384,0,0,0,2.25-2.15,7.9,7.9,0,0,0,.95-3.35q.15-1.95.15-4.35a43.1,43.1,0,0,0-.2-4.6,7.917,7.917,0,0,0-.8-2.9,5.622,5.622,0,0,0-1.85-1.8A23.706,23.706,0,0,0,193.7-31l-7.3-3q-6.6-2.7-8.85-7.15A24.6,24.6,0,0,1,175.3-52.3a25.867,25.867,0,0,1,1.1-7.6,17.287,17.287,0,0,1,3.3-6.2,15.124,15.124,0,0,1,5.35-4.15,17.857,17.857,0,0,1,7.75-1.55,16.922,16.922,0,0,1,6.95,1.4,17.9,17.9,0,0,1,5.45,3.7,15.45,15.45,0,0,1,4.6,11Zm40.6,0H240.2V-53a10.891,10.891,0,0,0-1.65-6.05Q236.9-61.6,233-61.6a6.417,6.417,0,0,0-3.4.8,6.705,6.705,0,0,0-2.1,2,8.458,8.458,0,0,0-1.1,2.95,19.26,19.26,0,0,0-.3,3.45,33.814,33.814,0,0,0,.15,3.5,6.645,6.645,0,0,0,.75,2.5,5.561,5.561,0,0,0,1.75,1.9,16.077,16.077,0,0,0,3.15,1.6l7.8,3.1a19.339,19.339,0,0,1,5.5,3.05,13.185,13.185,0,0,1,3.3,4.05,18.931,18.931,0,0,1,1.5,5.45,53.93,53.93,0,0,1,.4,6.95,36.647,36.647,0,0,1-.9,8.35,17.59,17.59,0,0,1-2.9,6.55A14.4,14.4,0,0,1,241.1-1,19.4,19.4,0,0,1,232.8.6a18.157,18.157,0,0,1-6.9-1.3,16.412,16.412,0,0,1-5.5-3.6,17.52,17.52,0,0,1-3.65-5.35,16.245,16.245,0,0,1-1.35-6.65v-3.8h10.2v3.2a8.332,8.332,0,0,0,1.65,5.05Q228.9-9.6,232.8-9.6a8.95,8.95,0,0,0,4.05-.75,5.384,5.384,0,0,0,2.25-2.15,7.9,7.9,0,0,0,.95-3.35q.15-1.95.15-4.35a43.1,43.1,0,0,0-.2-4.6,7.917,7.917,0,0,0-.8-2.9,5.622,5.622,0,0,0-1.85-1.8A23.706,23.706,0,0,0,234.3-31L227-34q-6.6-2.7-8.85-7.15A24.6,24.6,0,0,1,215.9-52.3a25.867,25.867,0,0,1,1.1-7.6,17.287,17.287,0,0,1,3.3-6.2,15.124,15.124,0,0,1,5.35-4.15,17.857,17.857,0,0,1,7.75-1.55,16.922,16.922,0,0,1,6.95,1.4,17.9,17.9,0,0,1,5.45,3.7,15.45,15.45,0,0,1,4.6,11Z" transform="translate(996 12413)" fill="#232323"/>
    </g>
  </g>
</svg>
