<svg xmlns="http://www.w3.org/2000/svg" xmlns:xlink="http://www.w3.org/1999/xlink" width="136" height="151" viewBox="0 0 136 151">
  <defs>
    <clipPath id="clip-kb-kalim-bechara-logo">
      <rect width="136" height="151"/>
    </clipPath>
  </defs>
  <g id="kb-kalim-bechara-logo" clip-path="url(#clip-kb-kalim-bechara-logo)">
    <rect width="136" height="151" fill="#fff"/>
    <g id="Group_481" data-name="Group 481" transform="translate(0)">
      <g id="Group_1" data-name="Group 1">
        <path id="Path_6" data-name="Path 6" d="M0,150.769V0H21.6V68.82h.425L53.572,0h21.6L45.738,60.35l34.939,90.419H57.809L33.245,83.855,21.6,105.665v45.1Z" fill="#e4c0cf"/>
        <path id="Path_7" data-name="Path 7" d="M59.622,150.769V0H91.174q10.371,0,17.682,3.175a33.388,33.388,0,0,1,11.963,8.47,31.727,31.727,0,0,1,6.67,12.176A50.7,50.7,0,0,1,129.5,38.114V43.62A48.064,48.064,0,0,1,128.547,54a24.876,24.876,0,0,1-2.859,7.411,29.689,29.689,0,0,1-11.009,10.163A23.464,23.464,0,0,1,125.9,82.16q3.6,6.988,3.6,19.058v8.471q0,19.9-9.635,30.492t-30.81,10.588Zm21.6-130.442V61.833h9.742q10.8,0,14.5-5.4t3.708-15.775q0-10.163-4.131-15.246T90.115,20.328Zm0,60.563v48.28h9.319q6.559,0,10.27-1.905a13.141,13.141,0,0,0,5.611-5.293,19.927,19.927,0,0,0,2.329-8.047q.423-4.655.425-10.166a68.143,68.143,0,0,0-.636-9.952,18.169,18.169,0,0,0-2.541-7.2,12.2,12.2,0,0,0-5.719-4.339,27.223,27.223,0,0,0-9.529-1.377Z" transform="translate(-1.838)" fill="#e4c0cf"/>
      </g>
      <g id="Group_2" data-name="Group 2" transform="translate(7.678)">
        <path id="Path_8" data-name="Path 8" d="M7.922,150.769V0h21.6V68.82h.425L61.494,0h21.6L53.66,60.35,88.6,150.769H65.731L41.167,83.855,29.519,105.665v45.1Z" transform="translate(-7.922)" fill="#232323"/>
        <path id="Path_9" data-name="Path 9" d="M67.544,150.769V0H99.1q10.37,0,17.681,3.175a33.4,33.4,0,0,1,11.964,8.47,31.753,31.753,0,0,1,6.67,12.176,50.731,50.731,0,0,1,2.013,14.293V43.62A48.058,48.058,0,0,1,136.469,54a24.85,24.85,0,0,1-2.859,7.411A29.681,29.681,0,0,1,122.6,71.572,23.462,23.462,0,0,1,133.823,82.16q3.6,6.988,3.6,19.058v8.471q0,19.9-9.635,30.492T96.978,150.769Zm21.6-130.442V61.833h9.742q10.8,0,14.5-5.4T117.1,40.656q0-10.163-4.131-15.246T98.037,20.328Zm0,60.563v48.28H98.46q6.559,0,10.27-1.905a13.149,13.149,0,0,0,5.612-5.293,19.927,19.927,0,0,0,2.328-8.047q.423-4.655.425-10.166a68.006,68.006,0,0,0-.636-9.952,18.154,18.154,0,0,0-2.541-7.2,12.2,12.2,0,0,0-5.718-4.339,27.232,27.232,0,0,0-9.53-1.377Z" transform="translate(-9.76)" fill="#232323"/>
      </g>
    </g>
  </g>
</svg>
