<svg id="Layer_1" data-name="Layer 1" xmlns="http://www.w3.org/2000/svg" viewBox="0 0 359 281"><defs><style>.cls-1{fill:#fff;}.cls-2{fill:#f7eff3;}.cls-3{fill:#232323;}</style></defs><rect id="Rectangle_183" data-name="Rectangle 183" class="cls-1" width="359" height="281" rx="20"/><path class="cls-1" d="M359,20V261a20,20,0,0,1-20,20H20A20,20,0,0,1,0,261V20A20,20,0,0,1,20,0H339A20,20,0,0,1,359,20Z"/><path class="cls-2" d="M26.81,44.12H11.06V6H5.73A19.89,19.89,0,0,0,0,20V95H11.06V55.37H26.81V95H39.56V6H26.81Z"/><path class="cls-2" d="M359,120.5V104a19.7,19.7,0,0,0-3.54-4.36,22.48,22.48,0,0,0-22.31-4,21.2,21.2,0,0,0-6.81,4,20.07,20.07,0,0,0-5,6.88,17.32,17.32,0,0,0-.75,1.94V95H307.84v53.62h-.25L288.34,95H233.81V57.37L251.31,6h-13.5L227.56,41.37h-.25L217.06,6H196.31V44.12H180.56V6H131.81V18h14.75V82.25H125.81V6H113.06V69.8L98.81,6H88.19l-17,76.25H52.44V56.12h22v-12h-22V18H77.69V6h-38V95H81.06l3.75-19.13h17.38L105.94,95h53.37V18h8.5V95h-1v89h41.38L212,164.87h17.37L233.09,184h21.38V107h8.87v77h13.49l-12.75,9.37v13.5l12.75-9.37V273h12.75V184h-.74V130.5h.25l19.5,53.5h1.26c-.58.16-1.15.35-1.71.56a18.2,18.2,0,0,0-6.06,3.81,18.77,18.77,0,0,0-4.19,6,19.49,19.49,0,0,0-1.56,8v52.25a19.45,19.45,0,0,0,1.56,8,18.55,18.55,0,0,0,4.19,6,18.07,18.07,0,0,0,6.06,3.82,20.39,20.39,0,0,0,14.38,0,18.07,18.07,0,0,0,6.06-3.82,18.55,18.55,0,0,0,4.19-6,19.45,19.45,0,0,0,1.56-8V206.14l11.75-8.64V273h12.75V184H346.5c.67-.17,1.35-.39,2-.63a21.31,21.31,0,0,0,6.93-4.12,18.51,18.51,0,0,0,3.54-4.19V135H339.34v11.25h10.12V163q0,4.62-2.56,6.81a9.48,9.48,0,0,1-12.12,0q-2.56-2.19-2.57-6.81V116c0-3.08.86-5.36,2.57-6.81a9.48,9.48,0,0,1,12.12,0c1.71,1.45,2.56,3.73,2.56,6.81v4.5ZM87.06,63.87l6.25-32.25h.25l6.25,32.25ZM227,95v4.48L226,95ZM180.56,55.37h15.75V95H180.56Zm17.76,115.88H179.59V145.12h22v-12h-22V107h25.25V95h4.22V22.14l12,35.23V95h-5.72Zm15.9-18.38,6.25-32.25h.25L227,152.87ZM228.65,107h13.07v58.55Zm92.93,147.62a6.3,6.3,0,0,1-1.75,4.57,6.5,6.5,0,0,1-9,0,6.3,6.3,0,0,1-1.75-4.57V202.37a6.29,6.29,0,0,1,1.75-4.56,6.5,6.5,0,0,1,9,0,6.29,6.29,0,0,1,1.75,4.56Zm11.57-71.25a22.42,22.42,0,0,0,7.69,1.38,21.45,21.45,0,0,0,5-.59l-12.53,9.21v2.46a14.2,14.2,0,0,0-.56-1.46,18.77,18.77,0,0,0-4.19-6,18.2,18.2,0,0,0-6.06-3.81,18.84,18.84,0,0,0-1.93-.62V170.72a16,16,0,0,0,.75,1.9,19,19,0,0,0,5,6.63A20,20,0,0,0,333.15,183.37Z"/><polygon class="cls-3" points="93.27 81.4 82.56 81.4 82.56 55.48 73.89 55.48 73.89 116 82.56 116 82.56 89.05 93.27 89.05 93.27 116 101.94 116 101.94 55.48 93.27 55.48 93.27 81.4"/><path class="cls-3" d="M189.15,116h8.67V89.05h10.71v27h8.67V66.46l8.16,24V116H234V90.41l11.9-34.93h-9.18l-7,24.05h-.17l-7-24.05H208.53V81.4H197.82V55.48H164.67v8.16h10v43.69H160.59V55.48h-8.67V98.87l-9.69-43.39H135l-11.58,51.85H110.7V89.56h15V81.4h-15V63.64h17.17V55.48H102V116h28.13l2.55-13h11.82l2.55,13h36.29V63.64h5.78ZM134.24,94.83l4.25-21.93h.17l4.25,21.93Z"/><path class="cls-3" d="M321.35,133.82v-3.06a15.45,15.45,0,0,0-1.28-6.46,14.28,14.28,0,0,0-3.31-4.68A15.58,15.58,0,0,0,312,116.9a15.17,15.17,0,0,0-10.46,0,14.47,14.47,0,0,0-4.63,2.72,13.66,13.66,0,0,0-3.4,4.68,14.07,14.07,0,0,0-.51,1.33v-9.15h-8.67v36.46h-.17l-13.09-36.46H229.38v3l-.68-3h-7.23l-11.58,51.85H197.16V150.56h15V142.4h-15V124.64h17.17v-8.16H188.49V177h28.14l2.55-13H231l2.55,13h14.54V124.64h6V177h17.34V140.62h.17L284.88,177h3.9a13.61,13.61,0,0,0-4.2.86,12.49,12.49,0,0,0-4.13,2.59,13,13,0,0,0-2.84,4.08,13.2,13.2,0,0,0-1.07,5.44V225.5a13.17,13.17,0,0,0,1.07,5.44,12.82,12.82,0,0,0,2.84,4.08,12.36,12.36,0,0,0,4.13,2.6,13.85,13.85,0,0,0,9.77,0,12.36,12.36,0,0,0,4.13-2.6,12.82,12.82,0,0,0,2.84-4.08,13.17,13.17,0,0,0,1.07-5.44v-33l8-5.87V238H319V177.48h-8.67l-8.67,6.37v1.7a8.89,8.89,0,0,0-.38-1,13,13,0,0,0-2.84-4.08,12.49,12.49,0,0,0-4.13-2.59,13.67,13.67,0,0,0-4.2-.86H293v-9a12.55,12.55,0,0,0,.51,1.3,12.89,12.89,0,0,0,3.4,4.51,13.5,13.5,0,0,0,4.63,2.8,15,15,0,0,0,10.46,0,14.47,14.47,0,0,0,4.72-2.8,13.44,13.44,0,0,0,3.31-4.51,15.29,15.29,0,0,0,1.28-6.54v-19H305.79v7.65h6.89v11.39a5.76,5.76,0,0,1-1.75,4.63,6.44,6.44,0,0,1-8.24,0,5.75,5.75,0,0,1-1.74-4.63v-32a5.75,5.75,0,0,1,1.74-4.63,6.44,6.44,0,0,1,8.24,0,5.76,5.76,0,0,1,1.75,4.63v3.06Zm-100.64,22L225,133.9h.17l4.25,21.93Zm9.81-31.19h8.89v39.8ZM293.71,190V225.5a4.3,4.3,0,0,1-1.18,3.11,4.1,4.1,0,0,1-3.07,1.23,4.05,4.05,0,0,1-3-1.23,4.28,4.28,0,0,1-1.2-3.11V190a4.27,4.27,0,0,1,1.2-3.1,4.05,4.05,0,0,1,3-1.23,4.1,4.1,0,0,1,3.07,1.23A4.3,4.3,0,0,1,293.71,190Z"/><polygon class="cls-3" points="254.62 183.85 254.62 193.03 263.29 186.66 263.29 238 271.95 238 271.95 177.48 263.29 177.48 254.62 183.85"/></svg>