<svg id="Layer_1" data-name="Layer 1" xmlns="http://www.w3.org/2000/svg" viewBox="0 0 359 281"><defs><style>.cls-1{fill:#fff;}.cls-2{fill:#f7eff3;}.cls-3{fill:#232323;}</style></defs><rect id="Rectangle_149" data-name="Rectangle 149" class="cls-1" x="0.28" y="0.26" width="359" height="281" rx="20"/><path class="cls-2" d="M99.42,177.81h5.3L113,204.26h9.4L112.81,176a13.18,13.18,0,0,0,6-6.18,22.83,22.83,0,0,0,1.7-9.31q0-18.18-15.66-18.18H90.54v61.94h8.88Zm0-27.14H104c3.08,0,5.16.82,6.27,2.44a8.44,8.44,0,0,1,1,3.09,32.93,32.93,0,0,1,0,8.26,8.37,8.37,0,0,1-1,3,5.07,5.07,0,0,1-2.18,1.87,8.85,8.85,0,0,1-3.74.65h-5Z"/><polygon class="cls-2" points="43.39 237.12 43.22 237.12 31.82 204.32 23.29 204.32 23.29 266.26 32.17 266.26 32.17 228.59 32.34 228.59 41.04 255.21 45.48 255.21 54.26 228.59 54.44 228.59 54.44 266.26 63.31 266.26 63.31 204.32 54.7 204.32 43.39 237.12"/><path class="cls-2" d="M323.9,99.06h8.88V95.93a16,16,0,0,0-1.3-6.61,14.55,14.55,0,0,0-3.4-4.78,15.78,15.78,0,0,0-15.53-2.79,14.8,14.8,0,0,0-4.75,2.79,14.06,14.06,0,0,0-3.48,4.78c-.19.46-.36.92-.51,1.39V81.32h-8.88v37.32h-.17l-13.4-37.32H255.09v37.32h-.18l-13.4-37.32H233v61.94h8.87V106H242l13.57,37.23h26.1V106h.17l13.58,37.23h8.35V134a14.77,14.77,0,0,0,.52,1.4,13.21,13.21,0,0,0,3.48,4.61,14,14,0,0,0,4.74,2.87,15.29,15.29,0,0,0,1.63.49H310.6v37.32h-.18L297,143.32H288.5v42.86l-9.58-42.86h-7.39l-11.85,53.07h-13V143.32h-8.88v7.91a13.18,13.18,0,0,0-2.35-3.56,12.21,12.21,0,0,0-5-3.39,19.58,19.58,0,0,0-6.44-1H210.63v61.94h5.63v41.91l-9.57-42.85h-7.4l-11.85,53.07h-13V204.32h-8.87v7.91a13.18,13.18,0,0,0-2.35-3.56,12.24,12.24,0,0,0-5.05-3.39,19.54,19.54,0,0,0-6.44-1H138.39v53.07h-15V204.32h-8.87v44.41l-9.92-44.41H97.16L85.3,257.39h-13V239.21H87.58v-8.36H72.27V212.67H89.85v-8.35H79.68a14.19,14.19,0,0,0,6.6-3.8,14,14,0,0,0,4.18-10.18v-48H81.58v47.15A6.59,6.59,0,0,1,80,194.34a5.67,5.67,0,0,1-7.83,0,6.64,6.64,0,0,1-1.56-4.87V142.32H61.75V153a16.88,16.88,0,0,0-.87-2.69,14.55,14.55,0,0,0-3.4-4.78A15.66,15.66,0,0,0,42,142.75a14.83,14.83,0,0,0-4.74,2.79,13.84,13.84,0,0,0-2.59,3.12l2.16-6.34h-9.4l-7.13,24.62h-.17l-7.14-24.62H3.54l12.18,35.76v26.18H24.6V178.08l8-23.36a16.4,16.4,0,0,0-.14,2.21v32.72a15.62,15.62,0,0,0,1.3,6.7A13.46,13.46,0,0,0,37.21,201,14.15,14.15,0,0,0,42,203.83a15.54,15.54,0,0,0,10.7,0A15.06,15.06,0,0,0,57.48,201a14,14,0,0,0,3.4-4.61A16.37,16.37,0,0,0,62,192.73a13.48,13.48,0,0,0,.93,3.22,15.07,15.07,0,0,0,7.7,7.7,13.32,13.32,0,0,0,2,.67H63.4v61.94H92.2L94.81,253H106.9l2.61,13.31h37.76V242.08h4.53a16.45,16.45,0,0,0,8-1.7,13,13,0,0,0,4.87-4.74,15.15,15.15,0,0,0,.87-1.64v32.26h28.79L196.94,253H209l2.61,13.31h13.48V229h.18l13.57,37.23h8.35v-61h19.34L269.18,192h12.09l2.61,13.31h13.49V168h.17l13.58,37.23h8.35V143.7a15.58,15.58,0,0,0,3.78-.87,15,15,0,0,0,4.83-2.87,14,14,0,0,0,3.39-4.61,15.75,15.75,0,0,0,1.31-6.7V109.16H316.86V117h7v11.66a5.89,5.89,0,0,1-1.78,4.74,6.61,6.61,0,0,1-8.44,0,5.89,5.89,0,0,1-1.78-4.74V95.93a5.9,5.9,0,0,1,1.78-4.74,6.61,6.61,0,0,1,8.44,0,5.9,5.9,0,0,1,1.78,4.74ZM51.52,194.39a6.62,6.62,0,0,1-8.44,0,5.89,5.89,0,0,1-1.78-4.74V156.93a5.9,5.9,0,0,1,1.78-4.74,6.62,6.62,0,0,1,8.44,0,5.94,5.94,0,0,1,1.79,4.74v32.72A5.93,5.93,0,0,1,51.52,194.39ZM96.37,244.6l4.35-22.45h.18l4.35,22.45Zm62.34-17.06a8,8,0,0,1-.83,3.22,4.87,4.87,0,0,1-2.17,2.18,9,9,0,0,1-4.18.78h-4.26V212.67h4.61a8.24,8.24,0,0,1,4,.78,5,5,0,0,1,2.09,2.26,8.86,8.86,0,0,1,.78,3.44c.06,1.3.09,2.68.09,4.13S158.8,226.27,158.71,227.54Zm39.8,17.06,4.35-22.45H203l4.35,22.45Zm21-92.93h4.62a8.26,8.26,0,0,1,4,.78,5,5,0,0,1,2.08,2.27,8.86,8.86,0,0,1,.79,3.43c0,1.31.08,2.68.08,4.13s0,3-.13,4.27a7.87,7.87,0,0,1-.82,3.22,5,5,0,0,1-2.18,2.17,8.94,8.94,0,0,1-4.17.78H219.5Zm18.86,90h-.18l-13.4-37.32H219.5V181.08H224a16.41,16.41,0,0,0,8-1.7,12.89,12.89,0,0,0,4.87-4.74,15.15,15.15,0,0,0,.87-1.64v32.26h.59Zm32.39-58,4.35-22.45h.17l4.35,22.45Z"/><path class="cls-2" d="M139.72,81.26h8.88V55.08l8-23.36a16.4,16.4,0,0,0-.14,2.21V66.65a15.62,15.62,0,0,0,1.3,6.7A13.46,13.46,0,0,0,161.21,78,14.15,14.15,0,0,0,166,80.83c.54.19,1.09.35,1.65.49H142.86v8.35h10.26v53.59H162V89.67h5.91v53.59h8.87V116.81h5.31l8.26,26.45h11.23L204.19,130h12.09l2.61,13.31H233V81.32h-8.87V126.9L213.93,81.32h-7.39l-11,49.4L190.18,115a13.18,13.18,0,0,0,6-6.18,22.83,22.83,0,0,0,1.7-9.31q0-18.18-15.66-18.18H175c.55-.14,1.1-.3,1.64-.49A15.06,15.06,0,0,0,181.48,78a14,14,0,0,0,3.4-4.61A16.37,16.37,0,0,0,186,69.73a13.48,13.48,0,0,0,.93,3.22,15.07,15.07,0,0,0,7.7,7.7,13.44,13.44,0,0,0,5.52,1.13,13.67,13.67,0,0,0,5.57-1.13,14.65,14.65,0,0,0,4.61-3.13,14,14,0,0,0,4.18-10.18v-48h-8.88V66.47A6.59,6.59,0,0,1,204,71.34a5.67,5.67,0,0,1-7.83,0,6.64,6.64,0,0,1-1.56-4.87V19.32h-8.87V30a16.88,16.88,0,0,0-.87-2.69,14.55,14.55,0,0,0-3.4-4.78A15.66,15.66,0,0,0,166,19.75a14.83,14.83,0,0,0-4.74,2.79,13.84,13.84,0,0,0-2.59,3.12l2.16-6.34h-9.4l-7.13,24.62h-.17l-7.14-24.62h-9.4l12.18,35.76Zm70.39,17.89h.17l4.35,22.45h-8.87Zm-33.33-9.48h4.62c3.07,0,5.16.82,6.26,2.44a8.26,8.26,0,0,1,1,3.09,31.72,31.72,0,0,1,0,8.26,8.56,8.56,0,0,1-.95,3,5.07,5.07,0,0,1-2.18,1.87,8.88,8.88,0,0,1-3.74.65h-5.05Zm-9.7-60.48a6.62,6.62,0,0,1,8.44,0,5.94,5.94,0,0,1,1.79,4.74V66.65a5.93,5.93,0,0,1-1.79,4.74,6.62,6.62,0,0,1-8.44,0,5.89,5.89,0,0,1-1.78-4.74V33.93A5.9,5.9,0,0,1,167.08,29.19Z"/><path class="cls-2" d="M223.42,54.81h5.3L237,81.26h9.4L236.81,53a13.18,13.18,0,0,0,6-6.18,22.83,22.83,0,0,0,1.7-9.31q0-18.18-15.66-18.18H214.54V81.26h8.88Zm0-27.14H228c3.08,0,5.16.82,6.27,2.44a8.44,8.44,0,0,1,1,3.09,32.93,32.93,0,0,1,0,8.26,8.37,8.37,0,0,1-1,3,5.07,5.07,0,0,1-2.18,1.87,8.85,8.85,0,0,1-3.74.65h-5Z"/><path id="Path_433" data-name="Path 433" class="cls-3" d="M195.72,69.26V53.61l-7.28-21.37h5.61L198.32,47h.1l4.26-14.71h5.62L201,53.61V69.26ZM205.7,41a9.61,9.61,0,0,1,.78-3.95,8.4,8.4,0,0,1,2.08-2.86,8.73,8.73,0,0,1,2.84-1.66,9.27,9.27,0,0,1,6.4,0,9.41,9.41,0,0,1,2.88,1.66,8.59,8.59,0,0,1,2,2.86,9.45,9.45,0,0,1,.78,3.95V60.53a9.34,9.34,0,0,1-.78,4,8.38,8.38,0,0,1-2,2.76A8.71,8.71,0,0,1,217.79,69a9.27,9.27,0,0,1-6.4,0,8.29,8.29,0,0,1-2.83-1.71,8.06,8.06,0,0,1-2.08-2.76,9.49,9.49,0,0,1-.78-4ZM211,60.53a3.53,3.53,0,0,0,1.07,2.83,4,4,0,0,0,5.05,0,3.52,3.52,0,0,0,1.06-2.83V41a3.53,3.53,0,0,0-1.06-2.83,4,4,0,0,0-5.05,0A3.53,3.53,0,0,0,211,41Zm29.38-28.29v28.7A8.41,8.41,0,0,1,237.89,67a8.84,8.84,0,0,1-2.76,1.88,8.25,8.25,0,0,1-3.32.67,8.12,8.12,0,0,1-3.3-.67A8.85,8.85,0,0,1,225.78,67a9,9,0,0,1-1.88-2.73,8.4,8.4,0,0,1-.67-3.36V32.24h5.3V60.42a4,4,0,0,0,.93,2.91,3.38,3.38,0,0,0,4.68,0,4,4,0,0,0,.94-2.91V32.24Zm5.36,5V48.77h3a5.2,5.2,0,0,0,2.24-.39,3,3,0,0,0,1.3-1.12,5.09,5.09,0,0,0,.58-1.79,20.41,20.41,0,0,0,0-4.94,5.08,5.08,0,0,0-.63-1.85c-.66-1-1.9-1.45-3.74-1.45Zm-5.3,32v-37H249q9.36,0,9.36,10.87a13.76,13.76,0,0,1-1,5.56,7.86,7.86,0,0,1-3.56,3.69l5.72,16.9h-5.62l-4.94-15.81h-3.17V69.26Zm-36.71,37v-32h-6.14v-5h17.58v5H209v32Zm14.14-32V85.77h3a5.2,5.2,0,0,0,2.24-.39,3.07,3.07,0,0,0,1.3-1.12,4.88,4.88,0,0,0,.57-1.79,19.15,19.15,0,0,0,0-4.94,4.88,4.88,0,0,0-.62-1.85c-.66-1-1.91-1.45-3.74-1.45Zm-5.3,32v-37h8.52q9.36,0,9.36,10.87a13.58,13.58,0,0,1-1,5.56,7.86,7.86,0,0,1-3.56,3.69l5.72,16.9H226L221,90.45h-3.17v15.81Zm27.92-13-2.6-13.41h-.1l-2.61,13.41Zm-13.11,13,8.27-37h4.42l8.27,37H243l-1.56-8h-7.23l-1.56,8Zm18.77,0v-37h5.3v37Zm5.3,0v-37h5.1l8,22.31h.1V69.24H270v37h-5L256.87,84h-.1v22.25Zm18.52,0v-37h5.31v37Zm5.31,0v-37h5.1l8,22.31h.1V69.24h5.3v37h-5L280.68,84h-.1v22.25Zm18-28.29a9.61,9.61,0,0,1,.78-4,8.4,8.4,0,0,1,2.08-2.86A8.73,8.73,0,0,1,299,69.5a9.44,9.44,0,0,1,9.28,1.66,8.88,8.88,0,0,1,2,2.86,9.61,9.61,0,0,1,.78,4v1.88h-5.3V78a3.54,3.54,0,0,0-1.07-2.83,4,4,0,0,0-5,0A3.51,3.51,0,0,0,298.63,78V97.53a3.53,3.53,0,0,0,1.06,2.83,3.94,3.94,0,0,0,5.05,0,3.51,3.51,0,0,0,1.06-2.83v-7h-4.21V85.88h9.52V97.53a9.49,9.49,0,0,1-.78,4,8.24,8.24,0,0,1-2,2.75,9.12,9.12,0,0,1-2.89,1.72,9.27,9.27,0,0,1-6.4,0,8.31,8.31,0,0,1-2.83-1.72,7.81,7.81,0,0,1-2.08-2.75,9.34,9.34,0,0,1-.78-4ZM238.1,143.26v-37h8a11.94,11.94,0,0,1,3.85.57,7.32,7.32,0,0,1,3,2,7.86,7.86,0,0,1,1.87,3.4,21.37,21.37,0,0,1,.52,5.28,25.76,25.76,0,0,1-.29,4.21A8.68,8.68,0,0,1,253.8,125a7.7,7.7,0,0,1-2.91,2.84,9.88,9.88,0,0,1-4.78,1h-2.7v14.45Zm5.3-32v12.58H246a5.4,5.4,0,0,0,2.5-.46,3,3,0,0,0,1.3-1.3,5,5,0,0,0,.49-1.93c0-.76.08-1.61.08-2.55s0-1.69,0-2.47a5.43,5.43,0,0,0-.47-2,2.92,2.92,0,0,0-1.25-1.35,5,5,0,0,0-2.39-.47Zm10.92,32v-37h5.3V138h10.5v5.3Zm25-12.95-2.6-13.41h-.1L274,130.31Zm-13.1,12.95,8.27-37h4.42l8.26,37h-5.3l-1.56-7.95h-7.23l-1.56,7.95Zm18.41,0v-37h5.1l8,22.31h.1V106.24h5.3v37h-5L290,121h-.1v22.25Z"/><path id="Path_432" data-name="Path 432" class="cls-3" d="M47.72,195.26V179.61l-7.28-21.37h5.61L50.32,173h.1l4.26-14.71H60.3L53,179.61v15.65ZM57.7,167a9.61,9.61,0,0,1,.78-3.95,8.4,8.4,0,0,1,2.08-2.86,8.73,8.73,0,0,1,2.84-1.66,9.27,9.27,0,0,1,6.4,0,9.41,9.41,0,0,1,2.88,1.66,8.59,8.59,0,0,1,2,2.86,9.45,9.45,0,0,1,.78,3.95v19.56a9.34,9.34,0,0,1-.78,4,8.38,8.38,0,0,1-2,2.76A8.71,8.71,0,0,1,69.79,195a9.27,9.27,0,0,1-6.4,0,8.29,8.29,0,0,1-2.83-1.71,8.06,8.06,0,0,1-2.08-2.76,9.49,9.49,0,0,1-.78-4ZM63,186.53a3.53,3.53,0,0,0,1.07,2.83,4,4,0,0,0,5.05,0,3.52,3.52,0,0,0,1.06-2.83V167a3.53,3.53,0,0,0-1.06-2.83,4,4,0,0,0-5.05,0A3.53,3.53,0,0,0,63,167Zm29.38-28.29v28.7A8.41,8.41,0,0,1,89.89,193a8.84,8.84,0,0,1-2.76,1.88,8.25,8.25,0,0,1-3.32.67,8.12,8.12,0,0,1-3.3-.67A8.85,8.85,0,0,1,77.78,193a9,9,0,0,1-1.88-2.73,8.4,8.4,0,0,1-.67-3.36v-28.7h5.3v28.18a4,4,0,0,0,.93,2.91,3.38,3.38,0,0,0,4.68,0,4,4,0,0,0,.94-2.91V158.24Zm5.36,5v11.54h3a5.2,5.2,0,0,0,2.24-.39,3,3,0,0,0,1.3-1.12,5.09,5.09,0,0,0,.58-1.79,20.41,20.41,0,0,0,0-4.94,5.08,5.08,0,0,0-.63-1.85c-.66-1-1.9-1.45-3.74-1.45Zm-5.3,32v-37H101q9.36,0,9.36,10.87a13.76,13.76,0,0,1-1,5.56,7.86,7.86,0,0,1-3.56,3.69l5.72,16.9h-5.62l-4.94-15.81H97.74v15.81Zm-40.2,37v-37h5.1l6.81,19.6h.1L71,195.24h5.15v37h-5.3V209.75h-.1L65.5,225.66H62.85l-5.2-15.91h-.1v22.51Zm24,0v-37H92v5H81.52V211.1h9.15v5H81.52V227H92v5.3Zm25-12.95-2.6-13.41h-.1l-2.6,13.41ZM88.12,232.26l8.27-37h4.42l8.27,37h-5.3l-1.56-7.95H95l-1.55,7.95Zm18.62,0v-37H112V227h10.5v5.3Zm14.3,0v-37h8a11.94,11.94,0,0,1,3.85.57,7.32,7.32,0,0,1,3,2,7.86,7.86,0,0,1,1.87,3.4,21.37,21.37,0,0,1,.52,5.28,25.76,25.76,0,0,1-.29,4.21,8.68,8.68,0,0,1-1.22,3.23,7.7,7.7,0,0,1-2.91,2.84,9.88,9.88,0,0,1-4.78,1h-2.7v14.45Zm5.3-32v12.58h2.55a5.4,5.4,0,0,0,2.5-.46,3,3,0,0,0,1.3-1.3,4.79,4.79,0,0,0,.49-1.93c0-.76.08-1.61.08-2.55s0-1.69,0-2.47a5.43,5.43,0,0,0-.47-2,2.92,2.92,0,0,0-1.25-1.35,4.92,4.92,0,0,0-2.39-.47Zm10.92,32v-37h5.3V227h10.5v5.3Zm25-12.95-2.6-13.41h-.1L157,219.31Zm-13.1,12.95,8.27-37h4.42l8.27,37h-5.3l-1.56-7.95H156l-1.57,7.95Zm18.41,0v-37h5.1l8,22.31h.1V195.24h5.3v37h-5L173,210h-.1v22.25Z"/></svg>