<svg xmlns="http://www.w3.org/2000/svg" xmlns:xlink="http://www.w3.org/1999/xlink" width="583" height="401" viewBox="0 0 583 401">
  <defs>
    <clipPath id="clip-fitness-booking">
      <rect width="583" height="401"/>
    </clipPath>
  </defs>
  <g id="fitness-booking" clip-path="url(#clip-fitness-booking)">
    <g id="Group_480" data-name="Group 480" transform="translate(-670.281 -2365.767)">
      <g id="Group_352" data-name="Group 352" transform="translate(560.281 112.728)">
        <g id="Group_170" data-name="Group 170" transform="translate(110 2253.039)">
          <path id="Path_109" data-name="Path 109" d="M361.008,429.681c-42.757,16.451-128.355,18.189-188.836,4.409s-134.4-73.854-137.09-118.5,38.977-72.751,58.465-109.128,1.345-42.438-.672-70,44.353-94.246,120.29-93.7S347.567,73.64,398.64,59.311s92.066-22.6,112.9,10.471-10.08,70.547,20.832,94.8,93.41,80.468,84,124.56S543.8,371.261,498.1,368.5,396.332,416.091,361.008,429.681Z" transform="translate(-34.958 -42.773)" fill="#e4c0cf"/>
          <path id="Path_110" data-name="Path 110" d="M326.521,413s-173.345-.521-220.02-33.177-49.22-104.334,0-135.666,83.874-73.091,99.216-103.055,17.713-72.817,55.518-69.991,62.468,63.627,133.388,44.386,109.119-27.252,126.9,30.078,59.086,108.595,16.3,137.939-74.721,14.687-103.538,52.6S374.024,417.237,326.521,413Z" transform="translate(-32.544 -40.859)" fill="#efdbe4" opacity="0.999"/>
        </g>
      </g>
      <g id="Group_393" data-name="Group 393" transform="translate(3575.075 1891.933)">
        <path id="Path_322" data-name="Path 322" d="M-2215.774,758.563S-2236.9,800.827-2258.361,830c-8.539,11.611-17.13,21.148-24.463,25.125-7.178,3.892-13.255,9.939-18.283,16.64-13.022,17.349-19.032,39.071-19.032,39.071l-54.875-83.02s1.873-81.153,8.461-94.728c9.6-19.782,14.242-59.752,17.931-67.709,2.737-5.9,10.553-36.4,11.3-38.636.325-.966,2.926-2.446,6.3-2.444,2.71,0,7.312,2.619,8.472,8,5.869,27.208-1.195,45.155-1.115,45.953,2.07,20.91-4.154,36.432.21,40.543.163.152.464.08.891-.192,7.565-4.857,54.518-73.31,60.3-74.788C-2256.149,642.261-2215.774,758.563-2215.774,758.563Z" transform="translate(-347.368 -106.563)" fill="#eea886"/>
        <path id="Path_323" data-name="Path 323" d="M-2554.012,1506.773s2.673,50.886.533,100.575H-2691.9c31.64-67.471,81.4-179.348,81.4-179.348S-2557.356,1471.5-2554.012,1506.773Z" transform="translate(-100.407 -732.923)" fill="#eea886"/>
        <path id="Path_324" data-name="Path 324" d="M-1629.021,514.024l-16.994,24.912-16.675,24.448a3.817,3.817,0,0,1-3.467,1.531c-4-.38-8.952-6.151-12.811-9.347l-.391-.321a12.037,12.037,0,0,1-1.6-16.9l25.488-30.81v0l7.559-9.137a12.037,12.037,0,0,1,16.9-1.6l.391.321A12.041,12.041,0,0,1-1629.021,514.024Z" transform="translate(-886.143 -5.058)" fill="#eea886"/>
        <path id="Path_325" data-name="Path 325" d="M-1584.058,586.542l-16.675,24.448a3.817,3.817,0,0,1-3.467,1.531l10.688-57.378C-1593.489,555.464-1591.672,581.209-1584.058,586.542Z" transform="translate(-948.101 -52.665)" fill="#d3957d"/>
        <path id="Path_326" data-name="Path 326" d="M-2085.194,1538.5c-8.539,11.611-17.13,21.148-24.464,25.125-7.178,3.892-13.255,9.939-18.283,16.64-5.783-2.7-12.376-5.859-18.82-8.991a10.733,10.733,0,0,1-.462-19.085c.075-.04.148-.081.22-.122,7.2-4.122,14.583-18.673,14.583-18.673Z" transform="translate(-520.535 -815.061)" fill="#d3957d"/>
        <path id="Path_327" data-name="Path 327" d="M-2221.622,641.1l-4.446,17.951s3.887,1.59,6.383.355S-2215.152,642.063-2221.622,641.1Z" transform="translate(-463.45 -119.652)" fill="#ffc197"/>
        <g id="Group_370" data-name="Group 370" transform="translate(-2669.913 487.567)">
          <rect id="Rectangle_124" data-name="Rectangle 124" width="129.807" height="244.353" rx="16" transform="translate(0 0)" fill="#232323"/>
          <g id="Group_369" data-name="Group 369" transform="translate(6.435 6.057)">
            <path id="Path_328" data-name="Path 328" d="M-1991.12,527.677V732.961a12.652,12.652,0,0,1-12.569,12.661h-91.8a12.651,12.651,0,0,1-12.566-12.661V527.677a12.651,12.651,0,0,1,12.566-12.661h91.8A12.652,12.652,0,0,1-1991.12,527.677Z" transform="translate(2108.059 -515.016)" fill="#f2f2f2"/>
            <path id="Path_329" data-name="Path 329" d="M-2003.688,515.016l-90.668,230.606h-1.136a12.651,12.651,0,0,1-12.566-12.661V527.677a12.651,12.651,0,0,1,12.566-12.661Z" transform="translate(2108.059 -515.016)" fill="#eaeaea"/>
          </g>
          <path id="Rectangle_125" data-name="Rectangle 125" d="M6.129,0H43.605a6.129,6.129,0,0,1,6.129,6.129v0a6.129,6.129,0,0,1-6.129,6.129H6.129A6.129,6.129,0,0,1,0,6.13v0A6.129,6.129,0,0,1,6.129,0Z" transform="translate(40.037 1.432)" fill="#232323"/>
        </g>
        <g id="Group_371" data-name="Group 371" transform="translate(-2559.172 579.935)">
          <path id="Path_330" data-name="Path 330" d="M-1599.794,929.286l-2.534.963-17.041,6.476a10.837,10.837,0,0,1-1.208.383A11.64,11.64,0,0,1-1634.34,930l-.25-.654a11.641,11.641,0,0,1,6.727-14.973l15.887-6.036,1.154-.439,2.534-.963a11.637,11.637,0,0,1,14.97,6.727l.25.654A11.64,11.64,0,0,1-1599.794,929.286Z" transform="translate(1635.343 -906.179)" fill="#eea886"/>
          <path id="Path_331" data-name="Path 331" d="M-1597.31,963.2c-2.844,1.078-7.993,2.99-10.746,3.386a4.537,4.537,0,0,1-3.554-1.779,10.5,10.5,0,0,1-2.143-3.865,12.306,12.306,0,0,1-.583-2.467,10.4,10.4,0,0,1,.094-2.934,2.928,2.928,0,0,1,1.626-2.093s.01,0,.013-.006a67.209,67.209,0,0,1,10.335-4.052,4.49,4.49,0,0,1,5.569,2.489l.358.978,1.828,5.009A4.291,4.291,0,0,1-1597.31,963.2Z" transform="translate(1619.02 -939.702)" fill="#ffd3b6"/>
          <path id="Path_332" data-name="Path 332" d="M-1591.148,973.1c-2.844,1.078-7.993,2.99-10.746,3.386a4.538,4.538,0,0,1-3.554-1.779c-.143-.333-.274-.685-.4-1.062a12.3,12.3,0,0,1-.583-2.467,10.427,10.427,0,0,1,.094-2.934,2.929,2.929,0,0,1,1.626-2.093s.009,0,.013-.006a67.185,67.185,0,0,1,10.335-4.052,4.9,4.9,0,0,1,4.183.663l1.829,5.009A4.291,4.291,0,0,1-1591.148,973.1Z" transform="translate(1612.858 -949.601)" fill="#ffc197"/>
        </g>
        <g id="Group_372" data-name="Group 372" transform="translate(-2554.403 610.729)">
          <path id="Path_333" data-name="Path 333" d="M-1590.682,1062.009l-13.141,3.578a7.546,7.546,0,0,1-9.237-5.284l-.405-1.488a7.547,7.547,0,0,1,5.284-9.237l13.141-3.578a7.546,7.546,0,0,1,9.237,5.284l.405,1.488A7.546,7.546,0,0,1-1590.682,1062.009Z" transform="translate(1613.729 -1045.738)" fill="#eea886"/>
          <path id="Path_334" data-name="Path 334" d="M-1589.58,1077.709a59.291,59.291,0,0,1-9.064,1.906c-.832.047-2.5-.657-3.585-2.844a8.844,8.844,0,0,1-.673-1.854,8.757,8.757,0,0,1-.293-1.931,7.517,7.517,0,0,1,.293-2.249,2.328,2.328,0,0,1,1.486-1.5c.006,0,.009,0,.013-.006a58.713,58.713,0,0,1,8.777-2.448,3.719,3.719,0,0,1,4.386,2.271l.339,1.184,1.012,3.554A3.333,3.333,0,0,1-1589.58,1077.709Z" transform="translate(1605.52 -1062.082)" fill="#ffd3b6"/>
          <path id="Path_335" data-name="Path 335" d="M-1587.1,1084.682a59.292,59.292,0,0,1-9.064,1.906c-.832.047-2.5-.657-3.585-2.844a8.371,8.371,0,0,1-.265-1.813,7.544,7.544,0,0,1,.293-2.249,2.335,2.335,0,0,1,1.486-1.5c.006,0,.01,0,.013-.006a58.363,58.363,0,0,1,8.778-2.445,3.968,3.968,0,0,1,4.024,1.48l1.012,3.554A3.333,3.333,0,0,1-1587.1,1084.682Z" transform="translate(1603.045 -1069.056)" fill="#ffc197"/>
        </g>
        <g id="Group_373" data-name="Group 373" transform="translate(-2560.455 548.872)">
          <path id="Path_336" data-name="Path 336" d="M-1604.741,794.384c-.094.034-.187.066-.284.1l-17.228,4.423c-7.575,1.947-15.409-2.152-17.409-9.108l-1.025-3.564c-1.922-6.678,2.208-13.662,9.248-15.926l5.688-1.461,11.541-2.962c7.575-1.947,15.409,2.153,17.409,9.108l1.025,3.563C-1593.883,785.142-1597.876,792.023-1604.741,794.384Z" transform="translate(1641.158 -765.398)" fill="#eea886"/>
          <path id="Path_337" data-name="Path 337" d="M-1568.984,813.276l-8.37,3.772-.053.013a9.058,9.058,0,0,1-1.012.209c-.14.022-.283.037-.424.053a1.091,1.091,0,0,1-.177,0,1.331,1.331,0,0,1-1.156-1.881,8.325,8.325,0,0,0,.474-5.675l-.2-.729a.059.059,0,0,0-.006-.022l-.648-2.376a8.913,8.913,0,0,0-3.034-4.626c-.171-.14-.349-.271-.529-.4a2.4,2.4,0,0,1,.7-4.28l.053-.016,9.185-1.389c2.271-.617,4.458,1.131,5.078,3.4l.738,2.707,1.57,5.772C-1566.175,810.089-1566.713,812.659-1568.984,813.276Z" transform="translate(1597.506 -789.1)" fill="#ffd3b6"/>
          <path id="Path_338" data-name="Path 338" d="M-1563.485,826.477l-8.37,3.772-.053.013c-.2.037-.81.14-1.614.265a1.331,1.331,0,0,1-1.156-1.881,8.324,8.324,0,0,0,.474-5.675l-.2-.729a.06.06,0,0,0-.006-.022l-.648-2.376a8.913,8.913,0,0,0-3.034-4.626,2.335,2.335,0,0,1,1.318-.937c.016-.006.034-.009.053-.016l9.186-1.389a4.177,4.177,0,0,1,4.672,2.37l1.57,5.772C-1560.676,823.291-1561.214,825.861-1563.485,826.477Z" transform="translate(1592.007 -802.301)" fill="#ffc197"/>
        </g>
        <path id="Path_339" data-name="Path 339" d="M-2176.858,964.6s-3.759-32.81-7.226-39.207-6.4-19.211-1.067-28.731,7.178-27.84,7.178-27.84c2.07,20.91-4.154,36.432.211,40.543.163.152.464.08.891-.192Z" transform="translate(-493.056 -297.133)" fill="#d3957d"/>
        <rect id="Rectangle_126" data-name="Rectangle 126" width="146.939" height="68.687" rx="10" transform="translate(-2724.699 545.347)" fill="#232323"/>
        <g id="Group_374" data-name="Group 374" transform="translate(-2643.004 513.232)">
          <rect id="Rectangle_127" data-name="Rectangle 127" width="64.817" height="23.416" rx="5" transform="translate(0 0)" fill="#232323"/>
        </g>
        <g id="Group_375" data-name="Group 375" transform="translate(-2654.411 679.443)">
          <rect id="Rectangle_128" data-name="Rectangle 128" width="75.339" height="28.889" rx="5" transform="translate(0 0)" fill="#232323"/>
        </g>
        <g id="Group_376" data-name="Group 376" transform="translate(-2629.89 626.005)">
          <rect id="Rectangle_129" data-name="Rectangle 129" width="75.339" height="41.467" rx="10" transform="translate(0 0)" fill="#e4c0cf"/>
        </g>
        <path id="Path_340" data-name="Path 340" d="M-1534.955,1390.634h-101.514c-4.867-3.263-30.148-20.507-40.609-33.363-2.215-2.725-10.324-26.2-16.556-45.265-3.89-11.906-7.05-22.1-7.584-24.433a30.453,30.453,0,0,1-.384-4.612v-.022c-.265-7.8.1-22.829.47-34.77l0-.055.007-.157c.018-.525.033-1.042.051-1.553v-.018c0-.051,0-.1,0-.154.068-2.074.135-4.029.2-5.808.157-4.444.289-7.787.344-9.1l.022-.609,0,0c.161-.091,5.044-2.7,11.571,2.006,1.575,1.136,3.032,3.881,4.36,7.462.85,2.286,1.646,4.912,2.387,7.679,2.851,10.642,4.9,23.365,5.989,26.772,1.761,5.505,22.515,29.715,23.813,31.22.02.027.042.051.062.075V1267.7l-15.669-41.924-6.432-17.211-3.232-8.65a155.932,155.932,0,0,1-9.117-17.932,84.639,84.639,0,0,1-4.521-13.259c-.247-1.042-.457-2.072-.625-3.081v0a22.36,22.36,0,0,1,.2-9.916c1.516-4.971,4.932-5.907,7.555-5.805.271.009.534.033.788.062a5.418,5.418,0,0,1,.754.146,5.262,5.262,0,0,1,1.3.543s0,0,.007,0a5.284,5.284,0,0,1,1.7,1.593s2.215,2.893,5.187,6.781c1.955,2.56,4.239,5.55,6.432,8.431,3.906,5.135,7.533,9.925,8.531,11.328,5.391,7.588,19.905,32.317,19.905,32.317l16.99.713a11.269,11.269,0,0,1,7.222,3.023c6.042,5.642,19.067,17.851,20.665,19.667,0,.6,10.122,5.462,17.941,9.8,5.593,2.363,16.218,10.739,16.218,10.739a18.741,18.741,0,0,1,4.729,5.728c3.643,7.928,13.524,76.88,18.248,110.966C-1536.019,1382.712-1535.032,1390.067-1534.955,1390.634Z" transform="translate(-872.12 -516.194)" fill="#eea886"/>
        <path id="Path_341" data-name="Path 341" d="M-1420.067,1427.317s15.74,25.693,17.823,26.851,10.185,2.778,11.111,0S-1420.067,1427.317-1420.067,1427.317Z" transform="translate(-1091.604 -732.391)" fill="#d3957d"/>
        <path id="Path_342" data-name="Path 342" d="M-1181.752,1554.8l-.079-.071s-10.625-8.376-16.218-10.739c-7.179-3.98-16.3-8.408-17.743-9.567,1.667,1.905,13.389,15.171,17.9,16.165C-1193.932,1551.463-1184.936,1553.924-1181.752,1554.8Z" transform="translate(-1250.804 -815.865)" fill="#d3957d"/>
        <path id="Path_343" data-name="Path 343" d="M-1477.93,1721.962v-38.234s9.083,15.194,9.777,23.526S-1471.926,1729.075-1477.93,1721.962Z" transform="translate(-1046.509 -932.224)" fill="#d3957d"/>
        <path id="Path_344" data-name="Path 344" d="M-1643.7,1165.221a68.708,68.708,0,0,1-4.524-8.716,4.361,4.361,0,0,1,.6-3.352,7.56,7.56,0,0,1,2.383-2.474,7.9,7.9,0,0,1,1.673-.9,6.5,6.5,0,0,1,2.141-.4,2.272,2.272,0,0,1,1.828,1.063s0,.008.007.01a66.544,66.544,0,0,1,4.927,8.254c.94,1.955.643,4.213-.726,5.2l-.638.467-3.271,2.388C-1640.662,1167.758-1642.621,1167.083-1643.7,1165.221Z" transform="translate(-913.69 -515.784)" fill="#ffd3b6"/>
        <path id="Path_345" data-name="Path 345" d="M-1643.7,1172.137a68.7,68.7,0,0,1-4.524-8.716,4.361,4.361,0,0,1,.6-3.352c.213-.178.443-.347.691-.516a7.905,7.905,0,0,1,1.672-.9,6.493,6.493,0,0,1,2.141-.395,2.271,2.271,0,0,1,1.828,1.063s0,.008.007.01a66.545,66.545,0,0,1,4.927,8.254,5.023,5.023,0,0,1,.328,3.714l-3.271,2.388C-1640.662,1174.674-1642.621,1174-1643.7,1172.137Z" transform="translate(-913.69 -522.699)" fill="#ffc197"/>
        <g id="Group_377" data-name="Group 377" transform="translate(-2500.202 513.556)">
          <rect id="Rectangle_130" data-name="Rectangle 130" width="72.174" height="37.885" rx="10" transform="translate(0 0)" fill="#232323"/>
          <path id="Path_346" data-name="Path 346" d="M-1324.745,655.736h33.338c.454,0,.826-.741.826-1.646h0c0-.905-.372-1.646-.826-1.646h-33.338c-.454,0-.826.741-.826,1.646h0C-1325.571,655-1325.2,655.736-1324.745,655.736Z" transform="translate(1334.953 -642.052)" fill="#e4c0cf"/>
          <path id="Path_347" data-name="Path 347" d="M-1324.308,722.523h51a1.5,1.5,0,0,0,1.263-1.646h0a1.5,1.5,0,0,0-1.263-1.646h-51a1.5,1.5,0,0,0-1.263,1.646h0A1.5,1.5,0,0,0-1324.308,722.523Z" transform="translate(1334.953 -694.102)" fill="#e4c0cf"/>
        </g>
        <g id="Group_378" data-name="Group 378" transform="translate(-2820.732 650.11)">
          <path id="Path_348" data-name="Path 348" d="M-2810.95,1224.209h63.75a9.267,9.267,0,0,1,9.24,9.24v27.968a8.512,8.512,0,0,1-8.487,8.487h-1.637l3.072,12.973L-2764.3,1269.9h-47.2a9.259,9.259,0,0,1-9.232-9.232v-26.681A9.811,9.811,0,0,1-2810.95,1224.209Z" transform="translate(2820.732 -1224.209)" fill="#232323"/>
          <g id="Group_454" data-name="Group 454">
            <path id="Path_349" data-name="Path 349" d="M-2789.966,1304.584h66.472a1.651,1.651,0,0,0,1.646-1.646h0a1.651,1.651,0,0,0-1.646-1.646h-66.472a1.651,1.651,0,0,0-1.646,1.646h0A1.651,1.651,0,0,0-2789.966,1304.584Z" transform="translate(2798.037 -1284.283)" fill="#e4c0cf"/>
            <path id="Path_350" data-name="Path 350" d="M-2789.966,1337.978h66.472a1.651,1.651,0,0,0,1.646-1.646h0a1.651,1.651,0,0,0-1.646-1.646h-66.472a1.651,1.651,0,0,0-1.646,1.646h0A1.651,1.651,0,0,0-2789.966,1337.978Z" transform="translate(2798.037 -1310.309)" fill="#e4c0cf"/>
            <path id="Path_351" data-name="Path 351" d="M-2789.966,1371.371h66.472a1.651,1.651,0,0,0,1.646-1.646h0a1.651,1.651,0,0,0-1.646-1.646h-66.472a1.651,1.651,0,0,0-1.646,1.646h0A1.651,1.651,0,0,0-2789.966,1371.371Z" transform="translate(2798.037 -1336.333)" fill="#e4c0cf"/>
            <path id="Path_352" data-name="Path 352" d="M-2626.949,1250.5h28.219a1.965,1.965,0,0,0,1.959-1.96h0a1.965,1.965,0,0,0-1.959-1.959h-28.219a1.965,1.965,0,0,0-1.959,1.959h0A1.965,1.965,0,0,0-2626.949,1250.5Z" transform="translate(2671.235 -1241.647)" fill="#e4c0cf"/>
            <path id="Rectangle_131" data-name="Rectangle 131" d="M1.96,0H18.118a1.96,1.96,0,0,1,1.96,1.96v0a1.96,1.96,0,0,1-1.96,1.96H1.96A1.96,1.96,0,0,1,0,1.96v0A1.96,1.96,0,0,1,1.96,0Z" transform="translate(38.564 8.856) rotate(180)" fill="#e4c0cf"/>
          </g>
        </g>
        <g id="Group_379" data-name="Group 379" transform="translate(-2514.9 644.608)">
          <path id="Path_353" data-name="Path 353" d="M-1324.7,1252.114l40.1,13.109-24.018-23.409-2.438,5.719-10.321.05Z" transform="translate(1348.976 -1232.428)" fill="#707070"/>
          <path id="Path_354" data-name="Path 354" d="M-1370.334,1237.469l-31.119-23.673-33.248-7.594Z" transform="translate(1434.701 -1204.674)" fill="#232323"/>
          <path id="Path_355" data-name="Path 355" d="M-1251.839,1208.663l24.018,23.41-16.01-32.8Z" transform="translate(1292.188 -1199.277)" fill="#232323"/>
        </g>
        <g id="Group_380" data-name="Group 380" transform="translate(-2764.547 493.772)">
          <path id="Path_356" data-name="Path 356" d="M-2528.623,570.535l-37.479,5.346,24.871-16.952,1.265,5.434,9.114,1.651Z" transform="translate(2566.101 -549.387)" fill="#707070"/>
          <path id="Path_357" data-name="Path 357" d="M-2566.1,573.53l31.188-16.08,30.567-1.538Z" transform="translate(2566.101 -547.036)" fill="#232323"/>
          <path id="Path_358" data-name="Path 358" d="M-2541.23,525.227l-24.871,16.952,19.253-26.494Z" transform="translate(2566.101 -515.685)" fill="#232323"/>
        </g>
        <path id="Path_359" data-name="Path 359" d="M-2279.976,818.126a21.184,21.184,0,0,1-4.42,12.988,21.345,21.345,0,0,1-3.111,3.258,21.194,21.194,0,0,1-13.76,5.045,21.176,21.176,0,0,1-12.717-4.215,21.294,21.294,0,0,1-4.155-4.088,21.187,21.187,0,0,1-4.419-12.988,21.29,21.29,0,0,1,21.291-21.291A21.29,21.29,0,0,1-2279.976,818.126Z" transform="translate(-388.25 -241.027)" fill="#fff"/>
        <path id="Path_360" data-name="Path 360" d="M-2255.329,860.306c-.057-.064-.112-.124-.166-.179a2.968,2.968,0,0,0-1.474-.474c-.5-.084-1.2-.183-2.182-.311,0,0-.212-.024-.325-.033l-.247-.022c-.282-.148-.355-1.32-.353-2.555,0-.093,0-.185,0-.278,0-.468.02-.929.038-1.344,0-.027,0-.051,0-.077.609.051,1.013.046,1.013.046,1.135-.091,1.843-3.131,2.1-5.589a8.29,8.29,0,0,0,.56-2.807,3.626,3.626,0,0,0-.728-2.346,3.127,3.127,0,0,0-.8-.715c-.071-.071-.143-.135-.214-.2-1.055-1.172-5.344-5.563-8.159-3.023-.073-.254-.989-3.1-5.428-2.171.276-.029,2.244-.214,2.813.583-.077-.033-1.8-.8-2.879-.13a2.619,2.619,0,0,0-.989,1.6s0,.009,0,.013,0,.007,0,.011v0a.066.066,0,0,0,0,.02c-.02.09-.042.181-.062.271,0,.013-.007.026-.009.042s0,.007,0,.011v0a4.625,4.625,0,0,0-.053,1.681c.166.695,1.39,2.765,2.2,2.765a2.424,2.424,0,0,0,.927-.227,10.307,10.307,0,0,0-.331,1.2c-.863,4.058,1.833,7.14,3.23,6.377.9-.488,1.573,1.079,1.573,1.079l0-.007c-.132,2.968-.947,4.905-1.551,5.388-.216.024-.684.082-1.269.174v0a14.73,14.73,0,0,0-3.625.907.256.256,0,0,0-.037.015,3.739,3.739,0,0,0-.889.494s0,.007-.007.007v0a1.3,1.3,0,0,0-.287.3.709.709,0,0,0-.093.135,24.353,24.353,0,0,0-1.556,4.252,17.965,17.965,0,0,0,10.786,3.575,17.975,17.975,0,0,0,11.67-4.278A11.3,11.3,0,0,0-2255.329,860.306Z" transform="translate(-425.634 -273.143)" fill="#e4c0cf"/>
        <g id="Group_453" data-name="Group 453">
          <rect id="Rectangle_132" data-name="Rectangle 132" width="27.235" height="3.777" rx="1.888" transform="translate(-2655.172 562.597)" fill="#e4c0cf"/>
          <g id="Group_381" data-name="Group 381" transform="translate(-2655.172 577.486)">
            <path id="Path_361" data-name="Path 361" d="M-2044.41,897.542h-24.772a1.235,1.235,0,0,1-1.231-1.231h0a1.235,1.235,0,0,1,1.231-1.231h24.772a1.235,1.235,0,0,1,1.231,1.231h0A1.235,1.235,0,0,1-2044.41,897.542Z" transform="translate(2070.414 -895.08)" fill="#e4c0cf"/>
            <rect id="Rectangle_133" data-name="Rectangle 133" width="15.98" height="2.462" rx="1.231" transform="translate(0 5.827)" fill="#e4c0cf"/>
            <rect id="Rectangle_134" data-name="Rectangle 134" width="25.14" height="2.462" rx="1.231" transform="translate(19.804 5.827)" fill="#e4c0cf"/>
            <path id="Path_362" data-name="Path 362" d="M-1894.726,897.542h-32.482a1.235,1.235,0,0,1-1.231-1.231h0a1.235,1.235,0,0,1,1.231-1.231h32.482a1.235,1.235,0,0,1,1.231,1.231h0A1.235,1.235,0,0,1-1894.726,897.542Z" transform="translate(1959.766 -895.08)" fill="#e4c0cf"/>
            <path id="Path_363" data-name="Path 363" d="M-2044.41,950.356h-24.772a1.235,1.235,0,0,1-1.231-1.231h0a1.235,1.235,0,0,1,1.231-1.231h24.772a1.235,1.235,0,0,1,1.231,1.231h0A1.235,1.235,0,0,1-2044.41,950.356Z" transform="translate(2070.414 -936.24)" fill="#e4c0cf"/>
            <path id="Path_364" data-name="Path 364" d="M-1894.726,950.356h-32.482a1.235,1.235,0,0,1-1.231-1.231h0a1.235,1.235,0,0,1,1.231-1.231h32.482a1.235,1.235,0,0,1,1.231,1.231h0A1.235,1.235,0,0,1-1894.726,950.356Z" transform="translate(1959.766 -936.24)" fill="#e4c0cf"/>
          </g>
          <path id="Rectangle_135" data-name="Rectangle 135" d="M1.888,0H18.094a1.888,1.888,0,0,1,1.888,1.888v0a1.888,1.888,0,0,1-1.888,1.888H1.888A1.888,1.888,0,0,1,0,1.889v0A1.888,1.888,0,0,1,1.888,0Z" transform="translate(-2624.564 562.597)" fill="#e4c0cf"/>
        </g>
        <g id="Group_383" data-name="Group 383" transform="translate(-2646.067 684.966)">
          <path id="Rectangle_136" data-name="Rectangle 136" d="M1.342,0H18.02a1.342,1.342,0,0,1,1.342,1.342v0A1.343,1.343,0,0,1,18.02,2.685H1.342A1.342,1.342,0,0,1,0,1.342v0A1.342,1.342,0,0,1,1.342,0Z" transform="translate(0)" fill="#e4c0cf"/>
          <g id="Group_382" data-name="Group 382" transform="translate(0 7.809)">
            <path id="Path_365" data-name="Path 365" d="M-2010.664,1419.315h-17.612a.878.878,0,0,1-.875-.875h0a.878.878,0,0,1,.875-.875h17.612a.878.878,0,0,1,.875.875h0A.878.878,0,0,1-2010.664,1419.315Z" transform="translate(2029.151 -1417.565)" fill="#e4c0cf"/>
            <path id="Rectangle_137" data-name="Rectangle 137" d="M.875,0h9.611a.875.875,0,0,1,.875.875v0a.875.875,0,0,1-.875.875H.875A.875.875,0,0,1,0,.875v0A.875.875,0,0,1,.875,0Z" transform="translate(0 4.143)" fill="#e4c0cf"/>
            <path id="Rectangle_138" data-name="Rectangle 138" d="M.875,0H17a.875.875,0,0,1,.875.875v0A.875.875,0,0,1,17,1.75H.875A.875.875,0,0,1,0,.875v0A.875.875,0,0,1,.875,0Z" transform="translate(14.08 4.143)" fill="#e4c0cf"/>
            <path id="Path_366" data-name="Path 366" d="M-1904.245,1419.315h-23.093a.878.878,0,0,1-.875-.875h0a.878.878,0,0,1,.875-.875h23.093a.878.878,0,0,1,.875.875h0A.878.878,0,0,1-1904.245,1419.315Z" transform="translate(1950.485 -1417.565)" fill="#e4c0cf"/>
            <path id="Path_367" data-name="Path 367" d="M-2010.664,1456.863h-17.612a.878.878,0,0,1-.875-.875h0a.878.878,0,0,1,.875-.875h17.612a.878.878,0,0,1,.875.875h0A.878.878,0,0,1-2010.664,1456.863Z" transform="translate(2029.151 -1446.827)" fill="#e4c0cf"/>
            <path id="Path_368" data-name="Path 368" d="M-1904.245,1456.863h-23.093a.878.878,0,0,1-.875-.875h0a.878.878,0,0,1,.875-.875h23.093a.878.878,0,0,1,.875.875h0A.878.878,0,0,1-1904.245,1456.863Z" transform="translate(1950.485 -1446.827)" fill="#e4c0cf"/>
          </g>
          <path id="Rectangle_139" data-name="Rectangle 139" d="M1.342,0H12.864a1.342,1.342,0,0,1,1.342,1.342v0a1.342,1.342,0,0,1-1.342,1.342H1.342A1.342,1.342,0,0,1,0,1.343v0A1.342,1.342,0,0,1,1.342,0Z" transform="translate(21.761)" fill="#e4c0cf"/>
        </g>
        <g id="Group_385" data-name="Group 385" transform="translate(-2634.66 517.749)">
          <path id="Rectangle_140" data-name="Rectangle 140" d="M1.342,0H18.02a1.342,1.342,0,0,1,1.342,1.342v0A1.342,1.342,0,0,1,18.02,2.685H1.342A1.342,1.342,0,0,1,0,1.342v0A1.342,1.342,0,0,1,1.342,0Z" transform="translate(0)" fill="#e4c0cf"/>
          <g id="Group_384" data-name="Group 384" transform="translate(0 7.808)">
            <path id="Path_369" data-name="Path 369" d="M-1958.968,661.487h-17.612a.878.878,0,0,1-.875-.875h0a.878.878,0,0,1,.875-.875h17.612a.878.878,0,0,1,.875.875h0A.878.878,0,0,1-1958.968,661.487Z" transform="translate(1977.456 -659.737)" fill="#e4c0cf"/>
            <path id="Rectangle_141" data-name="Rectangle 141" d="M.875,0h9.611a.875.875,0,0,1,.875.875v0a.875.875,0,0,1-.875.875H.875A.875.875,0,0,1,0,.875v0A.875.875,0,0,1,.875,0Z" transform="translate(0 4.143)" fill="#e4c0cf"/>
            <path id="Rectangle_142" data-name="Rectangle 142" d="M.875,0H17a.875.875,0,0,1,.875.875v0A.875.875,0,0,1,17,1.75H.875A.875.875,0,0,1,0,.875v0A.875.875,0,0,1,.875,0Z" transform="translate(14.08 4.143)" fill="#e4c0cf"/>
            <path id="Path_370" data-name="Path 370" d="M-1852.548,661.487h-23.094a.878.878,0,0,1-.875-.875h0a.878.878,0,0,1,.875-.875h23.094a.878.878,0,0,1,.875.875h0A.878.878,0,0,1-1852.548,661.487Z" transform="translate(1898.79 -659.737)" fill="#e4c0cf"/>
          </g>
          <rect id="Rectangle_143" data-name="Rectangle 143" width="14.207" height="2.685" rx="1.342" transform="translate(21.762)" fill="#e4c0cf"/>
        </g>
        <g id="Group_388" data-name="Group 388" transform="translate(-2621.195 633.605)">
          <rect id="Rectangle_144" data-name="Rectangle 144" width="21.198" height="2.939" rx="1.47" transform="translate(0 0)" fill="#232323"/>
          <g id="Group_386" data-name="Group 386" transform="translate(0 8.549)">
            <path id="Path_371" data-name="Path 371" d="M-1896.188,1190.069h-19.282a.961.961,0,0,1-.958-.958h0a.961.961,0,0,1,.958-.958h19.282a.961.961,0,0,1,.958.958h0A.961.961,0,0,1-1896.188,1190.069Z" transform="translate(1916.428 -1188.153)" fill="#232323"/>
            <path id="Rectangle_145" data-name="Rectangle 145" d="M.958,0H11.48a.958.958,0,0,1,.958.958v0a.958.958,0,0,1-.958.958H.958A.958.958,0,0,1,0,.958v0A.958.958,0,0,1,.958,0Z" transform="translate(0 4.535)" fill="#232323"/>
            <rect id="Rectangle_146" data-name="Rectangle 146" width="19.568" height="1.916" rx="0.958" transform="translate(15.415 4.535)" fill="#232323"/>
            <path id="Path_372" data-name="Path 372" d="M-1779.68,1190.069h-25.282a.961.961,0,0,1-.958-.958h0a.961.961,0,0,1,.958-.958h25.282a.961.961,0,0,1,.958.958h0A.961.961,0,0,1-1779.68,1190.069Z" transform="translate(1830.305 -1188.153)" fill="#232323"/>
            <path id="Path_373" data-name="Path 373" d="M-1896.188,1231.177h-19.282a.961.961,0,0,1-.958-.958h0a.961.961,0,0,1,.958-.958h19.282a.961.961,0,0,1,.958.958h0A.961.961,0,0,1-1896.188,1231.177Z" transform="translate(1916.428 -1220.19)" fill="#232323"/>
            <path id="Path_374" data-name="Path 374" d="M-1779.68,1231.177h-25.282a.961.961,0,0,1-.958-.958h0a.961.961,0,0,1,.958-.958h25.282a.961.961,0,0,1,.958.958h0A.961.961,0,0,1-1779.68,1231.177Z" transform="translate(1830.305 -1220.19)" fill="#232323"/>
          </g>
          <g id="Group_387" data-name="Group 387" transform="translate(0 22.34)">
            <path id="Path_375" data-name="Path 375" d="M-1896.188,1252.573h-19.282a.961.961,0,0,1-.958-.958h0a.961.961,0,0,1,.958-.958h19.282a.961.961,0,0,1,.958.958h0A.961.961,0,0,1-1896.188,1252.573Z" transform="translate(1916.428 -1250.657)" fill="#232323"/>
            <path id="Path_376" data-name="Path 376" d="M-1779.68,1252.573h-25.282a.961.961,0,0,1-.958-.958h0a.961.961,0,0,1,.958-.958h25.282a.961.961,0,0,1,.958.958h0A.961.961,0,0,1-1779.68,1252.573Z" transform="translate(1830.305 -1250.657)" fill="#232323"/>
          </g>
          <path id="Rectangle_147" data-name="Rectangle 147" d="M1.47,0H14.084a1.47,1.47,0,0,1,1.47,1.47v0a1.47,1.47,0,0,1-1.47,1.47H1.47A1.47,1.47,0,0,1,0,1.47v0A1.47,1.47,0,0,1,1.47,0Z" transform="translate(23.824 0)" fill="#232323"/>
        </g>
        <g id="Group_392" data-name="Group 392" transform="translate(-2653.819 499.157)">
          <path id="Path_377" data-name="Path 377" d="M-2037.095,570.843l-1.308.939-1.315-.929a1.614,1.614,0,0,1,1.315-.681A1.606,1.606,0,0,1-2037.095,570.843Z" transform="translate(2045.138 -563.535)" fill="#232323"/>
          <g id="Group_389" data-name="Group 389" transform="translate(3.553 4.349)">
            <path id="Path_378" data-name="Path 378" d="M-2045,559.8a3.886,3.886,0,0,0-3.182,1.655l.829.583a2.879,2.879,0,0,1,2.352-1.22,2.873,2.873,0,0,1,2.339,1.2l.828-.594A3.892,3.892,0,0,0-2045,559.8Z" transform="translate(2048.18 -559.802)" fill="#232323"/>
          </g>
          <g id="Group_390" data-name="Group 390" transform="translate(0 0)">
            <path id="Path_379" data-name="Path 379" d="M-2057.546,540.092a8.225,8.225,0,0,0-6.734,3.5l.832.583a7.219,7.219,0,0,1,5.9-3.065,7.224,7.224,0,0,1,5.874,3.021l.823-.594A8.221,8.221,0,0,0-2057.546,540.092Z" transform="translate(2064.28 -540.092)" fill="#232323"/>
          </g>
          <g id="Group_391" data-name="Group 391" transform="translate(1.933 2.381)">
            <path id="Path_380" data-name="Path 380" d="M-2050.719,550.882a5.886,5.886,0,0,0-4.8,2.48l.83.583a4.881,4.881,0,0,1,3.972-2.045,4.884,4.884,0,0,1,3.952,2.015l.823-.589A5.88,5.88,0,0,0-2050.719,550.882Z" transform="translate(2055.52 -550.882)" fill="#232323"/>
          </g>
        </g>
        <path id="Path_381" data-name="Path 381" d="M-2067.048,1171.722a8.313,8.313,0,0,0,1.736,5.1,8.316,8.316,0,0,0,1.223,1.28,8.352,8.352,0,0,0,1.456.993,8.316,8.316,0,0,0,3.947.99,8.323,8.323,0,0,0,4.793-1.51c.069-.047.136-.1.2-.146a8.365,8.365,0,0,0,1.632-1.607,8.316,8.316,0,0,0,1.736-5.1,8.362,8.362,0,0,0-8.364-8.361A8.361,8.361,0,0,0-2067.048,1171.722Z" transform="translate(-587.381 -526.678)" fill="#fff"/>
        <path id="Path_382" data-name="Path 382" d="M-2043.891,1186.26l-.77-.682c-.064.013-.128.024-.192.035a5.2,5.2,0,0,0-.45-.28c.051-.311.093-.6.128-.856a13.839,13.839,0,0,0,.13-1.52c.408-.02.684-.064.684-.064.772-.179.81-2.815.631-4.19a.992.992,0,0,0,.43-.082c.585-.258.618-1.143.618-1.143a1.035,1.035,0,0,1-.419.417s.978-1.339-.157-2.255-2.284-.318-2.941-.278c-1.443.088-2.376.174-2.846,1.123a5.265,5.265,0,0,0,.609,4.455c.015.088.031.174.042.263a1.761,1.761,0,0,0,.353.841,5.9,5.9,0,0,1-1.068,2.485,3.865,3.865,0,0,0-.768.828l-.016.011.007,0a8.37,8.37,0,0,0-1.079,2.368s0,.009,0,.013a7.914,7.914,0,0,0,1.525.839l.106.044c.009,0,.016.007.024.009.057.024.117.046.175.068.141.055.282.106.426.152s.3.093.454.132c.071.018.141.035.212.051s.124.029.188.04l.026.007.126.024c.1.018.2.035.3.051l.069.009c.055.009.108.016.163.022l.232.026c.086.009.175.016.263.02s.166.011.249.013.174,0,.262,0,.188,0,.282,0a.087.087,0,0,0,.024,0c.022,0,.046,0,.068,0q.07,0,.139-.007a.048.048,0,0,1,.018,0c.088,0,.174-.011.262-.02a8.312,8.312,0,0,0,3.151-.953A8.79,8.79,0,0,0-2043.891,1186.26Z" transform="translate(-599.912 -535.852)" fill="#232323"/>
        <path id="Path_383" data-name="Path 383" d="M-1694.964,1391.795a8.381,8.381,0,0,0,1.748,5.136,8.483,8.483,0,0,0,1.23,1.288,8.383,8.383,0,0,0,5.441,1.995,8.374,8.374,0,0,0,5.029-1.667,8.443,8.443,0,0,0,1.643-1.616,8.378,8.378,0,0,0,1.748-5.136,8.418,8.418,0,0,0-8.419-8.419A8.418,8.418,0,0,0-1694.964,1391.795Z" transform="translate(-877.364 -698.146)" fill="#fff"/>
        <path id="Path_384" data-name="Path 384" d="M-1671.727,1405.427a.3.3,0,0,0-.042-.064.657.657,0,0,0-.135-.139l0,0a1.7,1.7,0,0,0-.415-.232l-.018-.007a6.781,6.781,0,0,0-1.69-.424c-.274-.042-.49-.068-.591-.079a4.016,4.016,0,0,1-.724-2.513l0,0s.315-.733.733-.5c.651.355,1.908-1.083,1.507-2.974a5.217,5.217,0,0,0-.155-.561,1.164,1.164,0,0,0,.433.106c.377,0,.949-.967,1.026-1.291s-.007-1.39-.526-1.706a1.7,1.7,0,0,0-1.341.06c.258-.362,1.141-.289,1.3-.271-2.061-.428-2.487.894-2.522,1.013-1.311-1.185-3.312.863-3.8,1.41-.033.029-.066.06-.1.093a1.423,1.423,0,0,0-.371.331,1.69,1.69,0,0,0-.34,1.094,3.879,3.879,0,0,0,.26,1.308c.119,1.145.45,2.564.98,2.606,0,0,.188,0,.47-.022,0,.013,0,.024,0,.037.009.192.016.408.018.625v.13c0,.576-.033,1.123-.163,1.192-.044,0-.082.007-.115.011-.053,0-.152.015-.152.015-.459.06-.785.106-1.017.146a1.342,1.342,0,0,0-.686.221,1.019,1.019,0,0,0-.08.084,5.254,5.254,0,0,0-1.49,1.955,8.385,8.385,0,0,0,5.442,1.995,8.369,8.369,0,0,0,5.029-1.666A11.264,11.264,0,0,0-1671.727,1405.427Z" transform="translate(-887.88 -707.007)" fill="#e4c0cf"/>
        <path id="Path_385" data-name="Path 385" d="M-1694.964,624.929a8.38,8.38,0,0,0,1.748,5.136,8.452,8.452,0,0,0,1.23,1.288,8.381,8.381,0,0,0,5.441,1.995,8.374,8.374,0,0,0,5.029-1.667,8.426,8.426,0,0,0,1.643-1.617,8.376,8.376,0,0,0,1.748-5.136,8.418,8.418,0,0,0-8.419-8.419A8.418,8.418,0,0,0-1694.964,624.929Z" transform="translate(-877.364 -100.491)" fill="#fff"/>
        <path id="Path_386" data-name="Path 386" d="M-1671.727,638.558a.371.371,0,0,0-.042-.064.662.662,0,0,0-.135-.139l0,0a1.843,1.843,0,0,0-.415-.232l-.018-.007a6.89,6.89,0,0,0-1.69-.424v0c-.274-.044-.49-.071-.591-.082a.946.946,0,0,1-.214-.276v0a5.25,5.25,0,0,1-.51-2.235l0,0s.315-.73.733-.5c.651.355,1.908-1.081,1.507-2.972a5.136,5.136,0,0,0-.155-.563,1.164,1.164,0,0,0,.433.106c.377,0,.949-.967,1.026-1.289s-.007-1.392-.526-1.708a1.7,1.7,0,0,0-1.341.062c.258-.362,1.143-.289,1.3-.274-2.061-.428-2.487.9-2.522,1.013-1.311-1.183-3.312.865-3.8,1.41-.033.029-.066.06-.1.093a1.434,1.434,0,0,0-.371.333,1.68,1.68,0,0,0-.34,1.092,3.864,3.864,0,0,0,.26,1.308c.119,1.147.45,2.564.98,2.606,0,0,.188,0,.47-.02,0,.011,0,.022,0,.035.009.192.016.408.018.627v.13c0,.576-.033,1.121-.163,1.192-.044,0-.082.007-.115.009l-.152.015c-.459.06-.785.106-1.017.146a1.365,1.365,0,0,0-.686.221c-.026.026-.053.055-.08.084a5.266,5.266,0,0,0-1.49,1.957q.119.1.245.2l.042.033c.062.048.124.095.188.139.044.035.088.068.135.1s.093.064.139.093c.066.049.134.093.205.135.046.031.093.06.141.088s.117.071.177.1.132.075.2.11c.007,0,.011.007.018.009l.011.007h0l.029.015c.053.029.106.055.159.082,0,0,.007,0,.011,0a.5.5,0,0,0,.049.024c.029.015.06.031.09.044l.088.042c.066.031.137.062.205.09s.139.057.207.084c.033.013.064.026.095.037s.062.024.095.035c.064.024.13.046.194.068s.135.044.2.066l.172.053.018,0c.035.011.073.022.11.031.2.055.406.1.614.143.091.018.181.035.271.049.024,0,.046.009.071.011l.015,0a.013.013,0,0,1,.009,0c.06.009.115.015.177.022a.222.222,0,0,0,.038,0l.026,0c.055.009.11.013.163.018l.029,0,.051.007c.1.009.2.015.3.02h.015c.031,0,.06,0,.093,0l.057,0c.1,0,.194.007.292.007a8.371,8.371,0,0,0,5.029-1.668A11.335,11.335,0,0,0-1671.727,638.558Z" transform="translate(-887.88 -109.35)" fill="#e4c0cf"/>
        <path id="Path_387" data-name="Path 387" d="M-1552.419,1963.1l-35.4.033h-20.188c-4.867-3.264-30.148-20.508-40.609-33.363-2.215-2.725-10.324-26.2-16.556-45.265v-.009c.828,2.531,18.217,39.567,23.169,43.778s30.949,28.72,38.129,28.471c6.955-.239,49.055,6.906,51.35,6.379C-1552.487,1963.113-1552.454,1963.1-1552.419,1963.1Z" transform="translate(-900.584 -1088.689)" fill="#d3957d"/>
        <path id="Path_388" data-name="Path 388" d="M-1700.746,1584.447a.008.008,0,0,0,.007,0c1.842-.676,4.429-1.121,5.688.981,1.958,3.271-5.318,32.122-6.227,35.752Z" transform="translate(-872.443 -854.41)" fill="#d3957d"/>
        <path id="Path_389" data-name="Path 389" d="M-1698.516,1516.127l-.626,17.451s3.669.6,5.756-.96S-1692.4,1515.922-1698.516,1516.127Z" transform="translate(-874.108 -801.603)" fill="#ffc197"/>
      </g>
    </g>
  </g>
</svg>
